<svg xmlns="http://www.w3.org/2000/svg" xmlns:xlink="http://www.w3.org/1999/xlink" fill="none" version="1.1" width="512" height="512" viewBox="0 0 512 512"><defs><linearGradient x1="0" y1="1" x2="1" y2="0" id="master_svg0_26_96"><stop offset="0%" stop-color="#FFA880" stop-opacity="1"/><stop offset="100%" stop-color="#FF0C03" stop-opacity="1"/></linearGradient><linearGradient x1="0" y1="1" x2="1" y2="0" id="master_svg1_26_96"><stop offset="0%" stop-color="#FFA880" stop-opacity="1"/><stop offset="100%" stop-color="#FF0C03" stop-opacity="1"/></linearGradient></defs><g style="mix-blend-mode:passthrough"><g style="mix-blend-mode:passthrough"><path d="M483.99999237060547,147.926L28.000022888205468,147.926Q27.50905037060547,147.926,27.01866937060547,147.902Q26.52829237060547,147.878,26.03968237060547,147.82999999999998Q25.551072370605468,147.781,25.06541237060547,147.709Q24.57975237060547,147.637,24.09821237060547,147.542Q23.616682370605467,147.446,23.14042237060547,147.327Q22.664162370605467,147.207,22.19433237060547,147.065Q21.72450237060547,146.922,21.262222370605468,146.757Q20.799952370605467,146.591,20.34635237060547,146.40300000000002Q19.89275237060547,146.216,19.44892237060547,146.006Q19.005092370605468,145.796,18.572092370605468,145.564Q18.139092370605468,145.333,17.71799237060547,145.07999999999998Q17.29689237060547,144.828,16.88859237060547,144.555Q16.48039237060547,144.28300000000002,16.085992370605467,143.99Q15.69169237060547,143.69799999999998,15.31219237060547,143.386Q14.93259237060547,143.075,14.568892370605468,142.745Q14.205092370605469,142.41500000000002,13.85789237060547,142.06799999999998Q13.510692370605469,141.721,13.180992370605468,141.357Q12.851292370605469,140.993,12.539792370605468,140.614Q12.22839237060547,140.23399999999998,11.935892370605469,139.84Q11.643392370605468,139.446,11.370592370605468,139.037Q11.097892370605468,138.62900000000002,10.84549237060547,138.208Q10.593092370605468,137.787,10.361592370605468,137.35399999999998Q10.130192370605467,136.921,9.92019237060547,136.477Q9.710292370605469,136.03300000000002,9.52239237060547,135.57999999999998Q9.334592370605467,135.126,9.169192370605469,134.664Q9.003692370605467,134.201,8.861192370605469,133.732Q8.718692370605467,133.262,8.599392370605468,132.785Q8.480092370605469,132.309,8.384292370605468,131.828Q8.288492370605468,131.346,8.216492370605469,130.861Q8.14449237060547,130.375,8.096292370605468,129.886Q8.04819237060547,129.398,8.02409237060547,128.90699999999998Q7.999992370605469,128.417,7.999992370605469,127.9259Q7.999992370605469,127.4349,8.02409237060547,126.9446Q8.04819237060547,126.4542,8.096292370605468,125.9656Q8.14449237060547,125.477,8.216492370605469,124.9913Q8.288492370605468,124.5056,8.384292370605468,124.0241Q8.480092370605469,123.5426,8.599392370605468,123.0663Q8.718692370605467,122.59,8.861192370605469,122.1202Q9.003692370605467,121.6504,9.169192370605469,121.1881Q9.334592370605467,120.7258,9.52239237060547,120.2722Q9.710292370605469,119.8186,9.92019237060547,119.3748Q10.130192370605467,118.931,10.361592370605468,118.498Q10.593092370605468,118.065,10.84549237060547,117.6439Q11.097892370605468,117.2227,11.370592370605468,116.8145Q11.643392370605468,116.4063,11.935892370605469,116.0119Q12.22839237060547,115.6176,12.539792370605468,115.2381Q12.851292370605469,114.8585,13.180992370605468,114.4947Q13.510692370605469,114.1309,13.85789237060547,113.7838Q14.205092370605469,113.4366,14.568892370605468,113.1069Q14.93259237060547,112.7772,15.31219237060547,112.4657Q15.69169237060547,112.1542,16.085992370605467,111.8618Q16.48039237060547,111.5693,16.88859237060547,111.2965Q17.29689237060547,111.0238,17.71799237060547,110.7713Q18.139092370605468,110.5189,18.572092370605468,110.2875Q19.005092370605468,110.056,19.44892237060547,109.8461Q19.89275237060547,109.6362,20.34635237060547,109.4483Q20.799952370605467,109.2604,21.262222370605468,109.095Q21.72450237060547,108.9296,22.19433237060547,108.7871Q22.664162370605467,108.6446,23.14042237060547,108.5253Q23.616682370605467,108.406,24.09821237060547,108.3102Q24.57975237060547,108.2144,25.06541237060547,108.1424Q25.551072370605468,108.0704,26.03968237060547,108.0222Q26.52829237060547,107.9741,27.01866937060547,107.95Q27.50905037060547,107.9259,28.000022888205468,107.9259L483.99999237060547,107.9259Q484.49099237060545,107.9259,484.98099237060546,107.95Q485.47199237060545,107.9741,485.95999237060545,108.0222Q486.4489923706055,108.0703,486.93499237060547,108.1424Q487.4199923706055,108.2144,487.90199237060546,108.3102Q488.38299237060545,108.406,488.8599923706055,108.5253Q489.3359923706055,108.6446,489.80599237060545,108.7871Q490.27499237060545,108.9296,490.73799237060547,109.095Q491.19999237060546,109.2604,491.65399237060547,109.4483Q492.1069923706055,109.6362,492.55099237060546,109.8461Q492.9949923706055,110.056,493.42799237060547,110.2875Q493.86099237060546,110.5189,494.28199237060545,110.7713Q494.70299237060544,111.0238,495.11099237060546,111.2965Q495.51999237060545,111.5693,495.91399237060546,111.8618Q496.30799237060546,112.1542,496.68799237060546,112.4657Q497.0669923706055,112.7772,497.43099237060545,113.1069Q497.7949923706055,113.4366,498.14199237060546,113.7838Q498.48899237060544,114.1309,498.8189923706055,114.4947Q499.14899237060547,114.8585,499.45999237060545,115.2381Q499.77199237060546,115.6176,500.0639923706055,116.0119Q500.3569923706055,116.4063,500.6289923706055,116.8145Q500.90199237060546,117.2227,501.15399237060547,117.6439Q501.40699237060545,118.065,501.63799237060545,118.498Q501.8699923706055,118.931,502.07999237060545,119.3748Q502.2899923706055,119.8186,502.4779923706055,120.2722Q502.6649923706055,120.7258,502.8309923706055,121.1881Q502.99599237060545,121.6504,503.1389923706055,122.1202Q503.2809923706055,122.59,503.4009923706055,123.0663Q503.51999237060545,123.5426,503.61599237060545,124.0241Q503.7109923706055,124.5056,503.78399237060546,124.9913Q503.85599237060546,125.477,503.90399237060547,125.9656Q503.95199237060547,126.4542,503.97599237060547,126.9446Q503.99999237060547,127.4349,503.99999237060547,127.9259Q503.99999237060547,128.417,503.97599237060547,128.90699999999998Q503.95199237060547,129.398,503.90399237060547,129.886Q503.85599237060546,130.375,503.7829923706055,130.861Q503.7109923706055,131.346,503.61599237060545,131.828Q503.51999237060545,132.309,503.4009923706055,132.786Q503.2809923706055,133.262,503.1389923706055,133.732Q502.99599237060545,134.201,502.8309923706055,134.664Q502.6649923706055,135.126,502.4779923706055,135.57999999999998Q502.2899923706055,136.03300000000002,502.07999237060545,136.477Q501.8699923706055,136.921,501.63799237060545,137.35399999999998Q501.40699237060545,137.787,501.15399237060547,138.208Q500.90199237060546,138.62900000000002,500.6289923706055,139.037Q500.3569923706055,139.446,500.0639923706055,139.84Q499.77199237060546,140.23399999999998,499.45999237060545,140.614Q499.14899237060547,140.993,498.8189923706055,141.357Q498.48899237060544,141.721,498.14199237060546,142.06799999999998Q497.7949923706055,142.41500000000002,497.43099237060545,142.745Q497.0669923706055,143.075,496.68799237060546,143.386Q496.30799237060546,143.69799999999998,495.91399237060546,143.99Q495.51999237060545,144.28300000000002,495.11099237060546,144.555Q494.70299237060544,144.828,494.28199237060545,145.07999999999998Q493.86099237060546,145.333,493.42799237060547,145.564Q492.9949923706055,145.796,492.55099237060546,146.006Q492.1069923706055,146.216,491.65399237060547,146.40300000000002Q491.19999237060546,146.591,490.73799237060547,146.757Q490.27499237060545,146.922,489.80599237060545,147.065Q489.3359923706055,147.207,488.8599923706055,147.327Q488.38299237060545,147.446,487.90199237060546,147.542Q487.4199923706055,147.637,486.93499237060547,147.709Q486.4489923706055,147.781,485.95999237060545,147.82999999999998Q485.47199237060545,147.878,484.98099237060546,147.902Q484.49099237060545,147.926,483.99999237060547,147.926ZM402.49999237060547,48L258.64499237060545,48L102.99999237060547,48Q88.49139237060547,48,78.30529237060547,52.5238Q68.99759237060547,56.6575,62.74579237060547,64.9872Q55.79629237060547,74.2462,52.08949237060547,89.0624Q47.99999237060547,105.4083,47.99999237060547,127.9259L47.99999237060547,426.197Q47.99999237060547,436.508,51.04419237060547,443.547Q53.67919237060547,449.639,58.95889237060547,453.708Q65.08019237060546,458.426,75.16399237060547,461.016Q86.77789237060547,464,102.99999237060547,464L258.64499237060545,464L402.49999237060547,464Q420.5429923706055,464,433.5549923706055,460.924Q445.0449923706055,458.207,452.0549923706055,453.236Q457.94999237060546,449.055,460.80599237060545,442.979Q463.99999237060547,436.182,463.99999237060547,426.197L463.99999237060547,127.9259Q463.99999237060547,105.6146,459.6069923706055,89.45519999999999Q455.62799237060545,74.81989999999999,448.12599237060545,65.6223Q441.15699237060545,57.0777,430.58999237060544,52.7589Q418.9459923706055,48,402.49999237060547,48L402.49999237060547,48ZM402.49999237060547,8Q426.80399237060544,8,445.7229923706055,15.7319Q465.7179923706055,23.90375,479.1239923706055,40.3407Q503.99999237060547,70.8411,503.99999237060547,127.9259L503.99999237060547,426.197Q503.99999237060547,445.113,497.0069923706055,459.993Q489.6749923706055,475.593,475.19499237060546,485.863Q461.82999237060545,495.342,442.75799237060545,499.851Q425.20699237060546,504,402.49999237060547,504L258.64499237060545,504L102.99999237060547,504Q58.68729237060547,504,34.54113237060547,485.39Q21.07084237060547,475.009,14.330892370605468,459.425Q7.999992370605469,444.788,7.999992370605469,426.197L7.999992370605469,127.9259Q7.999992370605469,71.2923,30.75428237060547,40.9758Q43.25239237060547,24.323999999999998,62.06979237060547,15.9669Q80.00859237060547,8,102.99999237060547,8L258.64499237060545,8L402.49999237060547,8L402.49999237060547,8Z" fill="url(#master_svg0_26_96)" fill-opacity="1"/></g><g style="mix-blend-mode:passthrough"><path d="M207.0575,212.7738L333.558,337.774Q333.90700000000004,338.119,334.23900000000003,338.481Q334.571,338.842,334.884,339.22Q335.198,339.598,335.493,339.99Q335.788,340.383,336.063,340.79Q336.33799999999997,341.196,336.59299999999996,341.616Q336.848,342.03499999999997,337.082,342.467Q337.31600000000003,342.899,337.528,343.341Q337.741,343.784,337.932,344.236Q338.122,344.68899999999996,338.28999999999996,345.15Q338.45799999999997,345.611,338.60400000000004,346.08Q338.749,346.549,338.871,347.025Q338.993,347.5,339.092,347.981Q339.19100000000003,348.462,339.26599999999996,348.947Q339.341,349.433,339.392,349.921Q339.443,350.409,339.47,350.9Q339.497,351.39,339.5,351.881Q339.503,352.372,339.481,352.86199999999997Q339.46000000000004,353.353,339.41499999999996,353.842Q339.37,354.33,339.301,354.817Q339.23199999999997,355.303,339.139,355.78499999999997Q339.046,356.267,338.929,356.744Q338.813,357.221,338.673,357.69100000000003Q338.533,358.16200000000003,338.371,358.625Q338.20799999999997,359.089,338.023,359.543Q337.83799999999997,359.998,337.63,360.443Q337.423,360.88800000000003,337.19399999999996,361.323Q336.96500000000003,361.757,336.716,362.18Q336.466,362.602,336.195,363.012Q335.925,363.422,335.635,363.818Q335.345,364.214,335.036,364.595Q334.726,364.977,334.399,365.34299999999996Q334.071,365.70799999999997,333.726,366.058Q333.381,366.40700000000004,333.019,366.73900000000003Q332.65700000000004,367.071,332.28,367.384Q331.902,367.698,331.51,367.993Q331.11699999999996,368.288,330.71000000000004,368.563Q330.304,368.83799999999997,329.884,369.09299999999996Q329.46500000000003,369.348,329.033,369.582Q328.601,369.81600000000003,328.159,370.028Q327.716,370.241,327.264,370.432Q326.81100000000004,370.622,326.35,370.78999999999996Q325.889,370.95799999999997,325.41999999999996,371.10400000000004Q324.951,371.249,324.475,371.371Q324,371.493,323.519,371.592Q323.038,371.69100000000003,322.553,371.76599999999996Q322.067,371.841,321.579,371.892Q321.091,371.943,320.6,371.97Q320.11,371.997,319.619,372Q319.128,372.003,318.63800000000003,371.981Q318.147,371.96000000000004,317.658,371.91499999999996Q317.17,371.87,316.683,371.801Q316.197,371.73199999999997,315.71500000000003,371.639Q315.233,371.546,314.756,371.429Q314.279,371.313,313.80899999999997,371.173Q313.33799999999997,371.033,312.875,370.871Q312.411,370.70799999999997,311.957,370.523Q311.502,370.33799999999997,311.057,370.13Q310.61199999999997,369.923,310.177,369.69399999999996Q309.743,369.46500000000003,309.32,369.216Q308.898,368.966,308.488,368.695Q308.078,368.425,307.682,368.135Q307.286,367.845,306.905,367.536Q306.523,367.226,306.157,366.899Q305.79200000000003,366.571,305.442,366.226L178.9425,241.2262Q178.5932,240.8811,178.2613,240.5193Q177.9295,240.1575,177.6157,239.7798Q177.302,239.4022,177.0072,239.0096Q176.7124,238.617,176.4372,238.2104Q176.162,237.8038,175.9071,237.3842Q175.6521,236.96457,175.4181,236.53296Q175.1841,236.10135,174.9715,235.65878Q174.75900000000001,235.21620000000001,174.5684,234.76373Q174.3778,234.31126,174.2096,233.84998Q174.04149999999998,233.38871,173.8962,232.91974Q173.7508,232.45076,173.6287,231.97522Q173.5066,231.49968,173.4079,231.01873Q173.3093,230.53777,173.2343,230.05255Q173.1594,229.56733,173.1084,229.07902Q173.0573,228.5907,173.0303,228.10047Q173.0033,227.610245,173.0004,227.119282Q172.9974,226.628318,173.0186,226.137802Q173.0398,225.64729,173.085,225.1584Q173.1302,224.66951,173.1993,224.18343Q173.2685,223.69735,173.3614,223.21525Q173.4543,222.73315,173.5707,222.25619Q173.6872,221.77923,173.8269,221.30856Q173.9666,220.83788,174.1293,220.37463Q174.2919,219.91138,174.4771,219.45667Q174.6623,219.00196,174.8695,218.55688Q175.0768,218.1118,175.3057,217.67743Q175.5345,217.24306,175.7844,216.8204Q176.0343,216.3978,176.3046,215.988Q176.575,215.5781,176.8651,215.182Q177.1552,214.7859,177.4644,214.4046Q177.7736,214.0232,178.1011,213.6574Q178.4287,213.2917,178.7738,212.9425Q179.1189,212.5932,179.4807,212.2613Q179.8425,211.9295,180.2202,211.6157Q180.5978,211.302,180.9904,211.0072Q181.383,210.7124,181.7896,210.4372Q182.1962,210.162,182.6158,209.9071Q183.03543,209.6521,183.46704,209.4181Q183.89865,209.1841,184.34122,208.9715Q184.78379999999999,208.75900000000001,185.23627,208.5684Q185.68874,208.3778,186.15002,208.2096Q186.61129,208.04149999999998,187.08026,207.8962Q187.54924,207.7508,188.02478,207.6287Q188.50032,207.5066,188.98127,207.4079Q189.46223,207.3093,189.94745,207.2343Q190.43267,207.1594,190.92098,207.1084Q191.4093,207.0573,191.89953,207.0303Q192.389755,207.0033,192.880718,207.0004Q193.371682,206.9974,193.862198,207.0186Q194.35271,207.0398,194.8416,207.085Q195.33049,207.1302,195.81657,207.1993Q196.30265,207.2685,196.78475,207.3614Q197.26685,207.4543,197.74381,207.5707Q198.22077,207.6872,198.69144,207.8269Q199.16212,207.9666,199.62537,208.1293Q200.08862,208.2919,200.54333,208.4771Q200.99804,208.6623,201.44312,208.8695Q201.8882,209.0768,202.32257,209.3057Q202.75694,209.5345,203.1796,209.7844Q203.6022,210.0343,204.012,210.3046Q204.4219,210.575,204.818,210.8651Q205.2141,211.1552,205.5954,211.4644Q205.9768,211.7736,206.3426,212.1011Q206.7083,212.4287,207.0575,212.7738ZM333.558,241.2262L207.0575,366.226Q206.7083,366.571,206.3426,366.899Q205.9768,367.226,205.5954,367.536Q205.2141,367.845,204.818,368.135Q204.4219,368.425,204.012,368.695Q203.6022,368.966,203.1796,369.216Q202.75694,369.46500000000003,202.32257,369.69399999999996Q201.8882,369.923,201.44312,370.13Q200.99804,370.33799999999997,200.54333,370.523Q200.08862,370.70799999999997,199.62537,370.871Q199.16212,371.033,198.69144,371.173Q198.22077,371.313,197.74381,371.429Q197.26685,371.546,196.78475,371.639Q196.30265,371.73199999999997,195.81657,371.801Q195.33049,371.87,194.8416,371.91499999999996Q194.35271,371.96000000000004,193.862198,371.981Q193.371682,372.003,192.880718,372Q192.389755,371.997,191.89953,371.97Q191.4093,371.943,190.92098,371.892Q190.43267,371.841,189.94745,371.76599999999996Q189.46223,371.69100000000003,188.98127,371.592Q188.50032,371.493,188.02478,371.371Q187.54924,371.249,187.08026,371.10400000000004Q186.61129,370.95799999999997,186.15002,370.78999999999996Q185.68874,370.622,185.23627,370.432Q184.78379999999999,370.241,184.34122,370.028Q183.89865,369.81600000000003,183.46704,369.582Q183.03543,369.348,182.6158,369.09299999999996Q182.1962,368.83799999999997,181.7896,368.563Q181.383,368.288,180.9904,367.993Q180.5978,367.698,180.2202,367.384Q179.8425,367.071,179.4807,366.73900000000003Q179.1189,366.40700000000004,178.7738,366.058Q178.4287,365.70799999999997,178.1011,365.34299999999996Q177.7736,364.977,177.4644,364.595Q177.1552,364.214,176.8651,363.818Q176.575,363.422,176.3046,363.012Q176.0343,362.602,175.7844,362.18Q175.5345,361.757,175.3057,361.323Q175.0768,360.88800000000003,174.8695,360.443Q174.6623,359.998,174.4771,359.543Q174.2919,359.089,174.1293,358.625Q173.9666,358.16200000000003,173.8269,357.69100000000003Q173.6872,357.221,173.5707,356.744Q173.4543,356.267,173.3614,355.78499999999997Q173.2685,355.303,173.1993,354.817Q173.1302,354.33,173.085,353.842Q173.0398,353.353,173.0186,352.86199999999997Q172.9974,352.372,173.0004,351.881Q173.0033,351.39,173.0303,350.9Q173.0573,350.409,173.1084,349.921Q173.1594,349.433,173.2343,348.947Q173.3093,348.462,173.4079,347.981Q173.5066,347.5,173.6287,347.025Q173.7508,346.549,173.8962,346.08Q174.04149999999998,345.611,174.2096,345.15Q174.3778,344.68899999999996,174.5684,344.236Q174.75900000000001,343.784,174.9715,343.341Q175.1841,342.899,175.4181,342.467Q175.6521,342.03499999999997,175.9071,341.616Q176.162,341.196,176.4372,340.79Q176.7124,340.383,177.0072,339.99Q177.302,339.598,177.6157,339.22Q177.9295,338.842,178.2613,338.481Q178.5932,338.119,178.9425,337.774L305.442,212.7738Q305.79200000000003,212.4287,306.157,212.1011Q306.523,211.7736,306.905,211.4644Q307.286,211.1552,307.682,210.8651Q308.078,210.575,308.488,210.3046Q308.898,210.0343,309.32,209.7844Q309.743,209.5345,310.177,209.3057Q310.61199999999997,209.0768,311.057,208.8695Q311.502,208.6623,311.957,208.4771Q312.411,208.2919,312.875,208.1293Q313.33799999999997,207.9666,313.80899999999997,207.8269Q314.279,207.6872,314.756,207.5707Q315.233,207.4543,315.71500000000003,207.3614Q316.197,207.2685,316.683,207.1993Q317.169,207.1302,317.658,207.085Q318.147,207.0398,318.63800000000003,207.0186Q319.128,206.9974,319.619,207.0004Q320.11,207.0033,320.6,207.0303Q321.091,207.0573,321.579,207.1084Q322.067,207.1594,322.553,207.2343Q323.038,207.3093,323.519,207.4079Q324,207.5066,324.475,207.6287Q324.951,207.7508,325.41999999999996,207.8962Q325.889,208.04149999999998,326.35,208.2096Q326.81100000000004,208.3778,327.264,208.5684Q327.716,208.75900000000001,328.159,208.9715Q328.601,209.1841,329.033,209.4181Q329.46500000000003,209.6521,329.884,209.9071Q330.304,210.162,330.71000000000004,210.4372Q331.11699999999996,210.7124,331.51,211.0072Q331.902,211.302,332.28,211.6157Q332.65700000000004,211.9295,333.019,212.2613Q333.381,212.5932,333.726,212.9425Q334.071,213.2917,334.399,213.6574Q334.726,214.0232,335.036,214.4046Q335.345,214.7859,335.635,215.182Q335.925,215.5781,336.195,215.988Q336.466,216.3978,336.716,216.8204Q336.96500000000003,217.24306,337.19399999999996,217.67743Q337.423,218.1118,337.63,218.55688Q337.83799999999997,219.00196,338.023,219.45667Q338.20799999999997,219.91138,338.371,220.37463Q338.533,220.83788,338.673,221.30856Q338.813,221.77923,338.929,222.25619Q339.046,222.73315,339.139,223.21525Q339.23199999999997,223.69735,339.301,224.18343Q339.37,224.66951,339.41499999999996,225.1584Q339.46000000000004,225.64729,339.481,226.137802Q339.503,226.628318,339.5,227.119282Q339.497,227.610245,339.47,228.10047Q339.443,228.5907,339.392,229.07902Q339.341,229.56733,339.26599999999996,230.05255Q339.19100000000003,230.53777,339.092,231.01873Q338.993,231.49968,338.871,231.97522Q338.749,232.45076,338.60400000000004,232.91974Q338.45799999999997,233.38871,338.28999999999996,233.84998Q338.122,234.31126,337.932,234.76373Q337.741,235.21620000000001,337.528,235.65878Q337.31600000000003,236.10135,337.082,236.53296Q336.848,236.96457,336.59299999999996,237.3842Q336.33799999999997,237.8038,336.063,238.2104Q335.788,238.617,335.493,239.0096Q335.198,239.4022,334.884,239.7798Q334.571,240.1575,334.23900000000003,240.5193Q333.90700000000004,240.8811,333.558,241.2262Z" fill="url(#master_svg1_26_96)" fill-opacity="1"/></g></g></svg>