<svg xmlns="http://www.w3.org/2000/svg" xmlns:xlink="http://www.w3.org/1999/xlink" fill="none" version="1.1" width="256" height="256" viewBox="0 0 256 256"><defs><clipPath id="master_svg0_1_0364"><rect x="0" y="0" width="256" height="256" rx="0"/></clipPath></defs><g style="mix-blend-mode:passthrough" clip-path="url(#master_svg0_1_0364)"><g style="mix-blend-mode:passthrough"><path d="M16.5,194L16.5,61Q16.5,60.693142,16.5151,60.386654Q16.530099999999997,60.080166,16.560200000000002,59.77479Q16.5903,59.46941,16.6353,59.16587Q16.680300000000003,58.86233,16.7402,58.56137Q16.8001,58.26041,16.8746,57.96275Q16.949199999999998,57.66509,17.0382,57.37144Q17.127299999999998,57.077799999999996,17.2307,56.78888Q17.3341,56.49996,17.4515,56.21646Q17.5689,55.93296,17.7001,55.65556Q17.8313,55.37817,17.976,55.10754Q18.1206,54.83692,18.278399999999998,54.57372Q18.4362,54.31052,18.6066,54.055369999999996Q18.7771,53.80023,18.959899999999998,53.55376Q19.142699999999998,53.30729,19.33737,53.07009Q19.532040000000002,52.83288,19.73811,52.60551Q19.94418,52.37815,20.16117,52.16117Q20.378149999999998,51.94418,20.605510000000002,51.73811Q20.83288,51.53204,21.07008,51.33737Q21.307290000000002,51.1427,21.55376,50.9599Q21.80023,50.777100000000004,22.05537,50.6066Q22.31052,50.4362,22.57372,50.2784Q22.83692,50.120599999999996,23.10754,49.976Q23.37817,49.8313,23.65556,49.7001Q23.93296,49.5689,24.216459999999998,49.451499999999996Q24.49996,49.3341,24.78888,49.2307Q25.0778,49.1273,25.37144,49.0382Q25.66509,48.9492,25.96275,48.8746Q26.26041,48.8001,26.56137,48.7402Q26.86233,48.6803,27.165869999999998,48.6353Q27.46941,48.5903,27.77479,48.5602Q28.080166,48.5301,28.386654,48.515100000000004Q28.693142,48.5,29,48.5L226,48.5Q226.307,48.5,226.613,48.515100000000004Q226.92,48.5301,227.225,48.5602Q227.531,48.5903,227.834,48.6353Q228.138,48.6803,228.439,48.7402Q228.74,48.8001,229.037,48.8746Q229.335,48.9492,229.629,49.0382Q229.922,49.1273,230.211,49.2307Q230.5,49.3341,230.784,49.451499999999996Q231.067,49.5689,231.344,49.7001Q231.622,49.8313,231.892,49.976Q232.163,50.120599999999996,232.426,50.2784Q232.689,50.4362,232.945,50.6066Q233.2,50.777100000000004,233.446,50.9599Q233.693,51.1427,233.93,51.33737Q234.167,51.53204,234.394,51.73811Q234.622,51.94418,234.839,52.16117Q235.056,52.37815,235.262,52.60551Q235.468,52.83288,235.663,53.07008Q235.857,53.30729,236.04,53.55376Q236.223,53.80023,236.393,54.055369999999996Q236.564,54.31052,236.722,54.57372Q236.879,54.83692,237.024,55.10754Q237.169,55.37817,237.3,55.65556Q237.431,55.93296,237.548,56.21646Q237.666,56.49996,237.769,56.78888Q237.873,57.077799999999996,237.962,57.37144Q238.051,57.66509,238.125,57.96275Q238.2,58.26041,238.26,58.56137Q238.32,58.86233,238.365,59.16587Q238.41,59.46941,238.44,59.77479Q238.47,60.080166,238.485,60.386654Q238.5,60.693142,238.5,61L238.5,194Q238.5,194.307,238.485,194.613Q238.47,194.92,238.44,195.225Q238.41,195.531,238.365,195.834Q238.32,196.138,238.26,196.439Q238.2,196.74,238.125,197.037Q238.051,197.335,237.962,197.629Q237.873,197.922,237.769,198.211Q237.666,198.5,237.548,198.784Q237.431,199.067,237.3,199.344Q237.169,199.622,237.024,199.892Q236.879,200.163,236.722,200.426Q236.564,200.689,236.393,200.945Q236.223,201.2,236.04,201.446Q235.857,201.693,235.663,201.93Q235.468,202.167,235.262,202.394Q235.056,202.622,234.839,202.839Q234.622,203.056,234.394,203.262Q234.167,203.468,233.93,203.663Q233.693,203.857,233.446,204.04Q233.2,204.223,232.945,204.393Q232.689,204.564,232.426,204.722Q232.163,204.879,231.892,205.024Q231.622,205.169,231.344,205.3Q231.067,205.431,230.784,205.548Q230.5,205.666,230.211,205.769Q229.922,205.873,229.629,205.962Q229.335,206.051,229.037,206.125Q228.74,206.2,228.439,206.26Q228.138,206.32,227.834,206.365Q227.531,206.41,227.225,206.44Q226.92,206.47,226.613,206.485Q226.307,206.5,226,206.5L29,206.5Q28.693142,206.5,28.386654,206.485Q28.080166,206.47,27.77479,206.44Q27.46941,206.41,27.165869999999998,206.365Q26.86233,206.32,26.56137,206.26Q26.26041,206.2,25.96275,206.125Q25.66509,206.051,25.37144,205.962Q25.0778,205.873,24.78888,205.769Q24.49996,205.666,24.216459999999998,205.548Q23.93296,205.431,23.65556,205.3Q23.37817,205.169,23.10754,205.024Q22.83692,204.879,22.57372,204.722Q22.31052,204.564,22.05537,204.393Q21.80023,204.223,21.55376,204.04Q21.307290000000002,203.857,21.07009,203.663Q20.83288,203.468,20.605510000000002,203.262Q20.378149999999998,203.056,20.16117,202.839Q19.94418,202.622,19.73811,202.394Q19.532040000000002,202.167,19.33737,201.93Q19.142699999999998,201.693,18.959899999999998,201.446Q18.7771,201.2,18.6066,200.945Q18.4362,200.689,18.278399999999998,200.426Q18.1206,200.163,17.976,199.892Q17.8313,199.622,17.7001,199.344Q17.5689,199.067,17.4515,198.784Q17.3341,198.5,17.2307,198.211Q17.127299999999998,197.922,17.0382,197.629Q16.949199999999998,197.335,16.8746,197.037Q16.8001,196.74,16.7402,196.439Q16.680300000000003,196.138,16.6353,195.834Q16.5903,195.531,16.560200000000002,195.225Q16.530099999999997,194.92,16.5151,194.613Q16.5,194.307,16.5,194ZM41.5,73.5L41.5,181.5L213.5,181.5L213.5,73.5L41.5,73.5Z" fill="#808080" fill-opacity="1"/></g></g></svg>