<svg xmlns="http://www.w3.org/2000/svg" xmlns:xlink="http://www.w3.org/1999/xlink" fill="none" version="1.1" width="512" height="512" viewBox="0 0 512 512"><defs><clipPath id="master_svg0_26_37"><rect x="0" y="0" width="512" height="512" rx="0"/></clipPath><linearGradient x1="1" y1="0" x2="0" y2="1" id="master_svg1_14_07"><stop offset="0%" stop-color="#001AFF" stop-opacity="1"/><stop offset="100.00001192092896%" stop-color="#3ECFFF" stop-opacity="1"/></linearGradient></defs><g style="mix-blend-mode:passthrough" clip-path="url(#master_svg0_26_37)"><g style="mix-blend-mode:passthrough"><path d="M397.744,416L124.8479,416Q124.3569,416,123.8665,415.976Q123.3761,415.952,122.8875,415.904Q122.3989,415.855,121.9133,415.783Q121.4276,415.711,120.9461,415.616Q120.4645,415.52,119.98830000000001,415.401Q119.512,415.281,119.04220000000001,415.139Q118.5723,414.996,118.1101,414.831Q117.64779999999999,414.665,117.1942,414.478Q116.7406,414.29,116.29679999999999,414.08Q115.8529,413.87,115.4199,413.638Q114.98689999999999,413.407,114.5658,413.155Q114.1447,412.902,113.7365,412.629Q113.32820000000001,412.357,112.9339,412.064Q112.5395,411.772,112.16,411.46Q111.7805,411.149,111.41669999999999,410.819Q111.0529,410.489,110.70570000000001,410.142Q110.3586,409.795,110.02879999999999,409.431Q109.6991,409.067,109.3877,408.688Q109.0762,408.308,108.78370000000001,407.914Q108.49119999999999,407.52,108.2185,407.111Q107.9457,406.703,107.6933,406.282Q107.4409,405.861,107.2094,405.428Q106.97800000000001,404.995,106.7681,404.551Q106.5582,404.107,106.3703,403.654Q106.1824,403.2,106.017,402.738Q105.85159999999999,402.275,105.7091,401.806Q105.56649999999999,401.336,105.44720000000001,400.86Q105.3279,400.383,105.2322,399.902Q105.13640000000001,399.42,105.0643,398.935Q104.9923,398.449,104.9442,397.96Q104.89609999999999,397.472,104.872,396.981Q104.84790000000001,396.491,104.84790000000001,396Q104.84790000000001,393.346,105.5399,390.784L163.796,175.129Q163.902,174.7346,164.025,174.345Q164.147,173.9553,164.286,173.5709Q164.424,173.1866,164.578,172.8082Q164.732,172.4299,164.901,172.0581Q165.07,171.68630000000002,165.255,171.3218Q165.439,170.9572,165.638,170.6005Q165.837,170.2438,166.05,169.8955Q166.264,169.5472,166.49099999999999,169.2079Q166.719,168.86860000000001,166.95999999999998,168.5389Q167.201,168.2092,167.45499999999998,167.8896Q167.70999999999998,167.57,167.977,167.261Q168.244,166.9521,168.524,166.6543Q168.804,166.35649999999998,169.095,166.0704Q169.387,165.7843,169.69,165.5103Q169.993,165.2363,170.30599999999998,164.9749Q170.62,164.71359999999999,170.945,164.4652Q171.269,164.2169,171.603,163.982Q171.937,163.7471,172.281,163.52609999999999Q172.624,163.305,172.977,163.0982Q173.329,162.8914,173.689,162.6991Q174.05,162.5068,174.418,162.3294Q174.786,162.152,175.16,161.9897Q175.535,161.8275,175.917,161.6807Q176.298,161.53390000000002,176.685,161.4028Q177.071,161.2717,177.463,161.1565Q177.85500000000002,161.0413,178.252,160.9422Q178.648,160.8431,179.048,160.7603Q179.44799999999998,160.6774,179.851,160.611Q180.25400000000002,160.5446,180.659,160.4946Q181.065,160.4447,181.47199999999998,160.41140000000001Q181.87900000000002,160.37810000000002,182.287,160.3614Q182.695,160.3447,183.10399999999998,160.3447L456,160.3447Q456.491,160.3447,456.981,160.3688Q457.472,160.3929,457.96,160.441Q458.449,160.4891,458.935,160.56119999999999Q459.42,160.6332,459.902,160.72899999999998Q460.383,160.8248,460.86,160.9441Q461.336,161.0634,461.806,161.20589999999999Q462.275,161.3484,462.738,161.5138Q463.2,161.6792,463.654,161.8671Q464.107,162.055,464.551,162.2649Q464.995,162.47480000000002,465.428,162.7063Q465.861,162.9377,466.282,163.1901Q466.703,163.4425,467.111,163.7153Q467.52,163.9881,467.914,164.28050000000002Q468.308,164.573,468.688,164.8845Q469.067,165.196,469.431,165.5257Q469.795,165.8554,470.142,166.2026Q470.489,166.5497,470.819,166.9135Q471.149,167.2773,471.46,167.6568Q471.772,168.03640000000001,472.064,168.4307Q472.357,168.8251,472.629,169.23329999999999Q472.902,169.6415,473.155,170.0626Q473.407,170.4838,473.638,170.9168Q473.87,171.34980000000002,474.08,171.7936Q474.29,172.2374,474.478,172.691Q474.665,173.1446,474.831,173.6069Q474.996,174.0692,475.139,174.539Q475.281,175.0088,475.401,175.4851Q475.52,175.9614,475.616,176.4429Q475.711,176.9244,475.784,177.4101Q475.856,177.8958,475.904,178.3844Q475.952,178.873,475.976,179.3633Q476,179.8537,476,180.3447Q476,182.9985,475.308,185.56040000000002L417.052,401.216Q416.946,401.61,416.823,402Q416.7,402.389,416.562,402.774Q416.424,403.158,416.27,403.536Q416.116,403.915,415.947,404.287Q415.777,404.658,415.593,405.023Q415.409,405.387,415.21,405.744Q415.011,406.101,414.797,406.449Q414.584,406.798,414.357,407.137Q414.129,407.476,413.888,407.806Q413.647,408.136,413.392,408.455Q413.138,408.775,412.871,409.084Q412.604,409.393,412.324,409.69Q412.044,409.988,411.753,410.274Q411.461,410.56,411.158,410.834Q410.855,411.108,410.541,411.37Q410.228,411.631,409.903,411.879Q409.579,412.128,409.245,412.363Q408.911,412.598,408.567,412.819Q408.223,413.04,407.871,413.246Q407.519,413.453,407.159,413.646Q406.798,413.838,406.43,414.015Q406.062,414.193,405.687,414.355Q405.313,414.517,404.931,414.664Q404.55,414.811,404.163,414.942Q403.776,415.073,403.384,415.188Q402.993,415.303,402.596,415.402Q402.2,415.502,401.8,415.584Q401.4,415.667,400.997,415.734Q400.594,415.8,400.189,415.85Q399.783,415.9,399.376,415.933Q398.969,415.967,398.561,415.983Q398.153,416,397.744,416ZM397.744,376L397.744,396L378.436,390.784L436.692,175.129L456,180.3447L456,200.3447L183.10399999999998,200.3447L183.10399999999998,180.3447L202.412,185.56040000000002L144.1558,401.216L124.8479,396L124.8479,376L397.744,376ZM387.152,136L114.2559,136L114.2559,116L133.56380000000001,121.21573L75.3079,336.871L56,331.655L56,311.655L328.896,311.655L328.896,331.655L309.58799999999997,326.44L367.844,110.78427L387.152,116L387.152,136ZM387.152,96Q389.806,96,392.368,96.6921Q392.842,96.8201,393.309,96.9713Q393.776,97.1224,394.235,97.2963Q394.694,97.4702,395.144,97.6664Q395.595,97.8626,396.034,98.0806Q396.474,98.2987,396.903,98.538Q397.332,98.7774,397.748,99.0375Q398.164,99.2976,398.568,99.5779Q398.971,99.85810000000001,399.36,100.1578Q399.749,100.4575,400.122,100.77590000000001Q400.496,101.0943,400.854,101.4306Q401.211,101.767,401.552,102.12049999999999Q401.893,102.474,402.216,102.8438Q402.539,103.2135,402.843,103.5987Q403.148,103.9839,403.433,104.3836Q403.718,104.7833,403.983,105.1964Q404.248,105.6096,404.493,106.03531Q404.738,106.46101,404.961,106.89819Q405.184,107.33537,405.386,107.783Q405.588,108.23062,405.767,108.6876Q405.947,109.14458,406.104,109.60981Q406.261,110.07505,406.394,110.54742Q406.528,111.0198,406.639,111.49817Q406.749,111.97654,406.836,112.45976Q406.923,112.94298,406.986,113.42989Q407.049,113.91679,407.088,114.4062Q407.128,114.89561,407.143,115.38635Q407.158,115.877091,407.149,116.367981Q407.14,116.85887,407.107,117.34872Q407.073,117.83858,407.016,118.32622Q406.959,118.81386,406.878,119.29811Q406.797,119.78236,406.693,120.26206Q406.588,120.74175,406.46,121.21573L348.204,336.871Q348.098,337.265,347.975,337.655Q347.853,338.04499999999996,347.714,338.429Q347.576,338.813,347.422,339.192Q347.268,339.57,347.099,339.942Q346.93,340.31399999999996,346.745,340.678Q346.561,341.043,346.362,341.399Q346.163,341.756,345.949,342.10400000000004Q345.736,342.453,345.509,342.79200000000003Q345.281,343.131,345.04,343.461Q344.799,343.791,344.544,344.11Q344.29,344.43,344.023,344.73900000000003Q343.756,345.048,343.476,345.346Q343.196,345.64300000000003,342.905,345.93Q342.613,346.216,342.31,346.49Q342.007,346.764,341.693,347.025Q341.38,347.286,341.055,347.53499999999997Q340.731,347.783,340.397,348.01800000000003Q340.063,348.253,339.719,348.474Q339.376,348.695,339.023,348.902Q338.671,349.10900000000004,338.311,349.301Q337.95,349.493,337.582,349.671Q337.214,349.848,336.84,350.01Q336.465,350.172,336.083,350.31899999999996Q335.702,350.466,335.315,350.597Q334.929,350.728,334.537,350.84299999999996Q334.145,350.959,333.748,351.058Q333.352,351.15700000000004,332.952,351.24Q332.552,351.323,332.149,351.389Q331.746,351.45500000000004,331.341,351.505Q330.935,351.555,330.528,351.589Q330.121,351.622,329.713,351.639Q329.305,351.655,328.896,351.655L56.000000476837,351.655Q53.34622,351.655,50.78427,350.96299999999997Q50.31028,350.83500000000004,49.84315,350.68399999999997Q49.37603,350.533,48.91687,350.35900000000004Q48.45772,350.185,48.00766,349.98900000000003Q47.55759,349.793,47.1177,349.575Q46.6778,349.35699999999997,46.24913,349.11699999999996Q45.820499999999996,348.878,45.4041,348.618Q44.987700000000004,348.358,44.5845,348.077Q44.1814,347.797,43.792500000000004,347.498Q43.4036,347.198,43.0298,346.879Q42.6561,346.56100000000004,42.2984,346.225Q41.940799999999996,345.88800000000003,41.6001,345.53499999999997Q41.259299999999996,345.18100000000004,40.9364,344.812Q40.6134,344.442,40.309,344.057Q40.0045,343.671,39.7194,343.272Q39.434200000000004,342.872,39.169,342.459Q38.903800000000004,342.046,38.6592,341.62Q38.414500000000004,341.19399999999996,38.1911,340.757Q37.9677,340.32,37.7659,339.872Q37.5642,339.425,37.384699999999995,338.96799999999996Q37.205200000000005,338.51099999999997,37.0483,338.04499999999996Q36.8915,337.58000000000004,36.7576,337.108Q36.6238,336.635,36.5132,336.15700000000004Q36.402699999999996,335.679,36.315799999999996,335.195Q36.228899999999996,334.712,36.165800000000004,334.225Q36.1027,333.738,36.0636,333.249Q36.0245,332.76,36.0094,332.269Q35.9944,331.778,36.0034,331.28700000000003Q36.0124,330.796,36.045500000000004,330.307Q36.0786,329.817,36.1357,329.329Q36.1928,328.841,36.2738,328.35699999999997Q36.3548,327.873,36.4594,327.39300000000003Q36.564,326.914,36.692099999999996,326.44L94.94800000000001,110.78427Q95.05449999999999,110.38992,95.17699999999999,110.00025Q95.2996,109.61058,95.4379,109.22624Q95.5763,108.84191,95.7302,108.46353Q95.88409999999999,108.08516,96.05340000000001,107.71339Q96.2226,107.34163,96.40690000000001,106.97707Q96.5912,106.61252999999999,96.7902,106.2558Q96.9892,105.8991,97.20259999999999,105.5508Q97.416,105.2025,97.6435,104.8632Q97.87100000000001,104.5239,98.1121,104.1942Q98.3532,103.86449999999999,98.60759999999999,103.5449Q98.862,103.2253,99.1292,102.9163Q99.3964,102.6074,99.676,102.3096Q99.9556,102.0118,100.24719999999999,101.7257Q100.5387,101.4396,100.8417,101.1656Q101.1447,100.8916,101.45859999999999,100.6302Q101.77250000000001,100.3689,102.0968,100.12049999999999Q102.4211,99.87219999999999,102.7553,99.6373Q103.0895,99.4024,103.43299999999999,99.1814Q103.7765,98.9603,104.1288,98.7535Q104.481,98.5467,104.8414,98.3544Q105.20179999999999,98.1621,105.5698,97.9847Q105.9377,97.8073,106.3126,97.645Q106.6875,97.4828,107.0687,97.336Q107.4499,97.1892,107.83670000000001,97.0581Q108.2236,96.92699999999999,108.6155,96.8118Q109.00739999999999,96.6966,109.4037,96.5975Q109.8,96.4984,110.2,96.4156Q110.6,96.3327,111.003,96.2663Q111.406,96.1999,111.8115,96.1499Q112.21690000000001,96.1,112.624,96.0667Q113.03110000000001,96.0334,113.4393,96.0167Q113.8474,96,114.2559,96L387.152,96Z" fill="url(#master_svg1_14_07)" fill-opacity="1"/></g></g></svg>