<svg xmlns="http://www.w3.org/2000/svg" xmlns:xlink="http://www.w3.org/1999/xlink" fill="none" version="1.1" width="1024" height="1024" viewBox="0 0 1024 1024"><defs><clipPath id="master_svg0_14_4"><rect x="0" y="0" width="1024" height="1024" rx="160"/></clipPath><filter id="master_svg1_14_05" filterUnits="objectBoundingBox" color-interpolation-filters="sRGB" x="-20" y="-16" width="829" height="592"><feFlood flood-opacity="0" result="BackgroundImageFix"/><feColorMatrix in="SourceAlpha" type="matrix" values="0 0 0 0 0 0 0 0 0 0 0 0 0 0 0 0 0 0 127 0"/><feOffset dy="4" dx="0"/><feGaussianBlur stdDeviation="5"/><feColorMatrix type="matrix" values="0 0 0 0 0 0 0 0 0 0 0 0 0 0 0 0 0 0 0.3019607961177826 0"/><feBlend mode="normal" in2="BackgroundImageFix" result="effect1_dropShadow"/><feBlend mode="normal" in="SourceGraphic" in2="effect1_dropShadow" result="shape"/></filter><linearGradient x1="1" y1="0" x2="0" y2="1" id="master_svg2_14_07"><stop offset="0%" stop-color="#001AFF" stop-opacity="1"/><stop offset="100.00001192092896%" stop-color="#3ECFFF" stop-opacity="1"/></linearGradient><linearGradient x1="1" y1="0" x2="0" y2="1" id="master_svg3_14_1535"><stop offset="0%" stop-color="#0D40FF" stop-opacity="1"/><stop offset="97.85714149475098%" stop-color="#30A6FF" stop-opacity="1"/></linearGradient></defs><g style="mix-blend-mode:passthrough" clip-path="url(#master_svg0_14_4)"><rect x="0" y="0" width="1024" height="1024" rx="160" fill="#FFFFFF" fill-opacity="1"/><g style="mix-blend-mode:passthrough"><g style="mix-blend-mode:passthrough" filter="url(#master_svg1_14_05)"><path d="M735.912,322.851L906,322.851Q906.982,322.851,907.963,322.8992Q908.943,322.9473,909.921,323.04359999999997Q910.898,323.1399,911.869,323.2839Q912.84,323.428,913.803,323.6196Q914.767,323.8111,915.719,324.04970000000003Q916.672,324.2883,917.611,324.5734Q918.551,324.8584,919.475,325.1892Q920.4,325.52,921.307,325.8958Q922.214,326.27160000000003,923.102,326.6914Q923.99,327.1112,924.856,327.5741Q925.722,328.03700000000003,926.564,328.54179999999997Q927.406,329.0467,928.223,329.5922Q929.039,330.1377,929.828,330.72270000000003Q930.617,331.3076,931.376,331.9306Q932.135,332.5535,932.862,333.2129Q933.59,333.87239999999997,934.284,334.56669999999997Q934.979,335.26099999999997,935.638,335.9886Q936.297,336.716,936.92,337.475Q937.543,338.234,938.128,339.023Q938.713,339.812,939.259,340.628Q939.804,341.445,940.309,342.28700000000003Q940.814,343.129,941.277,343.995Q941.74,344.861,942.159,345.749Q942.579,346.63599999999997,942.955,347.544Q943.331,348.451,943.662,349.375Q943.993,350.3,944.278,351.24Q944.563,352.179,944.801,353.132Q945.04,354.084,945.231,355.047Q945.423,356.01,945.567,356.98199999999997Q945.711,357.953,945.807,358.93Q945.904,359.908,945.952,360.88800000000003Q946,361.869,946,362.851Q946,365.495,945.652,368.115Q945.304,370.736,944.614,373.288L829.705,798.437Q829.492,799.225,829.246,800.005Q829.001,800.784,828.725,801.552Q828.448,802.321,828.14,803.078Q827.832,803.834,827.493,804.578Q827.155,805.321,826.786,806.05Q826.418,806.779,826.02,807.492Q825.622,808.206,825.195,808.902Q824.768,809.599,824.313,810.277Q823.858,810.955,823.376,811.615Q822.893,812.274,822.385,812.913Q821.876,813.552,821.341,814.17Q820.807,814.788,820.248,815.383Q819.689,815.979,819.105,816.551Q818.522,817.123,817.917,817.671Q817.31,818.219,816.683,818.741Q816.055,819.264,815.406,819.761Q814.758,820.257,814.089,820.727Q813.421,821.197,812.734,821.639Q812.047,822.081,811.343,822.494Q810.638,822.908,809.917,823.292Q809.197,823.677,808.461,824.031Q807.725,824.386,806.975,824.711Q806.226,825.035,805.463,825.329Q804.701,825.622,803.927,825.884Q803.154,826.146,802.37,826.377Q801.586,826.607,800.794,826.805Q800.001,827.003,799.201,827.169Q798.401,827.335,797.595,827.468Q796.789,827.6,795.979,827.7Q795.168,827.8,794.354,827.867Q793.54,827.933,792.723,827.967Q791.907,828,791.09,828L252.802,828Q251.82,828,250.84,827.952Q249.859,827.904,248.882,827.807Q247.905,827.711,246.933,827.567Q245.962,827.423,244.999,827.231Q244.036,827.04,243.083,826.801Q242.131,826.563,241.191,826.278Q240.251,825.992,239.327,825.662Q238.402,825.331,237.495,824.955Q236.588,824.579,235.7,824.159Q234.813,823.74,233.947,823.277Q233.08100000000002,822.814,232.238,822.309Q231.39600000000002,821.804,230.57999999999998,821.259Q229.763,820.713,228.974,820.128Q228.186,819.543,227.42700000000002,818.92Q226.668,818.297,225.94,817.638Q225.212,816.979,224.518,816.284Q223.824,815.59,223.164,814.862Q222.505,814.135,221.882,813.376Q221.25900000000001,812.617,220.674,811.828Q220.089,811.039,219.54399999999998,810.223Q218.998,809.406,218.493,808.564Q217.988,807.722,217.526,806.856Q217.063,805.99,216.6428,805.102Q216.223,804.214,215.8472,803.307Q215.4715,802.4,215.14069999999998,801.476Q214.8099,800.551,214.5248,799.611Q214.2398,798.672,214.00119999999998,797.719Q213.76260000000002,796.767,213.571,795.804Q213.3794,794.84,213.2354,793.869Q213.0913,792.898,212.995,791.921Q212.8988,790.943,212.8506,789.963Q212.8024,788.982,212.8024,788Q212.8024,785.356,213.15030000000002,782.736Q213.4982,780.115,214.188,777.563L248.473,650.712L329.098,352.414Q329.31100000000004,351.626,329.55600000000004,350.846Q329.801,350.067,330.078,349.299Q330.355,348.53,330.663,347.773Q330.971,347.017,331.30899999999997,346.273Q331.648,345.53,332.01599999999996,344.801Q332.385,344.072,332.783,343.359Q333.18100000000004,342.645,333.608,341.949Q334.03499999999997,341.252,334.49,340.574Q334.945,339.896,335.427,339.236Q335.909,338.577,336.418,337.938Q336.927,337.299,337.461,336.681Q337.996,336.063,338.555,335.4677Q339.11400000000003,334.8722,339.697,334.3001Q340.28,333.7279,340.88599999999997,333.1801Q341.49199999999996,332.6323,342.12,332.1096Q342.748,331.587,343.39599999999996,331.0904Q344.04499999999996,330.5938,344.71299999999997,330.1241Q345.382,329.6545,346.068,329.2125Q346.755,328.7704,347.46000000000004,328.3569Q348.164,327.9433,348.885,327.5588Q349.606,327.1743,350.342,326.8196Q351.077,326.46479999999997,351.827,326.1404Q352.577,325.81600000000003,353.339,325.5225Q354.101,325.229,354.875,324.96680000000003Q355.649,324.7047,356.433,324.47429999999997Q357.216,324.2439,358.009,324.0458Q358.801,323.8476,359.601,323.682Q360.401,323.5163,361.207,323.3835Q362.01300000000003,323.2506,362.824,323.1508Q363.635,323.051,364.449,322.9843Q365.26300000000003,322.91769999999997,366.079,322.8843Q366.895,322.851,367.712,322.851L735.912,322.851ZM735.912,402.851L367.712,402.851L367.712,362.851L406.327,373.288L325.702,671.586L291.41700000000003,798.437L252.802,788L252.802,748L791.09,748L791.09,788L752.476,777.563L867.386,352.414L906,362.851L906,402.851L735.912,402.851ZM770.198,276L231.91,276L231.91,236L270.524,246.4368L155.6144,671.586L117,661.149L117,621.149L655.288,621.149L655.288,661.149L616.673,650.712L731.583,225.5632L770.198,236L770.198,276ZM770.198,196Q772.841,196,775.462,196.3479Q778.082,196.6958,780.634,197.3856Q781.582,197.6418,782.516,197.9442Q783.451,198.2466,784.369,198.59449999999998Q785.287,198.9424,786.187,199.3349Q787.087,199.7274,787.967,200.1637Q788.847,200.5999,789.704,201.0787Q790.561,201.5576,791.394,202.0779Q792.227,202.5983,793.033,203.15890000000002Q793.839,203.7194,794.617,204.31889999999999Q795.395,204.9184,796.142,205.5553Q796.889,206.1922,797.605,206.865Q798.32,207.5378,799.001,208.2449Q799.682,208.952,800.328,209.6916Q800.974,210.4313,801.583,211.2018Q802.192,211.9722,802.762,212.7716Q803.332,213.5711,803.863,214.3975Q804.393,215.22390000000001,804.882,216.0754Q805.371,216.92680000000001,805.818,217.8013Q806.265,218.6757,806.668,219.571Q807.071,220.4663,807.43,221.3803Q807.789,222.2943,808.103,223.2248Q808.416,224.1553,808.684,225.1001Q808.951,226.0449,809.172,227.00168Q809.393,227.95845,809.567,228.92492Q809.741,229.89138,809.867,230.8652Q809.993,231.83902,810.071,232.81785Q810.149,233.79668,810.179,234.77817Q810.209,235.759658,810.191,236.741434Q810.173,237.72321,810.106,238.70291Q810.04,239.68261,809.925,240.65788Q809.811,241.63314,809.649,242.60162Q809.487,243.5701,809.278,244.52946Q809.068,245.48882,808.812,246.4368L693.902,671.586Q693.689,672.374,693.444,673.154Q693.199,673.933,692.922,674.701Q692.645,675.47,692.337,676.227Q692.029,676.983,691.691,677.727Q691.352,678.47,690.984,679.1990000000001Q690.615,679.928,690.217,680.6410000000001Q689.819,681.355,689.392,682.0509999999999Q688.965,682.748,688.51,683.4259999999999Q688.055,684.104,687.573,684.764Q687.091,685.423,686.582,686.062Q686.073,686.701,685.539,687.319Q685.004,687.937,684.445,688.5319999999999Q683.886,689.1279999999999,683.303,689.7Q682.72,690.2719999999999,682.114,690.8199999999999Q681.508,691.3679999999999,680.88,691.89Q680.252,692.413,679.604,692.9100000000001Q678.955,693.406,678.287,693.876Q677.619,694.346,676.932,694.788Q676.245,695.23,675.54,695.643Q674.836,696.057,674.115,696.441Q673.394,696.826,672.658,697.1800000000001Q671.923,697.5350000000001,671.173,697.86Q670.423,698.184,669.661,698.4780000000001Q668.898,698.771,668.125,699.033Q667.351,699.2950000000001,666.567,699.5260000000001Q665.784,699.756,664.991,699.954Q664.199,700.152,663.399,700.318Q662.599,700.4839999999999,661.793,700.616Q660.987,700.749,660.176,700.8489999999999Q659.365,700.9490000000001,658.551,701.0160000000001Q657.737,701.082,656.921,701.116Q656.105,701.149,655.288,701.149L116.999999046326,701.149Q114.35642,701.149,111.73584,700.8009999999999Q109.11525,700.453,106.5632,699.7629999999999Q105.6153,699.5070000000001,104.6811,699.2049999999999Q103.7469,698.902,102.8286,698.554Q101.9104,698.207,101.0103,697.8140000000001Q100.11019999999999,697.422,99.2305,696.985Q98.35079999999999,696.549,97.4935,696.0699999999999Q96.6362,695.591,95.8035,695.071Q94.9707,694.5509999999999,94.1645,693.99Q93.3583,693.4300000000001,92.5806,692.8299999999999Q91.8029,692.231,91.0555,691.594Q90.3081,690.957,89.5929,690.284Q88.8777,689.611,88.19630000000001,688.904Q87.515,688.197,86.8691,687.457Q86.2233,686.7180000000001,85.61449999999999,685.947Q85.0058,685.177,84.43549999999999,684.377Q83.86529999999999,683.578,83.33500000000001,682.751Q82.8047,681.925,82.3156,681.0740000000001Q81.82650000000001,680.222,81.3797,679.348Q80.93289999999999,678.473,80.5296,677.578Q80.1263,676.683,79.76740000000001,675.769Q79.4085,674.855,79.0949,673.924Q78.7813,672.994,78.5137,672.049Q78.2462,671.104,78.0253,670.1469999999999Q77.8044,669.19,77.63069999999999,668.2239999999999Q77.457,667.258,77.331,666.284Q77.20490000000001,665.31,77.1268,664.331Q77.0487,663.352,77.0187,662.371Q76.9887,661.389,77.0069,660.4069999999999Q77.02510000000001,659.4259999999999,77.0914,658.446Q77.15780000000001,657.466,77.2721,656.491Q77.3865,655.5160000000001,77.54849999999999,654.547Q77.7106,653.579,77.92,652.62Q78.1294,651.6600000000001,78.3856,650.712L193.2953,225.5632Q193.5084,224.7747,193.7536,223.9954Q193.99880000000002,223.21620000000001,194.2755,222.4477Q194.5523,221.6791,194.86020000000002,220.9225Q195.16809999999998,220.1658,195.5067,219.4224Q195.8452,218.679,196.2138,217.95Q196.5824,217.221,196.9805,216.5077Q197.3786,215.7944,197.80540000000002,215.0979Q198.2323,214.4014,198.68720000000002,213.723Q199.1422,213.0445,199.62439999999998,212.3852Q200.1067,211.7259,200.6155,211.0868Q201.1243,210.4477,201.6587,209.8299Q202.1932,209.2121,202.7524,208.6167Q203.3116,208.0212,203.8947,207.4491Q204.4777,206.877,205.0837,206.3291Q205.68959999999998,205.7813,206.31740000000002,205.2586Q206.9452,204.736,207.5938,204.2394Q208.2424,203.7428,208.9108,203.2731Q209.57909999999998,202.80349999999999,210.2661,202.3615Q210.953,201.9194,211.6575,201.5059Q212.3619,201.0923,213.0826,200.7078Q213.8034,200.32330000000002,214.5392,199.9686Q215.275,199.6138,216.0247,199.2894Q216.7745,198.965,217.537,198.6715Q218.299,198.378,219.07299999999998,198.1158Q219.846,197.8537,220.63,197.6233Q221.414,197.393,222.20600000000002,197.1948Q222.999,196.9966,223.799,196.83100000000002Q224.599,196.6653,225.405,196.5325Q226.211,196.3996,227.02100000000002,196.2998Q227.832,196.2,228.64600000000002,196.1333Q229.45999999999998,196.0667,230.277,196.0334Q231.09300000000002,196,231.91,196L770.198,196Z" fill="url(#master_svg2_14_07)" fill-opacity="1"/></g><g style="mix-blend-mode:passthrough"><path d="M287.0733337402344,661.345607421875L655.2733337402344,661.345607421875L735.8973337402344,363.047607421875L367.6976337402344,363.047620791475L287.0733337402344,661.345607421875Z" fill="url(#master_svg3_14_1535)" fill-opacity="1"/></g></g></g></svg>