<svg xmlns="http://www.w3.org/2000/svg" xmlns:xlink="http://www.w3.org/1999/xlink" fill="none" version="1.1" width="512" height="512" viewBox="0 0 512 512"><defs><clipPath id="master_svg0_26_84"><rect x="0" y="0" width="512" height="512" rx="0"/></clipPath><linearGradient x1="1" y1="0" x2="0" y2="1" id="master_svg1_26_66"><stop offset="0%" stop-color="#FF140A" stop-opacity="1"/><stop offset="100.00005960464478%" stop-color="#FFA27B" stop-opacity="1"/></linearGradient></defs><g style="mix-blend-mode:passthrough" clip-path="url(#master_svg0_26_84)"><g style="mix-blend-mode:passthrough"><path d="M399.146,331.836L294.64599999999996,146.836L312.06,137L330.507,144.728L253.007,329.728Q252.817,330.18,252.606,330.623Q252.394,331.066,252.161,331.499Q251.928,331.931,251.673,332.351Q251.419,332.771,251.145,333.178Q250.871,333.585,250.576,333.978Q250.282,334.371,249.969,334.75Q249.656,335.128,249.325,335.49Q248.994,335.853,248.646,336.199Q248.297,336.544,247.932,336.873Q247.567,337.201,247.186,337.511Q246.805,337.821,246.41,338.112Q246.014,338.403,245.605,338.674Q245.196,338.945,244.773,339.196Q244.351,339.446,243.917,339.676Q243.483,339.906,243.039,340.114Q242.594,340.322,242.14,340.508Q241.685,340.694,241.222,340.858Q240.76,341.021,240.289,341.162Q239.819,341.303,239.342,341.42Q238.865,341.537,238.383,341.631Q237.901,341.725,237.415,341.795Q236.93,341.865,236.441,341.911Q235.952,341.958,235.461,341.98Q234.971,342.002,234.48,342Q233.989,341.998,233.499,341.972Q233.008,341.946,232.52,341.896Q232.032,341.846,231.546,341.772Q231.061,341.698,230.58,341.6Q230.099,341.502,229.623,341.381Q229.147,341.26,228.678,341.115Q228.209,340.971,227.747,340.804Q227.285,340.636,226.833,340.447Q226.027,340.109,225.254,339.703Q224.48,339.296,223.746,338.824Q223.011,338.352,222.32,337.817Q221.62900000000002,337.282,220.988,336.689Q220.346,336.097,219.75799999999998,335.45Q219.171,334.804,218.642,334.108Q218.113,333.413,217.647,332.674Q217.18099999999998,331.936,216.781,331.159L157.2808,215.659L175.0602,206.5L191.4975,217.894L111.4373,333.394Q111.1576,333.797,110.85849999999999,334.187Q110.55930000000001,334.576,110.2414,334.95Q109.9235,335.324,109.5876,335.682Q109.2517,336.04,108.8987,336.382Q108.54560000000001,336.723,108.1763,337.046Q107.8069,337.37,107.4221,337.675Q107.0373,337.979,106.6381,338.265Q106.2388,338.551,105.8259,338.817Q105.4131,339.082,104.98775,339.328Q104.56238,339.573,104.12549,339.797Q103.6886,340.021,103.24125000000001,340.223Q102.7939,340.425,102.33716,340.606Q101.88042,340.786,101.41539,340.943Q100.95036,341.101,100.47816,341.235Q100.00597,341.37,99.52774,341.481Q99.04952,341.592,98.56641,341.679Q98.08331,341.767,97.59649,341.831Q97.10967,341.894,96.62032,341.934Q96.13096,341.974,95.640236,341.99Q95.149515,342.005,94.658614,341.997Q94.167713,341.989,93.67781,341.956Q93.18792,341.924,92.7002,341.867Q92.21249,341.811,91.72813,341.73Q91.24377,341.65,90.76394,341.546Q90.2841,341.442,89.80995,341.315Q89.3358,341.187,88.86847,341.037Q88.40114,340.886,87.94176,340.713Q87.48238,340.54,87.03205,340.344Q86.58173,340.149,86.14154,339.931Q85.70135,339.714,85.27237,339.475Q84.8434,339.236,84.42660000000001,338.977Q84.0099,338.717,83.60640000000001,338.437Q83.2029,338.158,82.8136,337.858Q82.4243,337.559,82.0501,337.241Q81.6759,336.923,81.3178,336.588Q80.9597,336.252,80.6185,335.899Q80.2774,335.546,79.9539,335.176Q79.6304,334.807,79.3255,334.422Q79.0205,334.037,78.7349,333.638Q78.4492,333.239,78.1834,332.826Q77.9176,332.413,77.6725,331.988Q77.4273,331.562,77.2033,331.125Q76.97919999999999,330.689,76.7769,330.241Q76.5746,329.794,76.3945,329.337Q76.2144,328.88,76.0569,328.415Q75.8994,327.95,75.7649,327.478Q75.63040000000001,327.006,75.5193,326.528Q75.4082,326.049,75.3206,325.566Q75.23310000000001,325.083,75.16929999999999,324.596Q75.1056,324.11,75.0658,323.62Q75.026,323.131,75.0103,322.64Q74.99459999999999,322.149,75.003,321.659Q75.0114,321.168,75.0438,320.678Q75.0763,320.188,75.1327,319.7Q75.1892,319.212,75.2695,318.728Q75.3498,318.244,75.4538,317.764Q75.5578,317.284,75.6852,316.81Q75.8126,316.336,75.9632,315.868Q76.1137,315.401,76.287,314.942Q76.4602,314.482,76.6558,314.032Q76.8514,313.582,77.0689,313.141Q77.2864,312.701,77.5252,312.272Q77.764,311.843,78.0235,311.427Q78.2831,311.01,78.5628,310.606L158.623,195.106Q159.3202,194.1,160.135,193.187Q160.9497,192.274,161.8698,191.466Q162.7898,190.659,163.8014,189.97Q164.813,189.281,165.90109999999999,188.721Q166.3376,188.496,166.78449999999998,188.292Q167.23149999999998,188.089,167.6879,187.908Q168.1443,187.727,168.60899999999998,187.569Q169.0738,187.411,169.5457,187.275Q170.01760000000002,187.14,170.4956,187.028Q170.9737,186.916,171.45659999999998,186.827Q171.9395,186.739,172.4262,186.674Q172.91289999999998,186.609,173.4022,186.569Q173.8915,186.528,174.3822,186.511Q174.87290000000002,186.495,175.3638,186.502Q175.85469999999998,186.51,176.3447,186.541Q176.8346,186.573,177.32240000000002,186.628Q177.81029999999998,186.684,178.2948,186.763Q178.7793,186.843,179.2593,186.946Q179.73930000000001,187.049,180.21370000000002,187.175Q180.68810000000002,187.302,181.1558,187.452Q181.6234,187.601,182.0831,187.774Q182.5428,187.946,182.99349999999998,188.141Q183.4442,188.335,183.88479999999998,188.552Q184.3254,188.769,184.7548,189.007Q185.1842,189.245,185.6015,189.503Q186.0187,189.762,186.4228,190.041Q186.8268,190.32,187.2167,190.619Q187.60649999999998,190.917,187.9813,191.234Q188.356,191.551,188.7148,191.887Q189.0735,192.222,189.4154,192.574Q189.7573,192.927,190.0814,193.295Q190.4056,193.664,190.71120000000002,194.048Q191.01690000000002,194.432,191.3034,194.831Q191.5898,195.23,191.8564,195.642Q192.12290000000002,196.055,192.3689,196.479Q192.6149,196.904,192.8397,197.341L252.34,312.841L234.56,322L216.113,314.272L293.613,129.2723Q293.932,128.5111,294.313,127.7787Q294.693,127.0463,295.13300000000004,126.3477Q295.573,125.6492,296.068,124.9893Q296.56399999999996,124.3293,297.11199999999997,123.7124Q297.661,123.0956,298.25800000000004,122.526Q298.855,121.9564,299.497,121.438Q300.14,120.9195,300.822,120.4558Q301.505,119.992,302.224,119.5861Q302.651,119.3446,303.09000000000003,119.1244Q303.529,118.9042,303.978,118.7058Q304.427,118.5074,304.885,118.3313Q305.344,118.1551,305.81,118.0017Q306.276,117.8483,306.75,117.7179Q307.223,117.5875,307.702,117.4806Q308.18100000000004,117.3736,308.66499999999996,117.2902Q309.149,117.2069,309.63599999999997,117.1474Q310.124,117.0879,310.61400000000003,117.0524Q311.103,117.0169,311.594,117.0054Q312.08500000000004,116.994,312.576,117.0066Q313.067,117.0193,313.55600000000004,117.056Q314.046,117.0927,314.533,117.1534Q315.02,117.2141,315.504,117.2987Q315.98699999999997,117.3832,316.466,117.4914Q316.945,117.5995,317.418,117.7311Q317.89099999999996,117.8626,318.35699999999997,118.0172Q318.823,118.1718,319.281,118.349Q319.73900000000003,118.5263,320.188,118.7258Q320.63599999999997,118.9253,321.074,119.1466Q321.51300000000003,119.3679,321.94,119.6104Q322.36699999999996,119.8529,322.781,120.1161Q323.195,120.3793,323.597,120.6625Q323.998,120.9457,324.384,121.2483Q324.77099999999996,121.5508,325.142,121.8719Q325.514,122.1931,325.869,122.5321Q326.224,122.8711,326.562,123.2271Q326.9,123.5831,327.22,123.9552Q327.541,124.3274,327.842,124.7148Q328.144,125.1023,328.426,125.504Q328.70799999999997,125.9058,328.97,126.3209Q329.233,126.736,329.474,127.1635L433.974,312.164Q434.216,312.591,434.436,313.03Q434.656,313.469,434.854,313.918Q435.053,314.367,435.229,314.825Q435.405,315.283,435.559,315.75Q435.712,316.216,435.842,316.69Q435.973,317.163,436.08,317.642Q436.187,318.121,436.27,318.605Q436.353,319.089,436.413,319.576Q436.472,320.064,436.508,320.553Q436.543,321.043,436.555,321.534Q436.566,322.025,436.554,322.515Q436.541,323.006,436.504,323.496Q436.467,323.985,436.407,324.473Q436.346,324.96,436.262,325.444Q436.177,325.927,436.069,326.406Q435.961,326.885,435.829,327.358Q435.698,327.831,435.543,328.297Q435.388,328.763,435.211,329.221Q435.034,329.679,434.834,330.127Q434.635,330.576,434.414,331.014Q434.192,331.452,433.95,331.879Q433.707,332.306,433.444,332.721Q433.181,333.135,432.898,333.536Q432.615,333.937,432.312,334.324Q432.009,334.711,431.688,335.082Q431.367,335.453,431.028,335.809Q430.689,336.164,430.333,336.502Q429.977,336.84,429.605,337.16Q429.233,337.48,428.845,337.782Q428.458,338.084,428.056,338.366Q427.654,338.648,427.239,338.91Q426.824,339.172,426.397,339.414Q425.969,339.655,425.53,339.876Q425.092,340.096,424.642,340.294Q424.193,340.493,423.735,340.669Q423.277,340.845,422.81,340.998Q422.344,341.152,421.871,341.282Q421.397,341.412,420.918,341.519Q420.439,341.626,419.955,341.71Q419.471,341.793,418.984,341.853Q418.497,341.912,418.007,341.948Q417.517,341.983,417.026,341.995Q416.536,342.006,416.045,341.993Q415.554,341.981,415.064,341.944Q414.575,341.907,414.088,341.847Q413.6,341.786,413.117,341.701Q412.633,341.617,412.154,341.509Q411.675,341.4,411.202,341.269Q410.729,341.137,410.263,340.983Q409.797,340.828,409.339,340.651Q408.881,340.474,408.433,340.274Q407.984,340.075,407.546,339.853Q407.108,339.632,406.681,339.389Q406.254,339.147,405.839,338.884Q405.425,338.621,405.024,338.337Q404.623,338.054,404.236,337.752Q403.849,337.449,403.478,337.128Q403.107,336.807,402.752,336.468Q402.396,336.129,402.058,335.773Q401.72,335.417,401.4,335.045Q401.08,334.673,400.778,334.285Q400.477,333.898,400.194,333.496Q399.912,333.094,399.65,332.679Q399.388,332.264,399.146,331.836ZM396.56,322L396.56,40L416.56,40L416.56,60L95,60L95,40L115,39.99999567127L115.0001,322L115.0001,472L95.0000610352,472L95.0000610352,452L416.56,452L416.56,472L396.56,472L396.56,322ZM436.56,322L436.56,472Q436.56,472.491,436.536,472.981Q436.512,473.472,436.464,473.96Q436.416,474.449,436.344,474.935Q436.272,475.42,436.176,475.902Q436.08,476.383,435.961,476.86Q435.842,477.336,435.699,477.806Q435.557,478.275,435.391,478.738Q435.226,479.2,435.038,479.654Q434.85,480.107,434.64,480.551Q434.43,480.995,434.199,481.428Q433.967,481.861,433.715,482.282Q433.462,482.703,433.19,483.111Q432.917,483.52,432.624,483.914Q432.332,484.308,432.02,484.688Q431.709,485.067,431.379,485.431Q431.05,485.795,430.702,486.142Q430.355,486.489,429.991,486.819Q429.628,487.149,429.248,487.46Q428.869,487.772,428.474,488.064Q428.08,488.357,427.672,488.629Q427.263,488.902,426.842,489.155Q426.421,489.407,425.988,489.638Q425.555,489.87,425.111,490.08Q424.668,490.29,424.214,490.478Q423.76,490.665,423.298,490.831Q422.836,490.996,422.366,491.139Q421.896,491.281,421.42,491.401Q420.944,491.52,420.462,491.616Q419.98,491.711,419.495,491.784Q419.009,491.856,418.521,491.904Q418.032,491.952,417.542,491.976Q417.051,492,416.56,492L95.0000610352,492Q94.509089,492,94.018708,491.976Q93.52833,491.952,93.03972,491.904Q92.55111,491.856,92.06545,491.784Q91.57979,491.711,91.09826,491.616Q90.61672,491.52,90.14046,491.401Q89.6642,491.281,89.19437,491.139Q88.72454,490.996,88.26227,490.831Q87.79999,490.665,87.34639,490.478Q86.89279,490.29,86.44896,490.08Q86.00513,489.87,85.57213,489.638Q85.13913,489.407,84.718,489.155Q84.2969,488.902,83.8887,488.629Q83.4804,488.357,83.0861,488.064Q82.6917,487.772,82.3122,487.46Q81.9327,487.149,81.5689,486.819Q81.2051,486.489,80.8579,486.142Q80.5108,485.795,80.181,485.431Q79.8513,485.067,79.5399,484.688Q79.2284,484.308,78.9359,483.914Q78.6434,483.52,78.3707,483.111Q78.0979,482.703,77.8455,482.282Q77.59309999999999,481.861,77.3616,481.428Q77.1302,480.995,76.9203,480.551Q76.71039999999999,480.107,76.52250000000001,479.654Q76.3346,479.2,76.1692,478.738Q76.0038,478.275,75.8613,477.806Q75.7187,477.336,75.5994,476.86Q75.4801,476.383,75.3844,475.902Q75.2886,475.42,75.2165,474.935Q75.1445,474.449,75.0964,473.96Q75.04820000000001,473.472,75.02420000000001,472.981Q75.0001,472.491,75.0001,472L75.0001,322L75,40Q75,39.509028,75.0241,39.018647Q75.04820000000001,38.52827,75.0963,38.03966Q75.1444,37.551050000000004,75.2165,37.06539Q75.2885,36.57973,75.3843,36.09819Q75.4801,35.61666,75.5994,35.1404Q75.7187,34.66414,75.8612,34.19431Q76.0037,33.72448,76.1691,33.2622Q76.33449999999999,32.79993,76.5224,32.34633Q76.7103,31.89273,76.9202,31.448900000000002Q77.1301,31.00507,77.3616,30.57207Q77.593,30.13907,77.8454,29.7179Q78.0978,29.296799999999998,78.3706,28.8886Q78.6434,28.4804,78.9359,28.086Q79.2283,27.6917,79.5398,27.3121Q79.8513,26.9326,80.181,26.5688Q80.5107,26.205,80.8579,25.8579Q81.205,25.5107,81.5688,25.180999999999997Q81.93260000000001,24.851300000000002,82.3121,24.5398Q82.6917,24.2283,83.086,23.9359Q83.4804,23.6434,83.8886,23.3706Q84.2968,23.0978,84.7179,22.8454Q85.13907,22.593,85.57207,22.3616Q86.00507,22.1301,86.4489,21.9202Q86.89273,21.7103,87.34633,21.5224Q87.79993,21.3345,88.2622,21.1691Q88.72448,21.0037,89.19431,20.8612Q89.66414,20.7187,90.1404,20.5994Q90.61666,20.4801,91.09819,20.3843Q91.57973,20.2885,92.06539,20.2165Q92.55105,20.1444,93.03966,20.0963Q93.52827,20.0482,94.018647,20.0241Q94.509028,20,95,20L416.56,20Q417.051,20,417.542,20.0241Q418.032,20.0482,418.521,20.0963Q419.009,20.1444,419.495,20.2165Q419.98,20.2885,420.462,20.3843Q420.944,20.4801,421.42,20.5994Q421.896,20.7187,422.366,20.8612Q422.836,21.0037,423.298,21.1691Q423.76,21.3345,424.214,21.5224Q424.668,21.7103,425.111,21.9202Q425.555,22.1301,425.988,22.3616Q426.421,22.593,426.842,22.8454Q427.263,23.0978,427.672,23.3706Q428.08,23.6434,428.474,23.9359Q428.869,24.2283,429.248,24.5398Q429.628,24.851300000000002,429.991,25.180999999999997Q430.355,25.5107,430.702,25.8579Q431.05,26.205,431.379,26.5688Q431.709,26.9326,432.02,27.3121Q432.332,27.6917,432.624,28.086Q432.917,28.4804,433.19,28.8886Q433.462,29.296799999999998,433.715,29.7179Q433.967,30.13907,434.199,30.57207Q434.43,31.00507,434.64,31.448900000000002Q434.85,31.89273,435.038,32.34633Q435.226,32.79993,435.391,33.2622Q435.556,33.72448,435.699,34.19431Q435.842,34.66414,435.961,35.1404Q436.08,35.61666,436.176,36.09819Q436.272,36.57973,436.344,37.06539Q436.416,37.551050000000004,436.464,38.03966Q436.512,38.52827,436.536,39.018647Q436.56,39.509028,436.56,40L436.56,322Z" fill="url(#master_svg1_26_66)" fill-opacity="1"/></g></g></svg>