<svg xmlns="http://www.w3.org/2000/svg" xmlns:xlink="http://www.w3.org/1999/xlink" fill="none" version="1.1" width="552" height="520" viewBox="0 0 552 520"><defs><linearGradient x1="0" y1="1" x2="1" y2="0" id="master_svg0_26_72"><stop offset="0%" stop-color="#FFA880" stop-opacity="1"/><stop offset="100.00002384185791%" stop-color="#FF0C03" stop-opacity="1"/></linearGradient><filter id="master_svg1_26_73" filterUnits="objectBoundingBox" color-interpolation-filters="sRGB" x="-20" y="-16" width="332" height="174"><feFlood flood-opacity="0" result="BackgroundImageFix"/><feColorMatrix in="SourceAlpha" type="matrix" values="0 0 0 0 0 0 0 0 0 0 0 0 0 0 0 0 0 0 127 0"/><feOffset dy="4" dx="0"/><feGaussianBlur stdDeviation="5"/><feColorMatrix type="matrix" values="0 0 0 0 0 0 0 0 0 0 0 0 0 0 0 0 0 0 0.3019607961177826 0"/><feBlend mode="normal" in2="BackgroundImageFix" result="effect1_dropShadow"/><feBlend mode="normal" in="SourceGraphic" in2="effect1_dropShadow" result="shape"/></filter><linearGradient x1="0" y1="0" x2="1" y2="1" id="master_svg2_26_79"><stop offset="0%" stop-color="#FF4A35" stop-opacity="1"/><stop offset="100.00002384185791%" stop-color="#FFA57D" stop-opacity="1"/></linearGradient><filter id="master_svg3_26_80" filterUnits="objectBoundingBox" color-interpolation-filters="sRGB" x="-20" y="-16" width="136.928955078125" height="135"><feFlood flood-opacity="0" result="BackgroundImageFix"/><feColorMatrix in="SourceAlpha" type="matrix" values="0 0 0 0 0 0 0 0 0 0 0 0 0 0 0 0 0 0 127 0"/><feOffset dy="4" dx="0"/><feGaussianBlur stdDeviation="5"/><feColorMatrix type="matrix" values="0 0 0 0 0 0 0 0 0 0 0 0 0 0 0 0 0 0 0.3019607961177826 0"/><feBlend mode="normal" in2="BackgroundImageFix" result="effect1_dropShadow"/><feBlend mode="normal" in="SourceGraphic" in2="effect1_dropShadow" result="shape"/></filter><linearGradient x1="-0.24760402739048004" y1="1.2916666269302368" x2="1" y2="0" id="master_svg4_26_83"><stop offset="0%" stop-color="#FFA880" stop-opacity="1"/><stop offset="100.00002384185791%" stop-color="#FF0C03" stop-opacity="1"/></linearGradient></defs><g style="mix-blend-mode:passthrough"><g style="mix-blend-mode:passthrough"><path d="M351.5,56L183.8461,56Q175.9937,56,170.7917,58.5321Q166.2038,60.765299999999996,162.9631,65.4976Q158.8824,71.4565,156.6138,81.3945Q154,92.8452,154,108.7887L154,434.197Q154,445.83,156.337,453.961Q158.2409,460.584,161.6076,464.488Q164.5705,467.924,169.2493,469.732Q175.1155,472,183.8462,472L410.071,472Q418.184,472,423.58,469.831Q427.865,468.108,430.622,464.783Q433.875,460.861,435.727,454.158Q438,445.935,438,434.197L438,139Q438,138.50900000000001,438.024,138.019Q438.048,137.52800000000002,438.096,137.04000000000002Q438.144,136.551,438.216,136.065Q438.288,135.5797,438.384,135.09820000000002Q438.48,134.6166,438.599,134.1404Q438.719,133.66410000000002,438.861,133.1943Q439.004,132.7245,439.169,132.2622Q439.335,131.79989999999998,439.522,131.34629999999999Q439.71,130.8927,439.92,130.44889999999998Q440.13,130.0051,440.362,129.5721Q440.593,129.13909999999998,440.845,128.7179Q441.098,128.29680000000002,441.371,127.8886Q441.643,127.4804,441.936,127.086Q442.228,126.6917,442.54,126.3121Q442.851,125.9326,443.181,125.5688Q443.511,125.205,443.858,124.8579Q444.205,124.5107,444.569,124.181Q444.933,123.8513,445.312,123.5398Q445.692,123.2283,446.086,122.9358Q446.48,122.6434,446.889,122.3706Q447.297,122.0978,447.718,121.8454Q448.139,121.593,448.572,121.3616Q449.005,121.1301,449.449,120.9202Q449.893,120.7103,450.346,120.5224Q450.8,120.3345,451.262,120.1691Q451.724,120.0037,452.194,119.8612Q452.664,119.7187,453.14,119.5994Q453.617,119.4801,454.098,119.3843Q454.58,119.2885,455.065,119.2165Q455.551,119.1444,456.04,119.0963Q456.528,119.0482,457.019,119.0241Q457.509,119,458,119Q458.491,119,458.981,119.0241Q459.472,119.0482,459.96,119.0963Q460.449,119.1444,460.935,119.2165Q461.42,119.2885,461.902,119.3843Q462.383,119.4801,462.86,119.5994Q463.336,119.7187,463.806,119.8612Q464.276,120.0037,464.738,120.1691Q465.2,120.3345,465.654,120.5224Q466.107,120.7103,466.551,120.9202Q466.995,121.1301,467.428,121.3616Q467.861,121.593,468.282,121.8454Q468.703,122.0978,469.111,122.3706Q469.52,122.6434,469.914,122.9358Q470.308,123.2283,470.688,123.5398Q471.067,123.8513,471.431,124.181Q471.795,124.5107,472.142,124.8579Q472.489,125.205,472.819,125.5688Q473.149,125.9326,473.46,126.3121Q473.772,126.6917,474.064,127.086Q474.357,127.4804,474.629,127.8886Q474.902,128.29680000000002,475.155,128.7179Q475.407,129.13909999999998,475.638,129.5721Q475.87,130.0051,476.08,130.44889999999998Q476.29,130.8927,476.478,131.34629999999999Q476.665,131.79989999999998,476.831,132.2622Q476.996,132.7245,477.139,133.1943Q477.281,133.66410000000002,477.401,134.1404Q477.52,134.6166,477.616,135.09820000000002Q477.711,135.5797,477.784,136.065Q477.856,136.551,477.904,137.04000000000002Q477.952,137.52800000000002,477.976,138.019Q478,138.50900000000001,478,139L478,434.197Q478,470.312,461.414,490.315Q452.188,501.441,438.5,506.944Q425.923,512,410.071,512L183.8462,512Q167.65370000000001,512,154.8276,507.042Q140.81403,501.625,131.31543,490.611Q114,470.531,114,434.197L114,108.7887Q114,88.3378,117.6169,72.4928Q121.5791,55.1351,129.95996,42.89681Q139.18081,29.4319,153.2852,22.566499999999998Q166.7755,16,183.8461,16L351.5,16Q351.991,16,352.481,16.0241Q352.972,16.0482,353.46000000000004,16.0963Q353.949,16.1444,354.435,16.2165Q354.91999999999996,16.2885,355.402,16.3843Q355.88300000000004,16.4801,356.36,16.5994Q356.836,16.7187,357.30600000000004,16.8612Q357.776,17.0037,358.238,17.1691Q358.7,17.3345,359.154,17.5224Q359.60699999999997,17.7103,360.051,17.9202Q360.495,18.1301,360.928,18.3616Q361.361,18.593,361.78200000000004,18.8454Q362.203,19.0978,362.611,19.3706Q363.02,19.6434,363.414,19.9359Q363.808,20.2283,364.188,20.5398Q364.567,20.851300000000002,364.93100000000004,21.180999999999997Q365.29499999999996,21.5107,365.642,21.8579Q365.98900000000003,22.205,366.31899999999996,22.5688Q366.649,22.9326,366.96000000000004,23.3121Q367.272,23.6917,367.56399999999996,24.086Q367.85699999999997,24.4804,368.129,24.8886Q368.402,25.296799999999998,368.655,25.7179Q368.90700000000004,26.13907,369.13800000000003,26.57207Q369.37,27.00507,369.58000000000004,27.448900000000002Q369.78999999999996,27.89273,369.978,28.346330000000002Q370.16499999999996,28.79993,370.331,29.2622Q370.496,29.72448,370.639,30.19431Q370.781,30.66414,370.901,31.1404Q371.02,31.61666,371.116,32.09819Q371.211,32.57973,371.284,33.06539Q371.356,33.551050000000004,371.404,34.03966Q371.452,34.52827,371.476,35.018647Q371.5,35.509028,371.5,36Q371.5,36.490972,371.476,36.981353Q371.452,37.47173,371.404,37.96034Q371.356,38.448949999999996,371.284,38.93461Q371.211,39.42027,371.116,39.90181Q371.02,40.38334,370.901,40.8596Q370.781,41.33586,370.639,41.80569Q370.496,42.27552,370.331,42.7378Q370.16499999999996,43.20007,369.978,43.65367Q369.78999999999996,44.10727,369.58000000000004,44.5511Q369.37,44.99493,369.13800000000003,45.42793Q368.90700000000004,45.860929999999996,368.655,46.2821Q368.402,46.7032,368.129,47.1114Q367.85699999999997,47.5196,367.56399999999996,47.914Q367.272,48.3083,366.96000000000004,48.6879Q366.649,49.0674,366.31899999999996,49.431200000000004Q365.98900000000003,49.795,365.642,50.1421Q365.29499999999996,50.4893,364.93100000000004,50.819Q364.567,51.1487,364.188,51.4602Q363.808,51.771699999999996,363.414,52.064099999999996Q363.02,52.3566,362.611,52.629400000000004Q362.203,52.9022,361.78200000000004,53.1546Q361.361,53.407,360.928,53.638400000000004Q360.495,53.8699,360.051,54.0798Q359.60699999999997,54.289699999999996,359.154,54.477599999999995Q358.7,54.6655,358.238,54.8309Q357.776,54.996300000000005,357.30600000000004,55.1388Q356.836,55.2813,356.36,55.4006Q355.88300000000004,55.5199,355.402,55.615700000000004Q354.91999999999996,55.7115,354.435,55.783500000000004Q353.949,55.855599999999995,353.46000000000004,55.9037Q352.972,55.9518,352.481,55.975899999999996Q351.991,56,351.5,56Z" fill="url(#master_svg0_26_72)" fill-opacity="1"/></g><g style="mix-blend-mode:passthrough" transform="matrix(-1,0,0,1,664,0)" filter="url(#master_svg1_26_73)"><path d="M332,240.175L376.3651,281L376.3651,237.7173L376.3651,197L332,240.175Z" fill="#FF4A35" fill-opacity="1"/><path d="M330.2673,220.2502Q438.685,210.822,515.44,234.6963Q594.5409999999999,259.3002,639.912,318.884Q640.2090000000001,319.274,640.4870000000001,319.679Q640.765,320.084,641.023,320.502Q641.281,320.919,641.518,321.349Q641.754,321.779,641.97,322.221Q642.1859999999999,322.66200000000003,642.379,323.113Q642.573,323.56399999999996,642.744,324.024Q642.915,324.484,643.0640000000001,324.952Q643.212,325.41999999999996,643.337,325.895Q643.463,326.37,643.565,326.85Q643.6669999999999,327.33000000000004,643.745,327.815Q643.823,328.3,643.877,328.788Q643.932,329.276,643.962,329.76599999999996Q643.992,330.256,643.998,330.747Q644.005,331.238,643.9870000000001,331.728Q643.969,332.219,643.927,332.70799999999997Q643.885,333.197,643.819,333.68399999999997Q643.7529999999999,334.16999999999996,643.663,334.653Q643.5740000000001,335.13599999999997,643.461,335.61400000000003Q643.347,336.091,643.211,336.563Q643.0740000000001,337.034,642.915,337.499Q642.755,337.96299999999997,642.573,338.419Q642.3910000000001,338.875,642.187,339.321Q641.982,339.76800000000003,641.756,340.204Q641.53,340.64,641.283,341.06399999999996Q641.0360000000001,341.488,640.769,341.9Q640.501,342.312,640.2139999999999,342.71000000000004Q639.9259999999999,343.108,639.62,343.491Q639.313,343.874,638.988,344.24199999999996Q638.663,344.61,638.3199999999999,344.962Q637.977,345.313,637.6179999999999,345.648Q637.258,345.98199999999997,636.883,346.298Q636.5070000000001,346.615,636.116,346.91200000000003Q635.726,347.209,635.321,347.48699999999997Q634.9159999999999,347.765,634.498,348.023Q634.081,348.281,633.6510000000001,348.51800000000003Q633.22,348.755,632.779,348.97Q632.338,349.18600000000004,631.887,349.379Q631.4359999999999,349.573,630.976,349.744Q630.5160000000001,349.91499999999996,630.048,350.06399999999996Q629.5799999999999,350.212,629.105,350.33799999999997Q628.63,350.46299999999997,628.15,350.565Q627.6700000000001,350.66700000000003,627.185,350.745Q626.7,350.823,626.212,350.877Q625.7239999999999,350.932,625.2339999999999,350.962Q624.744,350.99199999999996,624.2529999999999,350.998Q623.762,351.005,623.2719999999999,350.98699999999997Q622.781,350.969,622.2919999999999,350.927Q621.803,350.885,621.316,350.81899999999996Q620.8299999999999,350.753,620.347,350.664Q619.864,350.574,619.386,350.461Q618.909,350.347,618.437,350.211Q617.9649999999999,350.074,617.501,349.91499999999996Q617.037,349.755,616.581,349.573Q616.125,349.39099999999996,615.678,349.187Q615.232,348.98199999999997,614.796,348.756Q614.36,348.53,613.9359999999999,348.283Q613.512,348.036,613.1,347.769Q612.688,347.501,612.29,347.214Q611.892,346.926,611.509,346.62Q611.125,346.313,610.758,345.988Q610.39,345.663,610.038,345.32Q609.687,344.977,609.352,344.618Q609.018,344.25800000000004,608.702,343.88300000000004Q608.385,343.507,608.088,343.116Q570.4590000000001,293.6998,503.56,272.8913Q434.315,251.353,333.7327,260.0998Q333.24357,260.1423,332.752944,260.1608Q332.26232,260.1793,331.77138,260.1737Q331.280439,260.1681,330.79037,260.1384Q330.30029,260.1087,329.81227,260.055Q329.32424,260.0013,328.83944,259.9237Q328.35463,259.8461,327.87422,259.7448Q327.39381,259.6435,326.91895,259.5188Q326.44408,259.3941,325.97591,259.2462Q325.50774,259.0983,325.04739,258.9276Q324.58704,258.757,324.13561,258.5639Q323.68419,258.37080000000003,323.24279,258.1559Q322.80138,257.9409,322.37106,257.7045Q321.9407,257.4681,321.5225,257.2109Q321.1043,256.9537,320.6992,256.67629999999997Q320.2941,256.3989,319.9032,256.1019Q319.5122,255.805,319.1362,255.48919999999998Q318.76030000000003,255.17340000000002,318.4003,254.8395Q318.0403,254.5057,317.6971,254.15460000000002Q317.354,253.8034,317.0284,253.4359Q316.7029,253.0684,316.3958,252.68529999999998Q316.0887,252.3022,315.8007,251.90460000000002Q315.51279999999997,251.5069,315.2447,251.0956Q314.9766,250.6843,314.729,250.2603Q314.4814,249.8363,314.255,249.4007Q314.0285,248.9651,313.8237,248.5189Q313.6188,248.0727,313.4361,247.617Q313.2534,247.1612,313.0933,246.6971Q312.9332,246.233,312.7961,245.7615Q312.6589,245.2901,312.5451,244.8125Q312.4312,244.3349,312.341,243.8523Q312.2507,243.3697,312.1842,242.8833Q312.1177,242.39679999999998,312.0752,241.9077Q312.0327,241.4186,312.0142,240.9279Q311.9957,240.4373,312.0013,239.94639999999998Q312.0069,239.4554,312.0366,238.9654Q312.0663,238.4753,312.12,237.9873Q312.1737,237.4992,312.2513,237.0144Q312.3289,236.52960000000002,312.4302,236.04919999999998Q312.5315,235.5688,312.6562,235.0939Q312.7809,234.6191,312.9288,234.1509Q313.0767,233.6827,313.24739999999997,233.2224Q313.418,232.762,313.6111,232.3106Q313.8042,231.8592,314.0191,231.4178Q314.2341,230.9764,314.4705,230.5461Q314.7069,230.1157,314.9641,229.6975Q315.2213,229.2793,315.4987,228.8742Q315.7761,228.4691,316.0731,228.0782Q316.3701,227.6872,316.6858,227.31119999999999Q317.0016,226.9353,317.3355,226.5753Q317.6693,226.2153,318.0204,225.8721Q318.3716,225.5289,318.7391,225.2034Q319.1066,224.8779,319.48969999999997,224.5708Q319.8728,224.2637,320.2704,223.9757Q320.6681,223.6878,321.0794,223.4197Q321.4907,223.1516,321.9147,222.904Q322.33869,222.6564,322.77431,222.43Q323.20992,222.2035,323.65613,221.9986Q324.10233,221.7938,324.55805,221.6111Q325.01377,221.4284,325.4779,221.2683Q325.94203,221.1082,326.41346,220.9711Q326.88489,220.8339,327.36248,220.7201Q327.84007,220.6062,328.32268,220.516Q328.80528,220.4257,329.29173,220.3592Q329.77818,220.2927,330.2673,220.2502ZM318.0514,225.8419L362.4165,182.6669Q362.7683,182.3245,363.1365,181.9998Q363.5048,181.675,363.8885,181.3688Q364.2722,181.0625,364.6705,180.7754Q365.0688,180.4883,365.4807,180.2211Q365.8926,179.9539,366.3171,179.7072Q366.7416,179.4606,367.1777,179.2351Q367.61379999999997,179.0095,368.0605,178.8056Q368.5071,178.6018,368.9633,178.4201Q369.4194,178.2384,369.8838,178.0793Q370.3483,177.9202,370.82,177.784Q371.2918,177.6479,371.76959999999997,177.5351Q372.24739999999997,177.4223,372.7302,177.3331Q373.213,177.2438,373.6996,177.1784Q374.1862,177.113,374.6754,177.07150000000001Q375.1647,177.03,375.6553,177.0126Q376.146,176.9952,376.63689999999997,177.0019Q377.1278,177.0085,377.6179,177.0393Q378.1079,177.07,378.5958,177.1248Q379.0837,177.1796,379.5683,177.2582Q380.0529,177.3368,380.5331,177.4391Q381.0133,177.54149999999998,381.4879,177.6672Q381.9625,177.793,382.4304,177.9419Q382.8982,178.0908,383.3582,178.2625Q383.8182,178.4341,384.2692,178.6282Q384.7202,178.8222,385.1611,179.0381Q385.6021,179.2541,386.0319,179.4914Q386.4617,179.7287,386.8793,179.9868Q387.297,180.2449,387.7015,180.5232Q388.106,180.8015,388.4963,181.0993Q388.8866,181.3971,389.26189999999997,181.7137Q389.6372,182.0303,389.9964,182.3649Q390.3557,182.6995,390.6981,183.0514Q391.37149999999997,183.7433,391.9751,184.4969Q392.5787,185.2505,393.1069,186.0587Q393.635,186.8669,394.0829,187.72226Q394.5308,188.5776,394.8942,189.4721Q395.2576,190.3666,395.5332,191.29194Q395.8088,192.21729,395.9939,193.16488Q396.179,194.11247,396.272,195.07348Q396.3651,196.034495,396.3651,197L396.3651,281Q396.3651,281.491,396.341,281.9814Q396.31690000000003,282.4717,396.26869999999997,282.9603Q396.2206,283.4489,396.1486,283.9346Q396.0765,284.4203,395.9808,284.9018Q395.885,285.3833,395.7657,285.8596Q395.64639999999997,286.3358,395.5039,286.8057Q395.3613,287.27549999999997,395.1959,287.7378Q395.0305,288.2001,394.8426,288.6536Q394.6547,289.10720000000003,394.4448,289.5511Q394.2349,289.99490000000003,394.00350000000003,290.4279Q393.772,290.8609,393.51959999999997,291.282Q393.2672,291.7032,392.9944,292.1114Q392.7217,292.51959999999997,392.4292,292.914Q392.1367,293.30830000000003,391.82529999999997,293.6879Q391.5138,294.0674,391.1841,294.4312Q390.8544,294.795,390.5072,295.1421Q390.15999999999997,295.4893,389.7962,295.819Q389.43240000000003,296.1487,389.0529,296.4602Q388.6734,296.7717,388.279,297.06399999999996Q387.8847,297.35699999999997,387.4764,297.629Q387.0682,297.902,386.6471,298.155Q386.226,298.407,385.793,298.63800000000003Q385.36,298.87,384.91610000000003,299.08Q384.4723,299.29,384.0187,299.478Q383.56510000000003,299.665,383.1028,299.831Q382.6406,299.996,382.1707,300.139Q381.7009,300.281,381.2247,300.401Q380.7484,300.52,380.2669,300.616Q379.7853,300.711,379.29970000000003,300.784Q378.814,300.856,378.3254,300.904Q377.8368,300.952,377.3464,300.976Q376.856,301,376.3651,301Q375.4345,301,374.5081,300.914Q373.5816,300.827,372.6671,300.655Q371.7527,300.483,370.8581,300.227Q369.9636,299.971,369.0967,299.633Q368.2298,299.294,367.3981,298.877Q366.5663,298.46,365.7769,297.967Q364.9875,297.475,364.2473,296.911Q363.507,296.3472,362.8223,295.7171L318.4572,254.8921Q318.09590000000003,254.5596,317.7514,254.2099Q317.4069,253.8601,317.0799,253.4938Q316.753,253.1275,316.4444,252.7457Q316.1358,252.3638,315.8463,251.9673Q315.5568,251.5707,315.2871,251.1604Q315.0174,250.7501,314.7682,250.3271Q314.519,249.9041,314.2908,249.4694Q314.0627,249.0346,313.8561,248.5892Q313.6496,248.1438,313.4651,247.68880000000001Q313.2806,247.2338,313.1187,246.7703Q312.9568,246.3068,312.8179,245.8359Q312.6789,245.365,312.5632,244.8879Q312.4475,244.4107,312.3554,243.92849999999999Q312.2632,243.4462,312.1949,242.96Q312.1265,242.47379999999998,312.0821,241.9849Q312.0376,241.4959,312.0172,241.0054Q311.9969,240.5148,312.0006,240.0239Q312.0043,239.53289999999998,312.0321,239.0427Q312.05989999999997,238.5525,312.1117,238.0643Q312.1635,237.5761,312.2392,237.091Q312.3149,236.6059,312.4143,236.1251Q312.5138,235.6443,312.6367,235.1689Q312.7595,234.6936,312.9056,234.22480000000002Q313.0517,233.7561,313.2206,233.2951Q313.3895,232.8341,313.5808,232.3819Q313.7721,231.9297,313.9853,231.4875Q314.1986,231.0453,314.4333,230.614Q314.668,230.1828,314.9236,229.7636Q315.1792,229.3444,315.455,228.9383Q315.7309,228.5321,316.0263,228.14Q316.3218,227.7478,316.6361,227.3707Q316.9504,226.9935,317.2829,226.6322Q317.6563,226.2265,318.0514,225.8419L318.0514,225.8419ZM345.9486,254.5081L332,240.175L345.5428,225.4579L389.9078,266.2829L376.3651,281L356.3651,281L356.3651,197L376.3651,197L390.3136,211.3331L345.9486,254.5081Z" fill="url(#master_svg2_26_79)" fill-opacity="1"/></g><g style="mix-blend-mode:passthrough" filter="url(#master_svg3_26_80)"><path d="M361,61L457.929,61Q458.4199,61,458.9103,61.024100000000004Q459.40070000000003,61.0482,459.8893,61.0963Q460.3779,61.144400000000005,460.8636,61.216499999999996Q461.349,61.2885,461.831,61.384299999999996Q462.312,61.4801,462.789,61.5994Q463.265,61.7187,463.735,61.8612Q464.204,62.003699999999995,464.66700000000003,62.1691Q465.129,62.3345,465.58299999999997,62.522400000000005Q466.036,62.710300000000004,466.48,62.9202Q466.924,63.1301,467.35699999999997,63.361599999999996Q467.79,63.593,468.211,63.8454Q468.632,64.0978,469.04,64.3706Q469.449,64.6434,469.843,64.9358Q470.23699999999997,65.2283,470.617,65.5398Q470.996,65.8513,471.36,66.181Q471.724,66.5107,472.071,66.8579Q472.418,67.205,472.748,67.5688Q473.078,67.93260000000001,473.389,68.3121Q473.701,68.6917,473.993,69.086Q474.286,69.4804,474.558,69.8886Q474.831,70.29679999999999,475.084,70.7179Q475.336,71.1391,475.567,71.5721Q475.799,72.0051,476.009,72.44890000000001Q476.219,72.89269999999999,476.407,73.3463Q476.594,73.79990000000001,476.76,74.2622Q476.925,74.7245,477.068,75.1943Q477.21,75.66409999999999,477.33,76.1404Q477.449,76.6166,477.545,77.09819999999999Q477.64,77.5797,477.712,78.0654Q477.78499999999997,78.551,477.83299999999997,79.03970000000001Q477.881,79.5283,477.905,80.01859999999999Q477.929,80.509,477.929,81Q477.929,81.491,477.905,81.98140000000001Q477.881,82.4717,477.83299999999997,82.96029999999999Q477.78499999999997,83.44890000000001,477.712,83.9346Q477.64,84.4203,477.545,84.90180000000001Q477.449,85.38329999999999,477.33,85.8596Q477.21,86.33590000000001,477.068,86.8057Q476.925,87.2755,476.76,87.7378Q476.594,88.20009999999999,476.407,88.6537Q476.219,89.10730000000001,476.009,89.55109999999999Q475.799,89.9949,475.567,90.4279Q475.336,90.8609,475.084,91.2821Q474.831,91.70320000000001,474.558,92.1114Q474.286,92.5196,473.993,92.914Q473.701,93.3083,473.389,93.6879Q473.078,94.06739999999999,472.748,94.43119999999999Q472.418,94.795,472.071,95.1421Q471.724,95.4893,471.36,95.819Q470.996,96.14869999999999,470.617,96.4602Q470.23699999999997,96.77170000000001,469.843,97.0641Q469.449,97.3566,469.04,97.6294Q468.632,97.9022,468.211,98.1546Q467.79,98.407,467.35699999999997,98.63839999999999Q466.924,98.8699,466.48,99.0798Q466.036,99.28970000000001,465.58299999999997,99.4776Q465.129,99.66550000000001,464.66700000000003,99.8309Q464.204,99.99629999999999,463.735,100.1388Q463.265,100.2813,462.789,100.4006Q462.312,100.5199,461.831,100.6157Q461.349,100.7115,460.8635,100.7835Q460.3779,100.8556,459.8893,100.9037Q459.40070000000003,100.9518,458.9103,100.9759Q458.4199,101,457.929,101L361,101Q360.509028,101,360.018647,100.9759Q359.52827,100.9518,359.03966,100.9037Q358.55105,100.8556,358.06539,100.7835Q357.57973,100.7115,357.09819,100.6157Q356.61666,100.5199,356.1404,100.4006Q355.66414,100.2813,355.19431,100.1388Q354.72447999999997,99.99629999999999,354.2622,99.8309Q353.79993,99.66550000000001,353.34633,99.4776Q352.89273000000003,99.28970000000001,352.4489,99.0798Q352.00507,98.8699,351.57207,98.63839999999999Q351.13907,98.407,350.7179,98.1546Q350.2968,97.9022,349.8886,97.6294Q349.4804,97.3566,349.086,97.0641Q348.6917,96.77170000000001,348.3121,96.4602Q347.9326,96.14869999999999,347.5688,95.819Q347.205,95.4893,346.8579,95.1421Q346.5107,94.795,346.181,94.43119999999999Q345.8513,94.06739999999999,345.5398,93.6879Q345.2283,93.3083,344.9359,92.914Q344.6434,92.5196,344.3706,92.1114Q344.0978,91.70320000000001,343.8454,91.2821Q343.593,90.8609,343.3616,90.4279Q343.13009999999997,89.9949,342.9202,89.55109999999999Q342.7103,89.10730000000001,342.5224,88.6537Q342.3345,88.20009999999999,342.1691,87.7378Q342.0037,87.2755,341.8612,86.8057Q341.7187,86.33590000000001,341.5994,85.8596Q341.4801,85.38329999999999,341.3843,84.90180000000001Q341.2885,84.4203,341.2165,83.9346Q341.1444,83.449,341.0963,82.96029999999999Q341.0482,82.4717,341.0241,81.98140000000001Q341,81.491,341,81Q341,80.509,341.0241,80.01859999999999Q341.0482,79.5283,341.0963,79.03970000000001Q341.1444,78.551,341.2165,78.0654Q341.2885,77.5797,341.3843,77.09819999999999Q341.4801,76.6166,341.5994,76.1404Q341.7187,75.66409999999999,341.8612,75.1943Q342.0037,74.7245,342.1691,74.2622Q342.3345,73.79990000000001,342.5224,73.3463Q342.7103,72.89269999999999,342.9202,72.44890000000001Q343.13009999999997,72.0051,343.3616,71.5721Q343.593,71.1391,343.8454,70.7179Q344.0978,70.29679999999999,344.3706,69.8886Q344.6434,69.4804,344.9359,69.086Q345.2283,68.6917,345.5398,68.3121Q345.8513,67.93260000000001,346.181,67.5688Q346.5107,67.205,346.8579,66.8579Q347.205,66.5107,347.5688,66.181Q347.9326,65.8513,348.3121,65.5398Q348.6917,65.2283,349.086,64.9358Q349.4804,64.6434,349.8886,64.3706Q350.2968,64.0978,350.7179,63.8454Q351.13907,63.593,351.57207,63.361599999999996Q352.00507,63.1301,352.4489,62.9202Q352.89273000000003,62.710300000000004,353.34633,62.522400000000005Q353.79993,62.3345,354.2622,62.1691Q354.72447999999997,62.003699999999995,355.19431,61.8612Q355.66414,61.7187,356.1404,61.5994Q356.61666,61.4801,357.09819,61.384299999999996Q357.57973,61.2885,358.06539,61.216499999999996Q358.55105,61.144400000000005,359.03966,61.0963Q359.52827,61.0482,360.018647,61.024100000000004Q360.509028,61,361,61ZM428.929,36L428.929,131Q428.929,131.49099999999999,428.9049,131.9814Q428.8808,132.4717,428.8327,132.9604Q428.7845,133.449,428.7125,133.9346Q428.6404,134.4203,428.54470000000003,134.90179999999998Q428.4489,135.38330000000002,428.3296,135.8596Q428.2103,136.336,428.0677,136.80599999999998Q427.9252,137.275,427.7598,137.738Q427.5944,138.2,427.4065,138.654Q427.2186,139.107,427.0087,139.551Q426.7988,139.995,426.5674,140.428Q426.3359,140.861,426.0835,141.28199999999998Q425.8311,141.703,425.55830000000003,142.111Q425.2856,142.51999999999998,424.9931,142.914Q424.7006,143.308,424.3892,143.688Q424.0777,144.067,423.748,144.43099999999998Q423.4183,144.79500000000002,423.0711,145.142Q422.7239,145.489,422.3601,145.81900000000002Q421.9963,146.149,421.6168,146.45999999999998Q421.2373,146.772,420.8429,147.064Q420.4486,147.357,420.0404,147.62900000000002Q419.6321,147.902,419.211,148.155Q418.7899,148.40699999999998,418.3569,148.638Q417.9239,148.87,417.4801,149.07999999999998Q417.0362,149.29000000000002,416.5826,149.478Q416.129,149.66500000000002,415.6667,149.83100000000002Q415.2045,149.99599999999998,414.7346,150.139Q414.2648,150.281,413.7886,150.401Q413.3123,150.51999999999998,412.8308,150.61599999999999Q412.3492,150.711,411.8636,150.784Q411.3779,150.856,410.8893,150.904Q410.40070000000003,150.952,409.9103,150.976Q409.4199,151,408.929,151Q408.438,151,407.9476,150.976Q407.4572,150.952,406.9686,150.904Q406.48,150.856,405.9943,150.784Q405.5087,150.711,405.0271,150.61599999999999Q404.5456,150.51999999999998,404.0694,150.401Q403.5931,150.281,403.1233,150.139Q402.6534,149.99599999999998,402.1912,149.83100000000002Q401.7289,149.66500000000002,401.2753,149.478Q400.8217,149.29000000000002,400.3778,149.07999999999998Q399.93399999999997,148.87,399.501,148.638Q399.068,148.40699999999998,398.6469,148.155Q398.2258,147.902,397.8175,147.62900000000002Q397.40930000000003,147.357,397.015,147.064Q396.6206,146.772,396.2411,146.45999999999998Q395.8616,146.149,395.4978,145.81900000000002Q395.134,145.489,394.78679999999997,145.142Q394.4396,144.79500000000002,394.1099,144.43099999999998Q393.7802,144.067,393.4687,143.688Q393.1573,143.308,392.8648,142.914Q392.5723,142.51999999999998,392.2996,142.111Q392.0268,141.703,391.7744,141.28199999999998Q391.522,140.861,391.2905,140.428Q391.0591,139.995,390.8492,139.551Q390.6392,139.107,390.4514,138.654Q390.2635,138.2,390.0981,137.738Q389.9327,137.276,389.7901,136.80599999999998Q389.6476,136.336,389.5283,135.8596Q389.409,135.38330000000002,389.3132,134.90179999999998Q389.2175,134.4203,389.1454,133.9346Q389.0734,133.449,389.0253,132.9604Q388.9771,132.4717,388.953,131.9814Q388.929,131.49099999999999,388.929,131L388.929,36Q388.929,35.509028,388.953,35.018647Q388.9771,34.52827,389.0253,34.03966Q389.0734,33.551050000000004,389.1454,33.06539Q389.2175,32.57973,389.3132,32.09819Q389.409,31.61666,389.5283,31.1404Q389.6476,30.66414,389.7901,30.19431Q389.9327,29.72448,390.0981,29.2622Q390.2635,28.79993,390.4514,28.346330000000002Q390.6392,27.89273,390.8492,27.448900000000002Q391.0591,27.00507,391.2905,26.57207Q391.522,26.13907,391.7744,25.7179Q392.0268,25.296799999999998,392.2996,24.8886Q392.5723,24.4804,392.8648,24.086Q393.1573,23.6917,393.4687,23.3121Q393.7802,22.9326,394.1099,22.5688Q394.4396,22.205,394.78679999999997,21.8579Q395.134,21.5107,395.4978,21.180999999999997Q395.8616,20.851300000000002,396.2411,20.5398Q396.6206,20.2283,397.015,19.9359Q397.40930000000003,19.6434,397.8175,19.3706Q398.2258,19.0978,398.6469,18.8454Q399.068,18.593,399.501,18.3616Q399.93399999999997,18.1301,400.3778,17.9202Q400.8217,17.7103,401.2753,17.5224Q401.7289,17.3345,402.1912,17.1691Q402.6534,17.0037,403.1233,16.8612Q403.5931,16.7187,404.0693,16.5994Q404.5456,16.4801,405.0271,16.3843Q405.5087,16.2885,405.9943,16.2165Q406.48,16.1444,406.9686,16.0963Q407.4572,16.0482,407.9476,16.0241Q408.438,16,408.929,16Q409.4199,16,409.9103,16.0241Q410.40070000000003,16.0482,410.8893,16.0963Q411.3779,16.1444,411.8636,16.2165Q412.3492,16.2885,412.8308,16.3843Q413.3123,16.4801,413.7886,16.5994Q414.2648,16.7187,414.7346,16.8612Q415.2045,17.0037,415.6667,17.1691Q416.129,17.3345,416.5826,17.5224Q417.0362,17.7103,417.4801,17.9202Q417.9239,18.1301,418.3569,18.3616Q418.7899,18.593,419.211,18.8454Q419.6321,19.0978,420.0404,19.3706Q420.4486,19.6434,420.8429,19.9359Q421.2373,20.2283,421.6168,20.5398Q421.9963,20.851300000000002,422.3601,21.180999999999997Q422.7239,21.5107,423.0711,21.8579Q423.4183,22.205,423.748,22.5688Q424.0777,22.9326,424.3892,23.3121Q424.7006,23.6917,424.9931,24.086Q425.2856,24.4804,425.55830000000003,24.8886Q425.8311,25.296799999999998,426.0835,25.7179Q426.3359,26.13907,426.5674,26.57207Q426.7988,27.00507,427.0087,27.448900000000002Q427.2186,27.89273,427.4065,28.346330000000002Q427.5944,28.79993,427.7598,29.2622Q427.9252,29.72448,428.0677,30.19431Q428.2103,30.66414,428.3296,31.1404Q428.4489,31.61666,428.54470000000003,32.09819Q428.6404,32.57973,428.7125,33.06539Q428.7845,33.551050000000004,428.8327,34.03966Q428.8808,34.52827,428.9049,35.018647Q428.929,35.509028,428.929,36Z" fill="url(#master_svg4_26_83)" fill-opacity="1"/></g></g></svg>