<svg xmlns="http://www.w3.org/2000/svg" xmlns:xlink="http://www.w3.org/1999/xlink" fill="none" version="1.1" width="512" height="512" viewBox="0 0 512 512"><defs><clipPath id="master_svg0_49_045"><rect x="0" y="0" width="512" height="512" rx="0"/></clipPath><linearGradient x1="1" y1="0" x2="0" y2="1" id="master_svg1_49_066"><stop offset="0%" stop-color="#FF140A" stop-opacity="1"/><stop offset="100.00005960464478%" stop-color="#FFA27B" stop-opacity="1"/></linearGradient><linearGradient x1="450" y1="82" x2="61" y2="357" gradientUnits="userSpaceOnUse" id="master_svg2_49_066"><stop offset="0%" stop-color="#FF140A" stop-opacity="1"/><stop offset="100.00005960464478%" stop-color="#FFA27B" stop-opacity="1"/></linearGradient></defs><g style="mix-blend-mode:passthrough" clip-path="url(#master_svg0_49_045)"><g style="mix-blend-mode:passthrough"><path d="M432.5,388L61,388Q60.509028,388,60.018647,387.9759Q59.52827,387.9518,59.03966,387.9037Q58.551050000000004,387.8556,58.06539,387.7835Q57.57973,387.7115,57.09819,387.6157Q56.61666,387.5199,56.1404,387.4006Q55.66414,387.2813,55.19431,387.1388Q54.72448,386.9963,54.2622,386.8309Q53.79993,386.6655,53.34633,386.4776Q52.89273,386.2897,52.4489,386.0798Q52.00507,385.86990000000003,51.57207,385.6384Q51.139070000000004,385.407,50.7179,385.1546Q50.2968,384.9022,49.8886,384.6294Q49.4804,384.3566,49.086,384.0641Q48.6917,383.7717,48.3121,383.4602Q47.9326,383.1487,47.568799999999996,382.819Q47.205,382.4893,46.8579,382.1421Q46.5107,381.795,46.181,381.4312Q45.8513,381.0674,45.5398,380.6879Q45.228300000000004,380.3083,44.935900000000004,379.914Q44.6434,379.5196,44.370599999999996,379.1114Q44.0978,378.7032,43.8454,378.2821Q43.593,377.86093,43.361599999999996,377.42793Q43.1301,376.99493,42.9202,376.5511Q42.710300000000004,376.10726999999997,42.522400000000005,375.65367Q42.3345,375.20007,42.1691,374.7378Q42.003699999999995,374.27552000000003,41.8612,373.80569Q41.7187,373.33586,41.5994,372.8596Q41.4801,372.38334,41.384299999999996,371.90181Q41.2885,371.42027,41.216499999999996,370.93461Q41.144400000000005,370.44895,41.0963,369.96034Q41.0482,369.47173,41.024100000000004,368.981353Q41,368.490972,41,368Q41,367.509028,41.024100000000004,367.018647Q41.0482,366.52827,41.0963,366.03966Q41.144400000000005,365.55105,41.216499999999996,365.06539Q41.2885,364.57973,41.384299999999996,364.09819Q41.4801,363.61666,41.5994,363.1404Q41.7187,362.66414,41.8612,362.19431Q42.003699999999995,361.72447999999997,42.1691,361.2622Q42.3345,360.79993,42.522400000000005,360.34633Q42.710300000000004,359.89273000000003,42.9202,359.4489Q43.1301,359.00507,43.361599999999996,358.57207Q43.593,358.13907,43.8454,357.7179Q44.0978,357.2968,44.370599999999996,356.8886Q44.6434,356.4804,44.935900000000004,356.086Q45.228300000000004,355.6917,45.5398,355.3121Q45.8513,354.9326,46.181,354.5688Q46.5107,354.205,46.8579,353.8579Q47.205,353.5107,47.568799999999996,353.181Q47.9326,352.8513,48.3121,352.5398Q48.6917,352.2283,49.086,351.9359Q49.4804,351.6434,49.8886,351.3706Q50.2968,351.0978,50.7179,350.8454Q51.139070000000004,350.593,51.57207,350.3616Q52.00507,350.13009999999997,52.4489,349.9202Q52.89273,349.7103,53.34633,349.5224Q53.79993,349.3345,54.2622,349.1691Q54.72448,349.0037,55.19431,348.8612Q55.66414,348.7187,56.1404,348.5994Q56.61666,348.4801,57.09819,348.3843Q57.57973,348.2885,58.06539,348.2165Q58.551050000000004,348.1444,59.03966,348.0963Q59.52827,348.0482,60.018647,348.0241Q60.509028,348,61,348L432.5,348Q432.991,348,433.481,348.0241Q433.972,348.0482,434.46,348.0963Q434.949,348.1444,435.435,348.2165Q435.92,348.2885,436.402,348.3843Q436.883,348.4801,437.36,348.5994Q437.836,348.7187,438.306,348.8612Q438.775,349.0037,439.238,349.1691Q439.7,349.3345,440.154,349.5224Q440.607,349.7103,441.051,349.9202Q441.495,350.13009999999997,441.928,350.3616Q442.361,350.593,442.782,350.8454Q443.203,351.0978,443.611,351.3706Q444.02,351.6434,444.414,351.9359Q444.808,352.2283,445.188,352.5398Q445.567,352.8513,445.931,353.181Q446.295,353.5107,446.642,353.8579Q446.989,354.205,447.319,354.5688Q447.649,354.9326,447.96,355.3121Q448.272,355.6917,448.564,356.086Q448.857,356.4804,449.129,356.8886Q449.402,357.2968,449.655,357.7179Q449.907,358.13907,450.138,358.57207Q450.37,359.00507,450.58,359.4489Q450.79,359.89273000000003,450.978,360.34633Q451.165,360.79993,451.331,361.2622Q451.496,361.72447999999997,451.639,362.19431Q451.781,362.66414,451.901,363.1404Q452.02,363.61666,452.116,364.09819Q452.211,364.57973,452.284,365.06539Q452.356,365.55105,452.404,366.03966Q452.452,366.52827,452.476,367.018647Q452.5,367.509028,452.5,368Q452.5,368.490972,452.476,368.981353Q452.452,369.47173,452.404,369.96034Q452.356,370.44895,452.284,370.93461Q452.211,371.42027,452.116,371.90181Q452.02,372.38334,451.901,372.8596Q451.781,373.33586,451.639,373.80569Q451.496,374.27552000000003,451.331,374.7378Q451.165,375.20007,450.978,375.65367Q450.79,376.10726999999997,450.58,376.5511Q450.37,376.99493,450.138,377.42793Q449.907,377.86093,449.655,378.2821Q449.402,378.7032,449.129,379.1114Q448.857,379.5196,448.564,379.914Q448.272,380.3083,447.96,380.6879Q447.649,381.0674,447.319,381.4312Q446.989,381.795,446.642,382.1421Q446.295,382.4893,445.931,382.819Q445.567,383.1487,445.188,383.4602Q444.808,383.7717,444.414,384.0641Q444.02,384.3566,443.611,384.6294Q443.203,384.9022,442.782,385.1546Q442.361,385.407,441.928,385.6384Q441.495,385.86990000000003,441.051,386.0798Q440.607,386.2897,440.154,386.4776Q439.7,386.6655,439.238,386.8309Q438.775,386.9963,438.306,387.1388Q437.836,387.2813,437.36,387.4006Q436.883,387.5199,436.402,387.6157Q435.92,387.7115,435.435,387.7835Q434.949,387.8556,434.46,387.9037Q433.972,387.9518,433.481,387.9759Q432.991,388,432.5,388Z" fill="url(#master_svg1_49_066)" fill-opacity="1"/></g><g style="mix-blend-mode:passthrough"><path d="M100.6875,234.875Q94.2812,276.328,98.625,296.172Q102.9844,316,120.9062,316Q129.0938,316,136.5156,309.938Q143.9375,303.875,149.1875,293.688Q154.4375,283.48400000000004,157,270.85900000000004L159.5625,251L130.125,251L133.1875,226L187.719,226L172.35899999999998,337.469L151.1094,337.469L154.9531,311.60900000000004Q147.0156,324.781,135.875,332.39099999999996Q124.75,340,111.6875,340Q86.5938,340,76.2188,314.281Q65.85938,288.547,73.0312,234.516Q80.4531,179.4688,98.375,153.7344Q116.2969,128,145.7344,128Q159.2969,128,168.125,134.1719Q176.969,140.3438,182.078,150.1094Q187.203,159.8594,189.25,171.1719L162.89100000000002,176.7344Q161.094,166.125,156.0938,160.0625Q151.1094,154,142.9219,154Q130.625,154,122.8125,162.5781Q115.0156,171.1562,110.0156,188.938Q105.0312,206.719,100.6875,234.875ZM250.828,340Q219.344,340,209.094,314.281Q198.859,288.547,206.031,234.516Q213.453,179.4688,231.375,153.7344Q249.297,128,277.969,128Q309.969,128,320.078,153.7344Q330.188,179.4688,322.766,234.516Q315.594,288.547,297.797,314.281Q280.01599999999996,340,250.828,340ZM253.391,316Q271.062,316,279.89099999999996,296.078Q288.719,276.156,295.125,234.516Q301.51599999999996,192.35899999999998,297.422,172.1875Q293.328,152,275.922,152Q258.25,152,249.156,172.1875Q240.078,192.35899999999998,233.688,234.516Q227.281,276.156,231.75,296.078Q236.234,316,253.391,316ZM373.547,281L353.062,281L369.953,128L401.188,128L373.547,281ZM355.375,340Q347.938,340,343.719,334.828Q339.5,329.672,340.781,320.35900000000004Q342.062,311.328,347.562,306.172Q353.062,301,360.234,301Q367.656,301,371.625,306.172Q375.594,311.328,374.312,320.35900000000004Q373.031,329.672,367.781,334.828Q362.531,340,355.375,340Z" fill="url(#master_svg2_49_066)" fill-opacity="1"/></g></g></svg>