<svg xmlns="http://www.w3.org/2000/svg" xmlns:xlink="http://www.w3.org/1999/xlink" fill="none" version="1.1" width="256" height="256" viewBox="0 0 256 256"><defs><clipPath id="master_svg0_1_209"><rect x="0" y="0" width="256" height="256" rx="0"/></clipPath></defs><g style="mix-blend-mode:passthrough" clip-path="url(#master_svg0_1_209)"><g style="mix-blend-mode:passthrough"><path d="M121.5,178L24,178Q23.693142,178,23.386654,177.985Q23.080166,177.97,22.77479,177.94Q22.46941,177.91,22.165869999999998,177.865Q21.86233,177.82,21.56137,177.76Q21.26041,177.7,20.96275,177.625Q20.66509,177.551,20.37144,177.462Q20.0778,177.373,19.78888,177.269Q19.49996,177.166,19.216459999999998,177.048Q18.93296,176.931,18.65556,176.8Q18.37817,176.669,18.10754,176.524Q17.83692,176.379,17.57372,176.222Q17.31052,176.064,17.05537,175.893Q16.80023,175.723,16.55376,175.54Q16.307290000000002,175.357,16.07009,175.163Q15.83288,174.96800000000002,15.60551,174.762Q15.37815,174.55599999999998,15.16117,174.339Q14.94418,174.122,14.73811,173.894Q14.53204,173.667,14.33737,173.43Q14.1427,173.19299999999998,13.9599,172.946Q13.7771,172.7,13.6066,172.445Q13.4362,172.189,13.2784,171.926Q13.1206,171.663,12.976,171.392Q12.8313,171.122,12.7001,170.844Q12.5689,170.567,12.4515,170.284Q12.3341,170,12.2307,169.711Q12.1273,169.422,12.0382,169.12900000000002Q11.9492,168.83499999999998,11.8746,168.537Q11.8001,168.24,11.7402,167.939Q11.6803,167.638,11.6353,167.334Q11.5903,167.031,11.5602,166.725Q11.5301,166.42000000000002,11.5151,166.113Q11.5,165.80700000000002,11.5,165.5L11.5,47Q11.5,46.693142,11.5151,46.386654Q11.5301,46.080166,11.5602,45.77479Q11.5903,45.46941,11.6353,45.16587Q11.6803,44.86233,11.7402,44.56137Q11.8001,44.26041,11.8746,43.96275Q11.9492,43.66509,12.0382,43.37144Q12.1273,43.077799999999996,12.2307,42.78888Q12.3341,42.49996,12.4515,42.21646Q12.5689,41.93296,12.7001,41.65556Q12.8313,41.37817,12.976,41.10754Q13.1206,40.83692,13.2784,40.57372Q13.4362,40.31052,13.6066,40.055369999999996Q13.7771,39.80023,13.9599,39.55376Q14.1427,39.30729,14.33737,39.07009Q14.53204,38.83288,14.73811,38.60551Q14.94418,38.37815,15.16117,38.16117Q15.37815,37.94418,15.60551,37.73811Q15.83288,37.53204,16.07008,37.33737Q16.307290000000002,37.1427,16.55376,36.9599Q16.80023,36.777100000000004,17.05537,36.6066Q17.31052,36.4362,17.57372,36.2784Q17.83692,36.120599999999996,18.10754,35.976Q18.37817,35.8313,18.65556,35.7001Q18.93296,35.5689,19.216459999999998,35.451499999999996Q19.49996,35.3341,19.78888,35.2307Q20.0778,35.1273,20.37144,35.0382Q20.66509,34.9492,20.96275,34.8746Q21.26041,34.8001,21.56137,34.7402Q21.86233,34.6803,22.165869999999998,34.6353Q22.46941,34.5903,22.77479,34.5602Q23.080166,34.5301,23.386654,34.515100000000004Q23.693142,34.5,24,34.5L199.5,34.5Q199.807,34.5,200.113,34.515100000000004Q200.42,34.5301,200.725,34.5602Q201.031,34.5903,201.334,34.6353Q201.638,34.6803,201.939,34.7402Q202.24,34.8001,202.537,34.8746Q202.835,34.9492,203.129,35.0382Q203.422,35.1273,203.711,35.2307Q204,35.3341,204.284,35.451499999999996Q204.567,35.5689,204.844,35.7001Q205.122,35.8313,205.392,35.976Q205.663,36.120599999999996,205.926,36.2784Q206.189,36.4362,206.445,36.6066Q206.7,36.777100000000004,206.946,36.9599Q207.193,37.1427,207.43,37.33737Q207.667,37.53204,207.894,37.73811Q208.122,37.94418,208.339,38.16117Q208.556,38.37815,208.762,38.60551Q208.968,38.83288,209.163,39.07008Q209.357,39.30729,209.54,39.55376Q209.723,39.80023,209.893,40.055369999999996Q210.064,40.31052,210.222,40.57372Q210.379,40.83692,210.524,41.10754Q210.669,41.37817,210.8,41.65556Q210.931,41.93296,211.048,42.21646Q211.166,42.49996,211.269,42.78888Q211.373,43.077799999999996,211.462,43.37144Q211.551,43.66509,211.625,43.96275Q211.7,44.26041,211.76,44.56137Q211.82,44.86233,211.865,45.16587Q211.91,45.46941,211.94,45.77479Q211.97,46.080166,211.985,46.386654Q212,46.693142,212,47L212,132.5Q212,132.80689999999998,211.985,133.11329999999998Q211.97,133.4198,211.94,133.7252Q211.91,134.0306,211.865,134.3341Q211.82,134.6377,211.76,134.9386Q211.7,135.2396,211.625,135.53730000000002Q211.551,135.8349,211.462,136.1286Q211.373,136.4222,211.269,136.7111Q211.166,137,211.048,137.2835Q210.931,137.567,210.8,137.8444Q210.669,138.1218,210.524,138.39249999999998Q210.379,138.6631,210.222,138.9263Q210.064,139.1895,209.893,139.44459999999998Q209.723,139.69979999999998,209.54,139.9462Q209.357,140.1927,209.163,140.4299Q208.968,140.6671,208.762,140.8945Q208.556,141.1218,208.339,141.3388Q208.122,141.5558,207.894,141.7619Q207.667,141.96800000000002,207.43,142.1626Q207.193,142.3573,206.946,142.5401Q206.7,142.72289999999998,206.445,142.89339999999999Q206.189,143.06380000000001,205.926,143.2216Q205.663,143.3793,205.392,143.524Q205.122,143.6687,204.844,143.79989999999998Q204.567,143.93110000000001,204.284,144.0485Q204,144.1659,203.711,144.2693Q203.422,144.3727,203.129,144.4617Q202.835,144.55079999999998,202.537,144.6254Q202.24,144.6999,201.939,144.75979999999998Q201.638,144.8197,201.334,144.8647Q201.031,144.9097,200.725,144.9398Q200.42,144.9699,200.113,144.98489999999998Q199.807,145,199.5,145Q199.193,145,198.887,144.98489999999998Q198.58,144.9699,198.275,144.9398Q197.969,144.9097,197.666,144.8647Q197.362,144.8197,197.061,144.75979999999998Q196.76,144.6999,196.463,144.6254Q196.165,144.55079999999998,195.871,144.46179999999998Q195.578,144.3727,195.289,144.2693Q195,144.1659,194.716,144.0485Q194.433,143.93110000000001,194.156,143.79989999999998Q193.878,143.6687,193.608,143.524Q193.337,143.3793,193.074,143.2216Q192.81,143.06380000000001,192.555,142.89339999999999Q192.3,142.72289999999998,192.054,142.5401Q191.807,142.3573,191.57,142.1626Q191.333,141.96800000000002,191.105,141.7619Q190.878,141.5558,190.661,141.3388Q190.444,141.1218,190.238,140.8945Q190.032,140.6671,189.837,140.4299Q189.643,140.1927,189.46,139.9462Q189.277,139.69979999999998,189.107,139.44459999999998Q188.936,139.1895,188.778,138.9263Q188.621,138.6631,188.476,138.39249999999998Q188.331,138.1218,188.2,137.8444Q188.069,137.567,187.951,137.2835Q187.834,137,187.731,136.7111Q187.627,136.4222,187.538,136.1286Q187.449,135.8349,187.375,135.53719999999998Q187.3,135.2396,187.24,134.9386Q187.18,134.6377,187.135,134.3341Q187.09,134.0306,187.06,133.7252Q187.03,133.4198,187.015,133.11329999999998Q187,132.80689999999998,187,132.5L187,47L199.5,47L199.5,59.5L24,59.5L24,47L36.5,47L36.5,165.5L24,165.5L24,153L121.5,153Q121.8068,153,122.1133,153.015Q122.4198,153.03,122.7252,153.06Q123.0306,153.09,123.3341,153.135Q123.6376,153.18,123.9386,153.24Q124.24,153.3,124.537,153.375Q124.835,153.449,125.129,153.538Q125.422,153.627,125.711,153.731Q126,153.834,126.284,153.951Q126.567,154.06900000000002,126.844,154.2Q127.122,154.33100000000002,127.392,154.476Q127.663,154.62099999999998,127.926,154.77800000000002Q128.189,154.936,128.445,155.107Q128.7,155.277,128.946,155.45999999999998Q129.19299999999998,155.643,129.43,155.837Q129.667,156.03199999999998,129.894,156.238Q130.122,156.44400000000002,130.339,156.661Q130.55599999999998,156.878,130.762,157.10500000000002Q130.96800000000002,157.333,131.163,157.57Q131.357,157.80700000000002,131.54000000000002,158.054Q131.723,158.3,131.893,158.555Q132.064,158.81,132.22199999999998,159.074Q132.37900000000002,159.337,132.524,159.608Q132.66899999999998,159.878,132.8,160.156Q132.93099999999998,160.433,133.048,160.716Q133.166,161,133.269,161.289Q133.373,161.578,133.462,161.87099999999998Q133.551,162.16500000000002,133.625,162.463Q133.7,162.76,133.76,163.061Q133.82,163.362,133.865,163.666Q133.91,163.969,133.94,164.275Q133.97,164.57999999999998,133.985,164.887Q134,165.19299999999998,134,165.5Q134,165.80700000000002,133.985,166.113Q133.97,166.42000000000002,133.94,166.725Q133.91,167.031,133.865,167.334Q133.82,167.638,133.76,167.939Q133.7,168.24,133.625,168.537Q133.551,168.83499999999998,133.462,169.12900000000002Q133.373,169.422,133.269,169.711Q133.166,170,133.048,170.284Q132.93099999999998,170.567,132.8,170.844Q132.66899999999998,171.122,132.524,171.392Q132.37900000000002,171.663,132.22199999999998,171.926Q132.064,172.189,131.893,172.445Q131.723,172.7,131.54000000000002,172.946Q131.357,173.19299999999998,131.163,173.43Q130.96800000000002,173.667,130.762,173.894Q130.55599999999998,174.122,130.339,174.339Q130.122,174.55599999999998,129.894,174.762Q129.667,174.96800000000002,129.43,175.163Q129.19299999999998,175.357,128.946,175.54Q128.7,175.723,128.445,175.893Q128.189,176.064,127.926,176.222Q127.663,176.379,127.392,176.524Q127.122,176.669,126.844,176.8Q126.567,176.931,126.284,177.048Q126,177.166,125.711,177.269Q125.422,177.373,125.129,177.462Q124.835,177.551,124.537,177.625Q124.24,177.7,123.9386,177.76Q123.6376,177.82,123.3341,177.865Q123.0306,177.91,122.7252,177.94Q122.4198,177.97,122.1133,177.985Q121.8068,178,121.5,178ZM134,165.5L134,208.5L121.5,208.5L121.5,196L232.5,196L232.5,208.5L220,208.5L220,132.5L232.5,132.5L232.5,145L121.5,145L121.5,132.5L134,132.5L134,165.5ZM109,165.5L109,132.5Q109,132.19310000000002,109.015,131.88670000000002Q109.0301,131.5802,109.0602,131.2748Q109.0902,130.9694,109.1352,130.6659Q109.1803,130.3623,109.2401,130.0614Q109.3,129.7604,109.3746,129.46269999999998Q109.4491,129.1651,109.5382,128.8714Q109.6273,128.5778,109.7307,128.2889Q109.834,128,109.9515,127.7164Q110.0689,127.4329,110.2001,127.1555Q110.3313,126.8782,110.4759,126.6075Q110.6206,126.3369,110.7784,126.0737Q110.9361,125.8105,111.1066,125.5554Q111.2771,125.3002,111.4599,125.0537Q111.6427,124.8073,111.8373,124.5701Q112.032,124.3329,112.2381,124.1055Q112.4441,123.8781,112.6611,123.6612Q112.8781,123.4442,113.1055,123.2381Q113.3328,123.032,113.57,122.8374Q113.8072,122.6427,114.0537,122.4599Q114.3002,122.2771,114.5553,122.1066Q114.8105,121.9361,115.0737,121.7784Q115.3369,121.6206,115.6075,121.476Q115.8781,121.3313,116.1555,121.2001Q116.4329,121.0689,116.7164,120.9515Q116.9999,120.8341,117.2888,120.7307Q117.5778,120.6273,117.8714,120.5382Q118.1651,120.4492,118.4627,120.3746Q118.7604,120.3,119.0613,120.2402Q119.3623,120.1803,119.6658,120.1353Q119.9694,120.0903,120.2748,120.0602Q120.5801,120.0301,120.8866,120.0151Q121.1931,120,121.5,120L232.5,120Q232.807,120,233.113,120.0151Q233.42,120.0301,233.725,120.0602Q234.031,120.0903,234.334,120.1353Q234.638,120.1803,234.939,120.2402Q235.24,120.3,235.537,120.3746Q235.835,120.4492,236.129,120.5382Q236.422,120.6273,236.711,120.7307Q237,120.8341,237.284,120.9515Q237.567,121.0689,237.844,121.2001Q238.122,121.3313,238.392,121.476Q238.663,121.6206,238.926,121.7784Q239.189,121.9361,239.445,122.1066Q239.7,122.2771,239.946,122.4599Q240.193,122.6427,240.43,122.8374Q240.667,123.032,240.894,123.2381Q241.122,123.4442,241.339,123.6612Q241.556,123.8781,241.762,124.1055Q241.968,124.3329,242.163,124.5701Q242.357,124.8073,242.54,125.0537Q242.723,125.3002,242.893,125.5554Q243.064,125.8105,243.222,126.0737Q243.379,126.3369,243.524,126.6075Q243.669,126.8782,243.8,127.1556Q243.931,127.4329,244.048,127.7164Q244.166,128,244.269,128.2889Q244.373,128.5778,244.462,128.8714Q244.551,129.1651,244.625,129.46269999999998Q244.7,129.7604,244.76,130.0614Q244.82,130.3623,244.865,130.6659Q244.91,130.9694,244.94,131.2748Q244.97,131.5802,244.985,131.88670000000002Q245,132.19310000000002,245,132.5L245,208.5Q245,208.807,244.985,209.113Q244.97,209.42,244.94,209.725Q244.91,210.031,244.865,210.334Q244.82,210.638,244.76,210.939Q244.7,211.24,244.625,211.537Q244.551,211.835,244.462,212.129Q244.373,212.422,244.269,212.711Q244.166,213,244.048,213.284Q243.931,213.567,243.8,213.844Q243.669,214.122,243.524,214.392Q243.379,214.663,243.222,214.926Q243.064,215.189,242.893,215.445Q242.723,215.7,242.54,215.946Q242.357,216.193,242.163,216.43Q241.968,216.667,241.762,216.894Q241.556,217.122,241.339,217.339Q241.122,217.556,240.894,217.762Q240.667,217.968,240.43,218.163Q240.193,218.357,239.946,218.54Q239.7,218.723,239.445,218.893Q239.189,219.064,238.926,219.222Q238.663,219.379,238.392,219.524Q238.122,219.669,237.844,219.8Q237.567,219.931,237.284,220.048Q237,220.166,236.711,220.269Q236.422,220.373,236.129,220.462Q235.835,220.551,235.537,220.625Q235.24,220.7,234.939,220.76Q234.638,220.82,234.334,220.865Q234.031,220.91,233.725,220.94Q233.42,220.97,233.113,220.985Q232.807,221,232.5,221L121.5,221Q121.1931,221,120.8866,220.985Q120.5801,220.97,120.2748,220.94Q119.9694,220.91,119.6658,220.865Q119.3623,220.82,119.0613,220.76Q118.7604,220.7,118.4627,220.625Q118.1651,220.551,117.8714,220.462Q117.5778,220.373,117.2888,220.269Q116.9999,220.166,116.7164,220.048Q116.4329,219.931,116.1555,219.8Q115.8781,219.669,115.6075,219.524Q115.3369,219.379,115.0737,219.222Q114.8105,219.064,114.5553,218.893Q114.3002,218.723,114.0537,218.54Q113.8072,218.357,113.57,218.163Q113.3328,217.968,113.1055,217.762Q112.8781,217.556,112.6611,217.339Q112.4441,217.122,112.2381,216.894Q112.032,216.667,111.8373,216.43Q111.6427,216.193,111.4599,215.946Q111.2771,215.7,111.1066,215.445Q110.9361,215.189,110.7784,214.926Q110.6206,214.663,110.476,214.392Q110.3313,214.122,110.2001,213.844Q110.0689,213.567,109.9515,213.284Q109.834,213,109.7307,212.711Q109.6273,212.422,109.5382,212.129Q109.4491,211.835,109.3746,211.537Q109.3,211.24,109.2401,210.939Q109.1803,210.638,109.1352,210.334Q109.0902,210.031,109.0602,209.725Q109.0301,209.42,109.015,209.113Q109,208.807,109,208.5L109,165.5Z" fill="#000000" fill-opacity="1"/></g></g></svg>