<svg xmlns="http://www.w3.org/2000/svg" xmlns:xlink="http://www.w3.org/1999/xlink" fill="none" version="1.1" width="512" height="512" viewBox="0 0 512 512"><defs><linearGradient x1="0" y1="1" x2="1" y2="0" id="master_svg0_26_96"><stop offset="0%" stop-color="#FFA880" stop-opacity="1"/><stop offset="100%" stop-color="#FF0C03" stop-opacity="1"/></linearGradient><filter id="master_svg1_26_89" filterUnits="objectBoundingBox" color-interpolation-filters="sRGB" x="-20" y="-16" width="164" height="162"><feFlood flood-opacity="0" result="BackgroundImageFix"/><feColorMatrix in="SourceAlpha" type="matrix" values="0 0 0 0 0 0 0 0 0 0 0 0 0 0 0 0 0 0 127 0"/><feOffset dy="4" dx="0"/><feGaussianBlur stdDeviation="5"/><feColorMatrix type="matrix" values="0 0 0 0 0 0 0 0 0 0 0 0 0 0 0 0 0 0 0.3019607961177826 0"/><feBlend mode="normal" in2="BackgroundImageFix" result="effect1_dropShadow"/><feBlend mode="normal" in="SourceGraphic" in2="effect1_dropShadow" result="shape"/></filter><linearGradient x1="0" y1="1" x2="1" y2="0" id="master_svg2_26_92"><stop offset="0%" stop-color="#FFA880" stop-opacity="1"/><stop offset="100.00005960464478%" stop-color="#FF0C03" stop-opacity="1"/></linearGradient></defs><g style="mix-blend-mode:passthrough"><g style="mix-blend-mode:passthrough"><path d="M304.5,48L181.9861,48L143.8461,48Q135.9937,48,130.7917,50.5321Q126.2038,52.765299999999996,122.9631,57.4976Q118.8824,63.4565,116.6138,73.3945Q114,84.84530000000001,114,100.7887L114,426.197Q114,437.831,116.337,445.961Q118.24080000000001,452.584,121.6076,456.488Q124.5706,459.924,129.2493,461.733Q135.1155,464,143.8462,464L370.071,464Q378.184,464,383.58,461.831Q387.865,460.108,390.622,456.783Q393.875,452.861,395.727,446.158Q398,437.935,398,426.197L398,284.378L398,131Q398,130.50900000000001,398.024,130.019Q398.048,129.52800000000002,398.096,129.04000000000002Q398.144,128.551,398.216,128.065Q398.288,127.5797,398.384,127.0982Q398.48,126.6166,398.599,126.1404Q398.719,125.6641,398.861,125.1943Q399.004,124.7245,399.169,124.2622Q399.335,123.7999,399.522,123.3463Q399.71,122.8927,399.92,122.4489Q400.13,122.0051,400.362,121.5721Q400.593,121.1391,400.845,120.7179Q401.098,120.2968,401.371,119.8886Q401.643,119.4804,401.936,119.086Q402.228,118.6917,402.54,118.3121Q402.851,117.9326,403.181,117.5688Q403.511,117.205,403.858,116.8579Q404.205,116.5107,404.569,116.181Q404.933,115.8513,405.312,115.5398Q405.692,115.2283,406.086,114.9358Q406.48,114.6434,406.889,114.3706Q407.297,114.0978,407.718,113.8454Q408.139,113.593,408.572,113.3616Q409.005,113.1301,409.449,112.9202Q409.893,112.7103,410.346,112.5224Q410.8,112.3345,411.262,112.1691Q411.724,112.0037,412.194,111.8612Q412.664,111.7187,413.14,111.5994Q413.617,111.4801,414.098,111.3843Q414.58,111.2885,415.065,111.2165Q415.551,111.1444,416.04,111.0963Q416.528,111.0482,417.019,111.0241Q417.509,111,418,111Q418.491,111,418.981,111.0241Q419.472,111.0482,419.96,111.0963Q420.449,111.1444,420.935,111.2165Q421.42,111.2885,421.902,111.3843Q422.383,111.4801,422.86,111.5994Q423.336,111.7187,423.806,111.8612Q424.276,112.0037,424.738,112.1691Q425.2,112.3345,425.654,112.5224Q426.107,112.7103,426.551,112.9202Q426.995,113.1301,427.428,113.3616Q427.861,113.593,428.282,113.8454Q428.703,114.0978,429.111,114.3706Q429.52,114.6434,429.914,114.9358Q430.308,115.2283,430.688,115.5398Q431.067,115.8513,431.431,116.181Q431.795,116.5107,432.142,116.8579Q432.489,117.205,432.819,117.5688Q433.149,117.9326,433.46,118.3121Q433.772,118.6917,434.064,119.086Q434.357,119.4804,434.629,119.8886Q434.902,120.2968,435.155,120.7179Q435.407,121.1391,435.638,121.5721Q435.87,122.0051,436.08,122.4489Q436.29,122.8927,436.478,123.3463Q436.665,123.7999,436.831,124.2622Q436.996,124.7245,437.139,125.1943Q437.281,125.6641,437.401,126.1404Q437.52,126.6166,437.616,127.0982Q437.711,127.5797,437.784,128.065Q437.856,128.551,437.904,129.04000000000002Q437.952,129.52800000000002,437.976,130.019Q438,130.50900000000001,438,131L438,284.378L438,426.197Q438,462.312,421.414,482.315Q412.188,493.441,398.5,498.944Q385.923,504,370.071,504L143.8462,504Q127.6537,504,114.8276,499.042Q100.81407,493.625,91.31543,482.611Q74,462.531,74,426.197L74,100.7887Q74,80.33789999999999,77.6169,64.4928Q81.5791,47.1351,89.95996,34.89682Q99.18081,21.4319,113.2852,14.5665Q126.7755,8,143.8461,8L181.9861,8L304.5,8Q304.991,8,305.481,8.0241Q305.972,8.048200000000001,306.46000000000004,8.0963Q306.949,8.144400000000001,307.435,8.2165Q307.91999999999996,8.288499999999999,308.402,8.3843Q308.88300000000004,8.4801,309.36,8.5994Q309.836,8.718699999999998,310.30600000000004,8.8612Q310.776,9.003699999999998,311.238,9.1691Q311.7,9.334499999999998,312.154,9.522400000000001Q312.60699999999997,9.7103,313.051,9.920200000000001Q313.495,10.130099999999999,313.928,10.3616Q314.361,10.593,314.78200000000004,10.845400000000001Q315.203,11.0978,315.611,11.3706Q316.02,11.6434,316.414,11.9359Q316.808,12.2283,317.188,12.5398Q317.567,12.8513,317.93100000000004,13.181Q318.29499999999996,13.5107,318.642,13.8579Q318.98900000000003,14.205,319.31899999999996,14.5688Q319.649,14.9326,319.96000000000004,15.3121Q320.272,15.6917,320.56399999999996,16.086Q320.85699999999997,16.4804,321.129,16.8886Q321.402,17.296799999999998,321.655,17.7179Q321.90700000000004,18.13907,322.13800000000003,18.57207Q322.37,19.00507,322.58000000000004,19.448900000000002Q322.78999999999996,19.89273,322.978,20.346330000000002Q323.16499999999996,20.79993,323.331,21.2622Q323.496,21.72448,323.639,22.19431Q323.781,22.66414,323.901,23.1404Q324.02,23.61666,324.116,24.09819Q324.211,24.57973,324.284,25.06539Q324.356,25.55105,324.404,26.03966Q324.452,26.52827,324.476,27.018647Q324.5,27.509028,324.5,28Q324.5,28.490972,324.476,28.981353Q324.452,29.47173,324.404,29.96034Q324.356,30.44895,324.284,30.93461Q324.211,31.42027,324.116,31.90181Q324.02,32.38334,323.901,32.8596Q323.781,33.33586,323.639,33.80569Q323.496,34.27552,323.331,34.7378Q323.16499999999996,35.20007,322.978,35.65367Q322.78999999999996,36.10727,322.58000000000004,36.5511Q322.37,36.99493,322.13800000000003,37.42793Q321.90700000000004,37.860929999999996,321.655,38.2821Q321.402,38.7032,321.129,39.1114Q320.85699999999997,39.5196,320.56399999999996,39.914Q320.272,40.3083,319.96000000000004,40.6879Q319.649,41.0674,319.31899999999996,41.431200000000004Q318.98900000000003,41.795,318.642,42.1421Q318.29499999999996,42.4893,317.93100000000004,42.819Q317.567,43.1487,317.188,43.4602Q316.808,43.771699999999996,316.414,44.064099999999996Q316.02,44.3566,315.611,44.629400000000004Q315.203,44.9022,314.78200000000004,45.1546Q314.361,45.407,313.928,45.638400000000004Q313.495,45.8699,313.051,46.0798Q312.60699999999997,46.289699999999996,312.154,46.477599999999995Q311.7,46.6655,311.238,46.8309Q310.776,46.996300000000005,310.30600000000004,47.1388Q309.836,47.2813,309.36,47.4006Q308.88300000000004,47.5199,308.402,47.615700000000004Q307.91999999999996,47.7115,307.435,47.783500000000004Q306.949,47.855599999999995,306.46000000000004,47.9037Q305.972,47.9518,305.481,47.975899999999996Q304.991,48,304.5,48Z" fill="url(#master_svg0_26_96)" fill-opacity="1"/></g><g style="mix-blend-mode:passthrough" filter="url(#master_svg1_26_89)"><path d="M194,232.7895L318,232.7895Q318.491,232.7895,318.981,232.8136Q319.472,232.83769999999998,319.96,232.88580000000002Q320.449,232.9339,320.935,233.0059Q321.42,233.078,321.902,233.1738Q322.38300000000004,233.2696,322.86,233.3889Q323.336,233.5081,323.80600000000004,233.6507Q324.276,233.7932,324.738,233.9586Q325.2,234.124,325.654,234.3119Q326.10699999999997,234.4998,326.551,234.7097Q326.995,234.9196,327.428,235.151Q327.861,235.3825,328.28200000000004,235.63490000000002Q328.703,235.8873,329.111,236.1601Q329.52,236.4328,329.914,236.7253Q330.308,237.0178,330.688,237.3293Q331.067,237.6407,331.43100000000004,237.97039999999998Q331.79499999999996,238.3002,332.142,238.6473Q332.48900000000003,238.99450000000002,332.81899999999996,239.35829999999999Q333.149,239.7221,333.46000000000004,240.1016Q333.772,240.4811,334.06399999999996,240.8755Q334.35699999999997,241.2698,334.629,241.6781Q334.902,242.0863,335.155,242.5074Q335.40700000000004,242.92849999999999,335.63800000000003,243.3615Q335.87,243.7945,336.08000000000004,244.2384Q336.28999999999996,244.6822,336.478,245.13580000000002Q336.66499999999996,245.5894,336.831,246.05169999999998Q336.996,246.514,337.139,246.9838Q337.281,247.4536,337.401,247.9299Q337.52,248.4061,337.616,248.8877Q337.711,249.3692,337.784,249.8549Q337.856,250.3405,337.904,250.82909999999998Q337.952,251.3177,337.976,251.8081Q338,252.2985,338,252.7895Q338,253.2804,337.976,253.7708Q337.952,254.2612,337.904,254.7498Q337.856,255.2384,337.784,255.7241Q337.711,256.2097,337.616,256.6913Q337.52,257.1728,337.401,257.6491Q337.281,258.1253,337.139,258.5952Q336.996,259.065,336.831,259.52729999999997Q336.66499999999996,259.9895,336.478,260.4431Q336.28999999999996,260.8967,336.08000000000004,261.3406Q335.87,261.7844,335.63800000000003,262.2174Q335.40700000000004,262.6504,335.155,263.0715Q334.902,263.4926,334.629,263.9009Q334.35699999999997,264.3091,334.06399999999996,264.7035Q333.772,265.0978,333.46000000000004,265.4773Q333.149,265.8569,332.81899999999996,266.2206Q332.48900000000003,266.5844,332.142,266.9316Q331.79499999999996,267.2788,331.43100000000004,267.6085Q331.067,267.9382,330.688,268.2497Q330.308,268.5611,329.914,268.85360000000003Q329.52,269.1461,329.111,269.4189Q328.703,269.6916,328.28200000000004,269.944Q327.861,270.1964,327.428,270.4279Q326.995,270.65930000000003,326.551,270.8692Q326.10699999999997,271.0792,325.654,271.2671Q325.2,271.4549,324.738,271.6203Q324.276,271.7857,323.80600000000004,271.9283Q323.336,272.0708,322.86,272.19010000000003Q322.38300000000004,272.3094,321.902,272.4052Q321.42,272.501,320.935,272.573Q320.449,272.645,319.96,272.6932Q319.472,272.7413,318.981,272.7654Q318.491,272.7895,318,272.7895L194,272.7895Q193.509028,272.7895,193.018647,272.7654Q192.52827,272.7413,192.03966,272.6932Q191.55105,272.645,191.06539,272.573Q190.57973,272.501,190.09819,272.4052Q189.61666,272.3094,189.1404,272.19010000000003Q188.66414,272.0708,188.19431,271.9283Q187.72448,271.7857,187.2622,271.6203Q186.79993,271.4549,186.34633,271.2671Q185.89273,271.0792,185.4489,270.8692Q185.00507,270.65930000000003,184.57207,270.4279Q184.13907,270.1964,183.7179,269.944Q183.2968,269.6916,182.8886,269.4189Q182.4804,269.1461,182.086,268.85360000000003Q181.6917,268.5611,181.3121,268.2497Q180.9326,267.9382,180.5688,267.6085Q180.205,267.2788,179.8579,266.9316Q179.51069999999999,266.5844,179.181,266.2206Q178.8513,265.8569,178.5398,265.4773Q178.2283,265.0978,177.9359,264.7034Q177.64339999999999,264.3091,177.3706,263.9009Q177.0978,263.4926,176.8454,263.0715Q176.593,262.6504,176.3616,262.2174Q176.1301,261.7844,175.9202,261.3406Q175.7103,260.8967,175.5224,260.4431Q175.3345,259.9895,175.16910000000001,259.52729999999997Q175.0037,259.065,174.8612,258.5952Q174.7187,258.1253,174.5994,257.6491Q174.4801,257.1728,174.3843,256.6913Q174.2885,256.2097,174.2165,255.7241Q174.1444,255.2384,174.09629999999999,254.7498Q174.0482,254.2612,174.0241,253.7708Q174,253.2804,174,252.7895Q174,252.2985,174.0241,251.8081Q174.0482,251.3177,174.09629999999999,250.82909999999998Q174.1444,250.3405,174.2165,249.8549Q174.2885,249.3692,174.3843,248.8877Q174.4801,248.4061,174.5994,247.9299Q174.7187,247.4536,174.8612,246.9838Q175.0037,246.514,175.16910000000001,246.05169999999998Q175.3345,245.5894,175.5224,245.13580000000002Q175.7103,244.6822,175.9202,244.2384Q176.1301,243.7945,176.3616,243.3615Q176.593,242.92849999999999,176.8454,242.5074Q177.0978,242.0863,177.3706,241.6781Q177.64339999999999,241.2698,177.9359,240.8755Q178.2283,240.4811,178.5398,240.1016Q178.8513,239.7221,179.181,239.35829999999999Q179.51069999999999,238.99450000000002,179.8579,238.6473Q180.205,238.3002,180.5688,237.97039999999998Q180.9326,237.6407,181.3121,237.3293Q181.6917,237.0178,182.086,236.7253Q182.4804,236.4328,182.8886,236.1601Q183.2968,235.8873,183.7179,235.63490000000002Q184.13907,235.3825,184.57207,235.151Q185.00507,234.9196,185.4489,234.7097Q185.89273,234.4998,186.34633,234.3119Q186.79993,234.124,187.2622,233.9586Q187.72448,233.7932,188.19431,233.6507Q188.66414,233.5081,189.1404,233.3889Q189.61666,233.2696,190.09819,233.1738Q190.57973,233.078,191.06539,233.0059Q191.55105,232.9339,192.03966,232.88580000000002Q192.52827,232.83769999999998,193.018647,232.8136Q193.509028,232.7895,194,232.7895ZM275.31489999999997,195L275.31489999999997,317Q275.31489999999997,317.491,275.2908,317.981Q275.2667,318.472,275.2186,318.96Q275.1705,319.449,275.09839999999997,319.935Q275.02639999999997,320.42,274.9306,320.902Q274.8348,321.383,274.7155,321.86Q274.5962,322.336,274.4537,322.806Q274.3112,323.276,274.1458,323.738Q273.98040000000003,324.2,273.7925,324.654Q273.6046,325.10699999999997,273.3947,325.551Q273.1848,325.995,272.9533,326.428Q272.7219,326.861,272.4695,327.28200000000004Q272.2171,327.703,271.9443,328.111Q271.6715,328.52,271.3791,328.914Q271.0866,329.308,270.7751,329.688Q270.4636,330.067,270.1339,330.43100000000004Q269.8042,330.79499999999996,269.457,331.142Q269.1099,331.48900000000003,268.7461,331.81899999999996Q268.3823,332.149,268.0028,332.46000000000004Q267.6232,332.772,267.2289,333.06399999999996Q266.8345,333.35699999999997,266.42629999999997,333.629Q266.0181,333.902,265.597,334.155Q265.1758,334.40700000000004,264.7428,334.63800000000003Q264.3098,334.87,263.866,335.08000000000004Q263.4222,335.28999999999996,262.9686,335.478Q262.515,335.66499999999996,262.0527,335.831Q261.5904,335.996,261.12059999999997,336.139Q260.6508,336.281,260.17449999999997,336.401Q259.6982,336.52,259.2167,336.616Q258.7352,336.711,258.2495,336.784Q257.7639,336.856,257.2753,336.904Q256.7866,336.952,256.2963,336.976Q255.8059,337,255.3149,337Q254.8239,337,254.3336,336.976Q253.8432,336.952,253.3546,336.904Q252.86599999999999,336.856,252.3803,336.784Q251.8946,336.711,251.4131,336.616Q250.9316,336.52,250.4553,336.401Q249.97899999999998,336.281,249.5092,336.139Q249.0394,335.996,248.5771,335.831Q248.1148,335.66499999999996,247.6612,335.478Q247.2076,335.28999999999996,246.7638,335.08000000000004Q246.32,334.87,245.887,334.63800000000003Q245.454,334.40700000000004,245.0328,334.155Q244.61169999999998,333.902,244.2035,333.629Q243.7953,333.35699999999997,243.4009,333.06399999999996Q243.0066,332.772,242.627,332.46000000000004Q242.2475,332.149,241.8837,331.81899999999996Q241.5199,331.48900000000003,241.1728,331.142Q240.8256,330.79499999999996,240.4959,330.43100000000004Q240.1662,330.067,239.8547,329.688Q239.5432,329.308,239.2508,328.914Q238.9583,328.52,238.6855,328.111Q238.4127,327.703,238.1603,327.28200000000004Q237.90789999999998,326.861,237.6765,326.428Q237.445,325.995,237.2351,325.551Q237.02519999999998,325.10699999999997,236.8373,324.654Q236.6494,324.2,236.484,323.738Q236.3186,323.276,236.1761,322.806Q236.0336,322.336,235.9143,321.86Q235.79500000000002,321.383,235.6992,320.902Q235.6034,320.42,235.5314,319.935Q235.45929999999998,319.449,235.4112,318.96Q235.3631,318.472,235.339,317.981Q235.3149,317.491,235.3149,317L235.3149,195Q235.3149,194.509028,235.339,194.018647Q235.3631,193.52827,235.4112,193.03966Q235.45929999999998,192.55105,235.5314,192.06539Q235.6034,191.57973,235.6992,191.09819Q235.79500000000002,190.61666,235.9143,190.1404Q236.0336,189.66414,236.1761,189.19431Q236.3186,188.72448,236.484,188.2622Q236.6494,187.79993,236.8373,187.34633Q237.02519999999998,186.89273,237.2351,186.4489Q237.445,186.00507,237.6765,185.57207Q237.90789999999998,185.13907,238.1603,184.7179Q238.4127,184.2968,238.6855,183.8886Q238.9583,183.4804,239.2508,183.086Q239.5432,182.6917,239.8547,182.3121Q240.1662,181.9326,240.4959,181.5688Q240.8256,181.205,241.1728,180.8579Q241.5199,180.51069999999999,241.8837,180.181Q242.2475,179.8513,242.627,179.5398Q243.0066,179.2283,243.4009,178.9359Q243.7953,178.64339999999999,244.2035,178.3706Q244.61169999999998,178.0978,245.0328,177.8454Q245.454,177.593,245.887,177.3616Q246.32,177.1301,246.7638,176.9202Q247.2076,176.7103,247.6612,176.5224Q248.1148,176.3345,248.5771,176.16910000000001Q249.0394,176.0037,249.5092,175.8612Q249.97899999999998,175.7187,250.4553,175.5994Q250.9316,175.4801,251.4131,175.3843Q251.8946,175.2885,252.3803,175.2165Q252.86599999999999,175.1444,253.3546,175.09629999999999Q253.8432,175.0482,254.3336,175.0241Q254.8239,175,255.3149,175Q255.8059,175,256.2963,175.0241Q256.7866,175.0482,257.2753,175.09629999999999Q257.7639,175.1444,258.2495,175.2165Q258.7352,175.2885,259.2167,175.3843Q259.6982,175.4801,260.17449999999997,175.5994Q260.6508,175.7187,261.12059999999997,175.8612Q261.5904,176.0037,262.0527,176.16910000000001Q262.515,176.3345,262.9686,176.5224Q263.4222,176.7103,263.866,176.9202Q264.3098,177.1301,264.7428,177.3616Q265.1758,177.593,265.597,177.8454Q266.0181,178.0978,266.42629999999997,178.3706Q266.8345,178.64339999999999,267.2289,178.9359Q267.6232,179.2283,268.0028,179.5398Q268.3823,179.8513,268.7461,180.181Q269.1099,180.51069999999999,269.457,180.8579Q269.8042,181.205,270.1339,181.5688Q270.4636,181.9326,270.7751,182.3121Q271.0866,182.6917,271.379,183.086Q271.6715,183.4804,271.9443,183.8886Q272.2171,184.2968,272.4695,184.7179Q272.7219,185.13907,272.9533,185.57207Q273.1848,186.00507,273.3947,186.4489Q273.6046,186.89273,273.7925,187.34633Q273.98040000000003,187.79993,274.1458,188.2622Q274.3112,188.72448,274.4537,189.19431Q274.5962,189.66414,274.7155,190.1404Q274.8348,190.61666,274.9306,191.09819Q275.02639999999997,191.57973,275.09839999999997,192.06539Q275.1705,192.55105,275.2186,193.03966Q275.2667,193.52827,275.2908,194.018647Q275.31489999999997,194.509028,275.31489999999997,195Z" fill="url(#master_svg2_26_92)" fill-opacity="1"/></g></g></svg>