<svg xmlns="http://www.w3.org/2000/svg" xmlns:xlink="http://www.w3.org/1999/xlink" fill="none" version="1.1" width="512" height="520" viewBox="0 0 512 520"><defs><linearGradient x1="0" y1="1" x2="1" y2="0" id="master_svg0_26_96"><stop offset="0%" stop-color="#FFA880" stop-opacity="1"/><stop offset="100%" stop-color="#FF0C03" stop-opacity="1"/></linearGradient><filter id="master_svg1_26_000" filterUnits="objectBoundingBox" color-interpolation-filters="sRGB" x="-20" y="-16" width="204" height="269"><feFlood flood-opacity="0" result="BackgroundImageFix"/><feColorMatrix in="SourceAlpha" type="matrix" values="0 0 0 0 0 0 0 0 0 0 0 0 0 0 0 0 0 0 127 0"/><feOffset dy="4" dx="0"/><feGaussianBlur stdDeviation="5"/><feColorMatrix type="matrix" values="0 0 0 0 0 0 0 0 0 0 0 0 0 0 0 0 0 0 0.3019607961177826 0"/><feBlend mode="normal" in2="BackgroundImageFix" result="effect1_dropShadow"/><feBlend mode="normal" in="SourceGraphic" in2="effect1_dropShadow" result="shape"/></filter><linearGradient x1="1" y1="0" x2="0" y2="1" id="master_svg2_26_006"><stop offset="0%" stop-color="#FF2323" stop-opacity="1"/><stop offset="100%" stop-color="#FFA27B" stop-opacity="1"/></linearGradient></defs><g style="mix-blend-mode:passthrough"><g style="mix-blend-mode:passthrough"><path d="M304.5,56L143.8461,56Q135.9937,56,130.7917,58.5321Q126.2038,60.765299999999996,122.9631,65.4976Q118.8824,71.4565,116.6138,81.3945Q114,92.84530000000001,114,108.7887L114,434.197Q114,445.83,116.337,453.961Q118.2409,460.584,121.6076,464.488Q124.5705,467.924,129.2493,469.732Q135.1155,472,143.8462,472L370.071,472Q378.184,472,383.58,469.831Q387.865,468.108,390.622,464.783Q393.875,460.861,395.727,454.158Q398,445.935,398,434.197L398,139Q398,138.50900000000001,398.024,138.019Q398.048,137.52800000000002,398.096,137.04000000000002Q398.144,136.551,398.216,136.065Q398.288,135.5797,398.384,135.09820000000002Q398.48,134.6166,398.599,134.1404Q398.719,133.66410000000002,398.861,133.1943Q399.004,132.7245,399.169,132.2622Q399.335,131.79989999999998,399.522,131.34629999999999Q399.71,130.8927,399.92,130.44889999999998Q400.13,130.0051,400.362,129.5721Q400.593,129.13909999999998,400.845,128.7179Q401.098,128.29680000000002,401.371,127.8886Q401.643,127.4804,401.936,127.086Q402.228,126.6917,402.54,126.3121Q402.851,125.9326,403.181,125.5688Q403.511,125.205,403.858,124.8579Q404.205,124.5107,404.569,124.181Q404.933,123.8513,405.312,123.5398Q405.692,123.2283,406.086,122.9358Q406.48,122.6434,406.889,122.3706Q407.297,122.0978,407.718,121.8454Q408.139,121.593,408.572,121.3616Q409.005,121.1301,409.449,120.9202Q409.893,120.7103,410.346,120.5224Q410.8,120.3345,411.262,120.1691Q411.724,120.0037,412.194,119.8612Q412.664,119.7187,413.14,119.5994Q413.617,119.4801,414.098,119.3843Q414.58,119.2885,415.065,119.2165Q415.551,119.1444,416.04,119.0963Q416.528,119.0482,417.019,119.0241Q417.509,119,418,119Q418.491,119,418.981,119.0241Q419.472,119.0482,419.96,119.0963Q420.449,119.1444,420.935,119.2165Q421.42,119.2885,421.902,119.3843Q422.383,119.4801,422.86,119.5994Q423.336,119.7187,423.806,119.8612Q424.276,120.0037,424.738,120.1691Q425.2,120.3345,425.654,120.5224Q426.107,120.7103,426.551,120.9202Q426.995,121.1301,427.428,121.3616Q427.861,121.593,428.282,121.8454Q428.703,122.0978,429.111,122.3706Q429.52,122.6434,429.914,122.9358Q430.308,123.2283,430.688,123.5398Q431.067,123.8513,431.431,124.181Q431.795,124.5107,432.142,124.8579Q432.489,125.205,432.819,125.5688Q433.149,125.9326,433.46,126.3121Q433.772,126.6917,434.064,127.086Q434.357,127.4804,434.629,127.8886Q434.902,128.29680000000002,435.155,128.7179Q435.407,129.13909999999998,435.638,129.5721Q435.87,130.0051,436.08,130.44889999999998Q436.29,130.8927,436.478,131.34629999999999Q436.665,131.79989999999998,436.831,132.2622Q436.996,132.7245,437.139,133.1943Q437.281,133.66410000000002,437.401,134.1404Q437.52,134.6166,437.616,135.09820000000002Q437.711,135.5797,437.784,136.065Q437.856,136.551,437.904,137.04000000000002Q437.952,137.52800000000002,437.976,138.019Q438,138.50900000000001,438,139L438,434.197Q438,470.312,421.414,490.315Q412.188,501.441,398.5,506.944Q385.923,512,370.071,512L143.8462,512Q127.6537,512,114.8276,507.042Q100.81403,501.625,91.31543,490.611Q74,470.531,74,434.197L74,108.7887Q74,88.33789999999999,77.6169,72.4928Q81.5791,55.1351,89.95996,42.89682Q99.18081,29.4319,113.2852,22.566499999999998Q126.7755,16,143.8461,16L304.5,16Q304.991,16,305.481,16.0241Q305.972,16.0482,306.46000000000004,16.0963Q306.949,16.1444,307.435,16.2165Q307.91999999999996,16.2885,308.402,16.3843Q308.88300000000004,16.4801,309.36,16.5994Q309.836,16.7187,310.30600000000004,16.8612Q310.776,17.0037,311.238,17.1691Q311.7,17.3345,312.154,17.5224Q312.60699999999997,17.7103,313.051,17.9202Q313.495,18.1301,313.928,18.3616Q314.361,18.593,314.78200000000004,18.8454Q315.203,19.0978,315.611,19.3706Q316.02,19.6434,316.414,19.9359Q316.808,20.2283,317.188,20.5398Q317.567,20.851300000000002,317.93100000000004,21.180999999999997Q318.29499999999996,21.5107,318.642,21.8579Q318.98900000000003,22.205,319.31899999999996,22.5688Q319.649,22.9326,319.96000000000004,23.3121Q320.272,23.6917,320.56399999999996,24.086Q320.85699999999997,24.4804,321.129,24.8886Q321.402,25.296799999999998,321.655,25.7179Q321.90700000000004,26.13907,322.13800000000003,26.57207Q322.37,27.00507,322.58000000000004,27.448900000000002Q322.78999999999996,27.89273,322.978,28.346330000000002Q323.16499999999996,28.79993,323.331,29.2622Q323.496,29.72448,323.639,30.19431Q323.781,30.66414,323.901,31.1404Q324.02,31.61666,324.116,32.09819Q324.211,32.57973,324.284,33.06539Q324.356,33.551050000000004,324.404,34.03966Q324.452,34.52827,324.476,35.018647Q324.5,35.509028,324.5,36Q324.5,36.490972,324.476,36.981353Q324.452,37.47173,324.404,37.96034Q324.356,38.448949999999996,324.284,38.93461Q324.211,39.42027,324.116,39.90181Q324.02,40.38334,323.901,40.8596Q323.781,41.33586,323.639,41.80569Q323.496,42.27552,323.331,42.7378Q323.16499999999996,43.20007,322.978,43.65367Q322.78999999999996,44.10727,322.58000000000004,44.5511Q322.37,44.99493,322.13800000000003,45.42793Q321.90700000000004,45.860929999999996,321.655,46.2821Q321.402,46.7032,321.129,47.1114Q320.85699999999997,47.5196,320.56399999999996,47.914Q320.272,48.3083,319.96000000000004,48.6879Q319.649,49.0674,319.31899999999996,49.431200000000004Q318.98900000000003,49.795,318.642,50.1421Q318.29499999999996,50.4893,317.93100000000004,50.819Q317.567,51.1487,317.188,51.4602Q316.808,51.771699999999996,316.414,52.064099999999996Q316.02,52.3566,315.611,52.629400000000004Q315.203,52.9022,314.78200000000004,53.1546Q314.361,53.407,313.928,53.638400000000004Q313.495,53.8699,313.051,54.0798Q312.60699999999997,54.289699999999996,312.154,54.477599999999995Q311.7,54.6655,311.238,54.8309Q310.776,54.996300000000005,310.30600000000004,55.1388Q309.836,55.2813,309.36,55.4006Q308.88300000000004,55.5199,308.402,55.615700000000004Q307.91999999999996,55.7115,307.435,55.783500000000004Q306.949,55.855599999999995,306.46000000000004,55.9037Q305.972,55.9518,305.481,55.975899999999996Q304.991,56,304.5,56Z" fill="url(#master_svg0_26_96)" fill-opacity="1"/></g><g style="mix-blend-mode:passthrough" filter="url(#master_svg1_26_000)"><path d="M358,36L388,64L418,92L418,36L358,36Z" fill="#FF2323" fill-opacity="1"/><path d="M235.2225,258.115Q280.9313,133.4546,374.621,49.134100000000004Q374.986,48.8057,375.366,48.4955Q375.747,48.1854,376.142,47.8943Q376.538,47.6032,376.947,47.3319Q377.356,47.0605,377.778,46.8096Q378.2,46.5587,378.634,46.3287Q379.068,46.0988,379.512,45.89043Q379.957,45.682069999999996,380.411,45.49577Q380.865,45.30947,381.328,45.14568Q381.791,44.98189,382.26099999999997,44.84101Q382.73199999999997,44.70014,383.20799999999997,44.58251Q383.685,44.46488,384.16700000000003,44.370779999999996Q384.649,44.27668,385.135,44.20633Q385.62,44.13599,386.10900000000004,44.08957Q386.598,44.04316,387.08799999999997,44.02078Q387.579,43.99841,388.07,44.00012Q388.56100000000004,44.00184,389.051,44.02764Q389.541,44.05345,390.03,44.10328Q390.51800000000003,44.15311,391.004,44.22685Q391.48900000000003,44.30059,391.97,44.39805Q392.452,44.49552,392.927,44.616479999999996Q393.403,44.73744,393.873,44.8816Q394.342,45.02577,394.804,45.19279Q395.265,45.359809999999996,395.71799999999996,45.549279999999996Q396.171,45.738749999999996,396.61400000000003,45.95022Q397.057,46.161699999999996,397.49,46.3946Q397.922,46.6276,398.342,46.8815Q398.762,47.135400000000004,399.169,47.4095Q399.577,47.6837,399.97,47.9776Q400.363,48.2714,400.74199999999996,48.584199999999996Q401.12,48.897,401.483,49.228Q401.846,49.559,402.19100000000003,49.9074Q402.53700000000003,50.2558,402.866,50.6207Q403.19399999999996,50.9856,403.504,51.3663Q403.815,51.7469,404.106,52.1422Q404.397,52.5376,404.668,52.946799999999996Q404.93899999999996,53.356,405.19,53.778Q405.44100000000003,54.2,405.671,54.6338Q405.901,55.0676,406.11,55.5122Q406.318,55.9567,406.504,56.411Q406.69,56.8652,406.85400000000004,57.3281Q407.01800000000003,57.7909,407.159,58.2612Q407.3,58.7316,407.41700000000003,59.208200000000005Q407.53499999999997,59.6849,407.629,60.166799999999995Q407.723,60.648700000000005,407.794,61.1346Q407.86400000000003,61.6205,407.90999999999997,62.1092Q407.957,62.598,407.97900000000004,63.088499999999996Q408.002,63.578900000000004,408,64.0699Q407.998,64.5609,407.972,65.0512Q407.947,65.5415,407.897,66.0299Q407.847,66.5183,407.773,67.0037Q407.699,67.48910000000001,407.602,67.9704Q407.504,68.45150000000001,407.38300000000004,68.9274Q407.26300000000003,69.4032,407.118,69.8726Q406.974,70.34190000000001,406.807,70.8036Q406.64,71.2653,406.451,71.7182Q406.26099999999997,72.1711,406.05,72.6142Q405.83799999999997,73.0573,405.605,73.48949999999999Q405.372,73.9217,405.118,74.342Q404.865,74.7622,404.59000000000003,75.1695Q404.31600000000003,75.5767,404.022,75.9701Q403.72900000000004,76.3634,403.416,76.7418Q403.103,77.1203,402.772,77.4829Q402.44100000000003,77.8455,402.09299999999996,78.19149999999999Q401.744,78.53739999999999,401.379,78.86590000000001Q315.0688,156.54500000000002,272.7775,271.885Q272.6085,272.346,272.4171,272.798Q272.2256,273.25,272.0123,273.692Q271.7989,274.135,271.564,274.56600000000003Q271.3292,274.997,271.0735,275.416Q270.8178,275.83500000000004,270.5418,276.241Q270.2659,276.647,269.9703,277.039Q269.6748,277.43100000000004,269.3604,277.80899999999997Q269.0459,278.18600000000004,268.7134,278.547Q268.3808,278.908,268.0309,279.252Q267.681,279.597,267.3147,279.924Q266.9483,280.251,266.5664,280.55899999999997Q266.1844,280.868,265.7878,281.15700000000004Q265.3912,281.446,264.9808,281.716Q264.5705,281.985,264.1474,282.235Q263.72428,282.48400000000004,263.28948,282.712Q262.85468,282.94,262.40922,283.14599999999996Q261.96376,283.353,261.5087,283.53700000000003Q261.05364,283.721,260.59009,283.88300000000004Q260.12653,284.04499999999996,259.6556,284.18399999999997Q259.18467,284.322,258.70749,284.438Q258.23031,284.554,257.74804,284.64599999999996Q257.26576,284.738,256.77956,284.80600000000004Q256.29335,284.874,255.80438,284.918Q255.31540999999999,284.96299999999997,254.824852,284.983Q254.334297,285.003,253.84334,284.999Q253.352383,284.996,252.86221,284.96799999999996Q252.37203,284.94,251.88381,284.88800000000003Q251.3956,284.836,250.91052,284.76Q250.42544,284.68399999999997,249.94466,284.58500000000004Q249.46389,284.485,248.98858,284.36199999999997Q248.51327,284.23900000000003,248.04457,284.09299999999996Q247.57587,283.947,247.11491,283.778Q246.65394,283.60900000000004,246.20183,283.41700000000003Q245.74972,283.226,245.30754,283.012Q244.86537,282.799,244.43419,282.56399999999996Q244.00302,282.329,243.5839,282.073Q243.1648,281.818,242.7587,281.54200000000003Q242.3526,281.26599999999996,241.9605,280.97Q241.5685,280.675,241.1914,280.36Q240.8144,280.046,240.4532,279.71299999999997Q240.092,279.381,239.7475,279.031Q239.4031,278.68100000000004,239.0762,278.315Q238.7494,277.948,238.4409,277.56600000000003Q238.1324,277.18399999999997,237.843,276.788Q237.5536,276.39099999999996,237.2841,275.981Q237.0145,275.57,236.7654,275.147Q236.5163,274.724,236.2883,274.289Q236.0602,273.855,235.8538,273.409Q235.6474,272.964,235.463,272.509Q235.27870000000001,272.054,235.1169,271.59000000000003Q234.95510000000002,271.127,234.8163,270.656Q234.6775,270.185,234.5619,269.707Q234.4463,269.23,234.3543,268.748Q234.2623,268.26599999999996,234.1941,267.78Q234.1259,267.293,234.0816,266.804Q234.0373,266.315,234.017,265.825Q233.9968,265.334,234.0006,264.84299999999996Q234.0045,264.352,234.0324,263.86199999999997Q234.0603,263.372,234.1123,262.884Q234.1642,262.39599999999996,234.2401,261.911Q234.3159,261.425,234.4155,260.945Q234.515,260.464,234.638,259.98900000000003Q234.7611,259.51300000000003,234.9073,259.04499999999996Q235.05349999999999,258.576,235.2225,258.115ZM374.354,78.6211L344.35360000000003,50.6211Q343.99469999999997,50.2861,343.6526,49.9339Q343.3106,49.5817,342.9862,49.2131Q342.6619,48.8446,342.356,48.460499999999996Q342.0501,48.076499999999996,341.7634,47.6779Q341.4767,47.2793,341.2099,46.8671Q340.9432,46.455,340.6969,46.0302Q340.4507,45.60543,340.2256,45.16909Q340.0005,44.73276,339.7971,44.2859Q339.5937,43.83905,339.4125,43.38275Q339.2312,42.92645,339.07259999999997,42.46181Q338.914,41.99717,338.77840000000003,41.52531Q338.6427,41.05344,338.5304,40.57549Q338.4181,40.09754,338.3293,39.61465Q338.2406,39.13176,338.1757,38.6451Q338.1107,38.15844,338.0698,37.66919Q338.0288,37.17993,338.01189999999997,36.689245Q337.99490000000003,36.198564,338.0021,35.707645Q338.0093,35.216725,338.0406,34.72675Q338.0718,34.23677,338.1271,33.74892Q338.1823,33.261070000000004,338.2615,32.77651Q338.3406,32.29196,338.4434,31.81187Q338.5462,31.331789999999998,338.6725,30.85732Q338.7987,30.38286,338.9481,29.91516Q339.09749999999997,29.44746,339.26959999999997,28.987659999999998Q339.44169999999997,28.52785,339.6363,28.07705Q339.8307,27.62624,340.0471,27.18553Q340.2635,26.74481,340.5013,26.31524Q340.73900000000003,25.8857,340.9975,25.4683Q341.2561,25.0509,341.5348,24.6467Q341.8135,24.2425,342.1117,23.8525Q342.4099,23.462400000000002,342.7269,23.0875Q343.0439,22.712600000000002,343.3789,22.3536Q343.72860000000003,21.9789,344.097,21.622700000000002Q344.4655,21.2664,344.8517,20.9294Q345.23789999999997,20.5925,345.6409,20.2758Q346.04380000000003,19.959,346.4625,19.6634Q346.8811,19.3677,347.3144,19.0939Q347.74760000000003,18.82,348.1943,18.5688Q348.641,18.3175,349.1,18.0894Q349.55899999999997,17.8613,350.029,17.6571Q350.4991,17.4528,350.979,17.2729Q351.45889999999997,17.0929,351.9474,16.9378Q352.4359,16.7827,352.9317,16.6528Q353.4275,16.523,353.9293,16.4186Q354.431,16.3143,354.938,16.2358Q355.444,16.1574,355.954,16.1049Q356.464,16.0525,356.976,16.0263Q357.48699999999997,16,358,16L418,16Q418.491,16,418.981,16.0241Q419.472,16.0482,419.96000000000004,16.0963Q420.449,16.1444,420.935,16.2165Q421.41999999999996,16.2885,421.902,16.3843Q422.38300000000004,16.4801,422.86,16.5994Q423.336,16.7187,423.80600000000004,16.8612Q424.276,17.0037,424.738,17.1691Q425.2,17.3345,425.654,17.5224Q426.10699999999997,17.7103,426.551,17.9202Q426.995,18.1301,427.428,18.3616Q427.861,18.593,428.28200000000004,18.8454Q428.703,19.0978,429.111,19.3706Q429.52,19.6434,429.914,19.9359Q430.308,20.2283,430.688,20.5398Q431.067,20.851300000000002,431.43100000000004,21.180999999999997Q431.79499999999996,21.5107,432.142,21.8579Q432.48900000000003,22.205,432.81899999999996,22.5688Q433.149,22.9326,433.46000000000004,23.3121Q433.772,23.6917,434.06399999999996,24.086Q434.35699999999997,24.4804,434.629,24.8886Q434.902,25.296799999999998,435.155,25.7179Q435.40700000000004,26.13907,435.63800000000003,26.57207Q435.87,27.00507,436.08000000000004,27.448900000000002Q436.28999999999996,27.89273,436.478,28.346330000000002Q436.66499999999996,28.79993,436.831,29.2622Q436.996,29.72448,437.139,30.19431Q437.281,30.66414,437.401,31.1404Q437.52,31.61666,437.616,32.09819Q437.711,32.57973,437.784,33.06539Q437.856,33.551050000000004,437.904,34.03966Q437.952,34.52827,437.976,35.018647Q438,35.509028,438,36L438,92Q438,92.491,437.976,92.9813Q437.952,93.4717,437.904,93.96029999999999Q437.856,94.44890000000001,437.784,94.9346Q437.711,95.4203,437.616,95.90180000000001Q437.52,96.38329999999999,437.401,96.8596Q437.281,97.3358,437.139,97.8057Q436.996,98.2755,436.831,98.7378Q436.66499999999996,99.20009999999999,436.478,99.6537Q436.28999999999996,100.1073,436.08000000000004,100.5511Q435.87,100.9949,435.63800000000003,101.4279Q435.40700000000004,101.8609,435.155,102.282Q434.902,102.7032,434.629,103.1114Q434.35699999999997,103.5196,434.06399999999996,103.914Q433.772,104.3083,433.46000000000004,104.6879Q433.149,105.0674,432.81899999999996,105.4312Q432.48900000000003,105.795,432.142,106.1421Q431.79499999999996,106.4893,431.43100000000004,106.819Q431.067,107.1487,430.688,107.4602Q430.308,107.7717,429.914,108.0641Q429.52,108.3566,429.111,108.6294Q428.703,108.9022,428.28200000000004,109.1546Q427.861,109.407,427.428,109.6384Q426.995,109.8699,426.551,110.0798Q426.10699999999997,110.2897,425.654,110.4776Q425.2,110.6655,424.738,110.8309Q424.276,110.9963,423.80600000000004,111.1388Q423.336,111.2813,422.86,111.4006Q422.38300000000004,111.5199,421.902,111.6157Q421.41999999999996,111.7115,420.935,111.7835Q420.449,111.8556,419.96000000000004,111.9037Q419.472,111.9518,418.981,111.9759Q418.491,112,418,112Q417.06100000000004,112,416.125,111.9119Q415.19,111.8239,414.267,111.6486Q413.345,111.4733,412.442,111.2122Q411.53999999999996,110.9512,410.666,110.6068Q409.79200000000003,110.2623,408.954,109.8374Q408.116,109.4126,407.322,108.9111Q406.528,108.4095,405.784,107.8358Q405.03999999999996,107.262,404.35400000000004,106.6211L374.354,78.6211ZM401.64599999999996,49.3789L431.64599999999996,77.3789L418,92L398,92L398,36L418,36L418,56L358,56L358,36L371.646,21.3789L401.64599999999996,49.3789Z" fill="url(#master_svg2_26_006)" fill-opacity="1"/></g></g></svg>