<svg xmlns="http://www.w3.org/2000/svg" xmlns:xlink="http://www.w3.org/1999/xlink" fill="none" version="1.1" width="512" height="512" viewBox="0 0 512 512"><defs><clipPath id="master_svg0_26_40"><rect x="0" y="0" width="512" height="512" rx="0"/></clipPath><linearGradient x1="1" y1="0" x2="0" y2="1" id="master_svg1_26_53"><stop offset="0%" stop-color="#0831FF" stop-opacity="1"/><stop offset="99.99996423721313%" stop-color="#37B9FF" stop-opacity="1"/></linearGradient><filter id="master_svg2_26_46" filterUnits="objectBoundingBox" color-interpolation-filters="sRGB" x="-20" y="-16" width="68.2254810333252" height="68.70748710632324"><feFlood flood-opacity="0" result="BackgroundImageFix"/><feColorMatrix in="SourceAlpha" type="matrix" values="0 0 0 0 0 0 0 0 0 0 0 0 0 0 0 0 0 0 127 0"/><feOffset dy="4" dx="0"/><feGaussianBlur stdDeviation="5"/><feColorMatrix type="matrix" values="0 0 0 0 0 0 0 0 0 0 0 0 0 0 0 0 0 0 0.3019607961177826 0"/><feBlend mode="normal" in2="BackgroundImageFix" result="effect1_dropShadow"/><feBlend mode="normal" in="SourceGraphic" in2="effect1_dropShadow" result="shape"/></filter><filter id="master_svg3_26_42" filterUnits="objectBoundingBox" color-interpolation-filters="sRGB" x="-20" y="-16" width="86.68798828125" height="127.9652328491211"><feFlood flood-opacity="0" result="BackgroundImageFix"/><feColorMatrix in="SourceAlpha" type="matrix" values="0 0 0 0 0 0 0 0 0 0 0 0 0 0 0 0 0 0 127 0"/><feOffset dy="4" dx="0"/><feGaussianBlur stdDeviation="5"/><feColorMatrix type="matrix" values="0 0 0 0 0 0 0 0 0 0 0 0 0 0 0 0 0 0 0.3019607961177826 0"/><feBlend mode="normal" in2="BackgroundImageFix" result="effect1_dropShadow"/><feBlend mode="normal" in="SourceGraphic" in2="effect1_dropShadow" result="shape"/></filter><linearGradient x1="1" y1="0" x2="0" y2="1" id="master_svg4_26_45"><stop offset="0%" stop-color="#1351FF" stop-opacity="1"/><stop offset="99.99993443489075%" stop-color="#2178FF" stop-opacity="1"/></linearGradient></defs><g style="mix-blend-mode:passthrough" clip-path="url(#master_svg0_26_40)"><g style="mix-blend-mode:passthrough"><path d="M264.346,276.43899999999996L109.1421,431.642Q108.795,431.989,108.4312,432.319Q108.06739999999999,432.649,107.6879,432.96Q107.3083,433.272,106.914,433.564Q106.5196,433.857,106.1114,434.129Q105.7032,434.402,105.2821,434.655Q104.86093,434.907,104.42793,435.138Q103.99493,435.37,103.5511,435.58Q103.10727,435.79,102.65367,435.978Q102.20007,436.165,101.73779,436.331Q101.27552,436.496,100.80569,436.639Q100.33586,436.781,99.8596,436.901Q99.38334,437.02,98.9018,437.116Q98.42026,437.211,97.93461,437.284Q97.44895,437.356,96.96034,437.404Q96.47173,437.452,95.981351,437.476Q95.49097,437.5,94.99999720675,437.5Q94.509025,437.5,94.018644,437.476Q93.52826,437.452,93.03965,437.404Q92.55105,437.356,92.06539,437.284Q91.57973,437.211,91.09819,437.116Q90.61664999999999,437.02,90.14039,436.901Q89.66414,436.781,89.1943,436.639Q88.72447,436.496,88.2622,436.331Q87.79993,436.165,87.34633,435.978Q86.89273,435.79,86.4489,435.58Q86.00506,435.37,85.57206,435.138Q85.13906,434.907,84.7179,434.655Q84.2968,434.402,83.8886,434.129Q83.4804,433.857,83.086,433.564Q82.6917,433.272,82.3121,432.96Q81.93260000000001,432.649,81.5688,432.319Q81.205,431.989,80.8579,431.642Q80.5107,431.295,80.181,430.931Q79.8513,430.567,79.5398,430.188Q79.2283,429.808,78.9358,429.414Q78.6434,429.02,78.3706,428.611Q78.0978,428.203,77.8454,427.782Q77.593,427.361,77.3616,426.928Q77.1301,426.495,76.9202,426.051Q76.7103,425.607,76.5224,425.154Q76.33449999999999,424.7,76.1691,424.238Q76.0037,423.775,75.8612,423.306Q75.7187,422.836,75.5994,422.36Q75.4801,421.883,75.3843,421.402Q75.2885,420.92,75.2165,420.435Q75.1444,419.949,75.0963,419.46Q75.04820000000001,418.972,75.0241,418.481Q75,417.991,75,417.5Q75,417.009,75.0241,416.519Q75.04820000000001,416.028,75.0963,415.54Q75.1444,415.051,75.2165,414.565Q75.2885,414.08,75.3843,413.598Q75.4801,413.117,75.5994,412.64Q75.7187,412.164,75.8612,411.694Q76.0037,411.224,76.1691,410.762Q76.33449999999999,410.3,76.5224,409.846Q76.7103,409.393,76.9202,408.949Q77.1301,408.505,77.3616,408.072Q77.593,407.639,77.8454,407.218Q78.0978,406.797,78.3706,406.389Q78.6434,405.98,78.9359,405.586Q79.2283,405.192,79.5398,404.812Q79.8513,404.433,80.181,404.069Q80.5107,403.705,80.8579,403.358L236.061,248.154Q236.409,247.807,236.772,247.477Q237.136,247.148,237.516,246.836Q237.895,246.525,238.29,246.232Q238.684,245.94,239.092,245.667Q239.5,245.394,239.921,245.142Q240.343,244.889,240.776,244.658Q241.209,244.427,241.652,244.217Q242.096,244.007,242.55,243.819Q243.003,243.631,243.466,243.466Q243.928,243.3,244.398,243.158Q244.868,243.015,245.344,242.896Q245.82,242.777,246.302,242.681Q246.783,242.585,247.269,242.513Q247.755,242.441,248.243,242.393Q248.732,242.345,249.222,242.321Q249.713,242.296,250.204,242.296Q250.695,242.296,251.185,242.321Q251.675,242.345,252.164,242.393Q252.652,242.441,253.138,242.513Q253.624,242.585,254.105,242.681Q254.587,242.777,255.063,242.896Q255.539,243.015,256.009,243.158Q256.47900000000004,243.3,256.94100000000003,243.466Q257.404,243.631,257.85699999999997,243.819Q258.31100000000004,244.007,258.755,244.217Q259.198,244.427,259.631,244.658Q260.06399999999996,244.889,260.486,245.142Q260.90700000000004,245.394,261.315,245.667Q261.723,245.94,262.118,246.232Q262.512,246.525,262.89099999999996,246.836Q263.27099999999996,247.148,263.635,247.477Q263.999,247.807,264.346,248.154Q264.693,248.501,265.023,248.865Q265.352,249.229,265.664,249.609Q265.975,249.988,266.26800000000003,250.382Q266.56,250.777,266.83299999999997,251.185Q267.106,251.593,267.358,252.014Q267.611,252.436,267.842,252.869Q268.073,253.302,268.283,253.745Q268.493,254.189,268.68100000000004,254.643Q268.869,255.096,269.034,255.559Q269.2,256.02099999999996,269.342,256.491Q269.485,256.961,269.60400000000004,257.437Q269.723,257.913,269.81899999999996,258.395Q269.91499999999996,258.876,269.98699999999997,259.36199999999997Q270.05899999999997,259.848,270.10699999999997,260.336Q270.155,260.825,270.179,261.315Q270.204,261.805,270.204,262.296Q270.204,262.78700000000003,270.179,263.278Q270.155,263.76800000000003,270.10699999999997,264.257Q270.05899999999997,264.745,269.98699999999997,265.231Q269.91499999999996,265.717,269.81899999999996,266.198Q269.723,266.68,269.60400000000004,267.156Q269.485,267.632,269.342,268.102Q269.2,268.572,269.034,269.034Q268.869,269.497,268.68100000000004,269.95Q268.493,270.404,268.283,270.848Q268.073,271.291,267.842,271.724Q267.611,272.15700000000004,267.358,272.579Q267.106,273,266.83299999999997,273.408Q266.56,273.81600000000003,266.26800000000003,274.21000000000004Q265.975,274.605,265.664,274.98400000000004Q265.352,275.36400000000003,265.023,275.728Q264.693,276.091,264.346,276.43899999999996ZM264.346,248.154Q275.151,258.96000000000004,289.145,264.879Q303.618,271,319.5,271Q335.382,271,349.855,264.879Q363.849,258.96000000000004,374.654,248.154Q385.46,237.349,391.379,223.355Q397.5,208.882,397.5,193Q397.5,177.11759999999998,391.379,162.64499999999998Q385.46,148.651,374.654,137.8457Q363.849,127.0404,349.855,121.1214Q335.382,115,319.5,115Q303.618,115,289.145,121.1214Q275.151,127.0404,264.346,137.8457Q253.54,148.6509,247.621,162.64499999999998Q241.5,177.1177,241.5,193Q241.5,208.882,247.621,223.355Q253.54,237.349,264.346,248.154ZM236.061,276.43899999999996Q219.739,260.11699999999996,210.781,238.937Q201.5,216.994,201.5,193Q201.5,169.0062,210.781,147.0629Q219.739,125.8834,236.061,109.5614Q252.383,93.23943,273.563,84.2812Q295.506,75,319.5,75Q343.494,75,365.437,84.2812Q386.617,93.23941,402.939,109.5614Q419.26,125.88329999999999,428.219,147.0629Q437.5,169.0063,437.5,193Q437.5,216.994,428.219,238.937Q419.261,260.11699999999996,402.939,276.43899999999996Q386.617,292.76099999999997,365.437,301.719Q343.494,311,319.5,311Q295.506,311,273.563,301.719Q252.383,292.76099999999997,236.061,276.43899999999996Z" fill="url(#master_svg1_26_53)" fill-opacity="1"/></g><g style="mix-blend-mode:passthrough" transform="matrix(0.9771616458892822,0.21249739825725555,-0.22029456496238708,0.975433349609375,33.4703022945032,-66.65665418524623)" filter="url(#master_svg2_26_46)"><ellipse cx="341.4368371963501" cy="132.35374355316162" rx="14.112740516662598" ry="14.353743553161621" fill="#175EFF" fill-opacity="1"/></g><g style="mix-blend-mode:passthrough" transform="matrix(0.9771616458892822,0.21249739825725555,-0.22029457986354828,0.975433349609375,42.23631149463745,-60.52967260234345)" filter="url(#master_svg3_26_42)"><path d="M358.82813486328126,236.76121923828126Q350.53673486328125,244.91021923828123,343.84513486328126,250.12981923828124Q336.43573486328125,255.90931923828126,330.46683486328124,258.45991923828126Q321.59633486328124,262.25071923828125,314.24783486328124,259.75991923828127Q309.50548486328125,258.15271923828124,306.25463486328124,254.25631923828126Q303.6382398632812,251.12041923828124,302.31666486328123,246.79081923828124Q300.3275448632813,240.27431923828124,301.30018486328123,230.44361923828126Q302.01653486328127,223.20341923828124,304.37611086328127,213.36321923828126Q306.2179448632813,205.68211923828125,309.26255486328125,195.61341923828127Q311.02037486328123,189.80021923828124,314.50963486328124,178.97831923828124Q318.28863486328123,167.25793923828124,319.31893486328124,163.42208923828125Q319.44523486328126,162.95193923828126,319.48923486328124,162.68013923828124Q319.47463486328127,162.77040923828125,319.47463486328127,163.05824923828126Q319.47463486328127,164.02334923828124,319.77333486328126,165.11330923828126Q320.35043486328124,167.21861923828126,321.81693486328123,168.96570923828125Q323.64633486328125,171.14501923828124,326.3004348632812,172.13301923828124Q328.1983348632813,172.83961923828124,330.1052348632812,172.76861923828125Q331.01843486328124,172.73461923828125,331.7302348632812,172.53321923828125Q331.85083486328125,172.49911923828125,331.92223486328123,172.47251923828125Q331.8946348632812,172.48281923828125,331.8208348632812,172.51581923828124Q329.68823486328125,173.46851923828126,325.03773486328123,177.06961923828123Q319.60723486328123,181.27461923828125,311.81517486328124,188.40241923828125L294.94129486328126,169.95594923828125Q303.49008186328126,162.13596923828126,309.73153486328124,157.30292923828125Q316.75303486328124,151.86584923828124,321.62363486328127,149.69001923828125Q325.58673486328127,147.91951923828125,329.1752348632813,147.78591923828125Q332.24933486328126,147.67151923828126,335.02263486328127,148.70391923828126Q338.55213486328125,150.01791923828125,340.96503486328123,152.89242923828124Q344.47463486328127,157.07334923828125,344.47463486328127,163.05824923828126Q344.47463486328127,166.14178923828126,343.46313486328125,169.90752923828126Q342.27223486328126,174.34091923828126,338.30343486328127,186.65011923828126Q334.88413486328125,197.25491923828125,333.1924348632813,202.84941923828126Q330.35883486328123,212.22041923828124,328.68693486328124,219.19271923828126Q326.72653486328124,227.36831923828123,326.17873486328125,232.90511923828126Q325.91193486328126,235.60151923828124,325.99093486328127,237.53011923828126Q326.0470348632812,238.90081923828126,326.2275348632812,239.49221923828125Q326.07313486328127,238.98641923828126,325.45073486328124,238.24041923828125Q324.19383486328127,236.73391923828126,322.2721348632812,236.08271923828124Q320.92903486328123,235.62751923828125,319.87003486328126,235.76621923828125Q319.80863486328127,235.77431923828124,319.7807348632812,235.78031923828127Q319.81973486328127,235.77191923828127,319.8926348632813,235.75041923828127Q320.20163486328124,235.65951923828123,320.64323486328124,235.47081923828125Q323.62283486328124,234.19751923828125,328.4691348632812,230.41741923828124Q334.0330348632813,226.07751923828124,341.30433486328127,218.93111923828124L358.82813486328126,236.76121923828126Z" fill="url(#master_svg4_26_45)" fill-opacity="1"/></g></g></svg>