<svg xmlns="http://www.w3.org/2000/svg" xmlns:xlink="http://www.w3.org/1999/xlink" fill="none" version="1.1" width="512" height="512" viewBox="0 0 512 512"><defs><clipPath id="master_svg0_26_61"><rect x="0" y="0" width="512" height="512" rx="0"/></clipPath><linearGradient x1="1" y1="0" x2="0" y2="1" id="master_svg1_26_66"><stop offset="0%" stop-color="#FF140A" stop-opacity="1"/><stop offset="100.00005960464478%" stop-color="#FFA27B" stop-opacity="1"/></linearGradient></defs><g style="mix-blend-mode:passthrough" clip-path="url(#master_svg0_26_61)"><g style="mix-blend-mode:passthrough"><path d="M394.377,504L298.481,504L202.58499999999998,504Q202.094,504,201.60399999999998,503.976Q201.114,503.952,200.625,503.904Q200.136,503.856,199.651,503.783Q199.16500000000002,503.711,198.683,503.616Q198.202,503.52,197.726,503.401Q197.249,503.281,196.78,503.139Q196.31,502.996,195.84699999999998,502.831Q195.385,502.665,194.93200000000002,502.478Q194.478,502.29,194.034,502.08Q193.59,501.87,193.15699999999998,501.638Q192.724,501.407,192.303,501.155Q191.882,500.902,191.474,500.629Q191.066,500.357,190.671,500.064Q190.277,499.772,189.897,499.46Q189.518,499.149,189.154,498.819Q188.79000000000002,498.489,188.44299999999998,498.142Q188.096,497.795,187.76600000000002,497.431Q187.437,497.067,187.125,496.688Q186.814,496.308,186.52100000000002,495.914Q186.22899999999998,495.52,185.95600000000002,495.111Q185.683,494.703,185.43099999999998,494.282Q185.178,493.861,184.947,493.428Q184.715,492.995,184.505,492.551Q184.296,492.107,184.108,491.654Q183.92000000000002,491.2,183.75400000000002,490.738Q183.589,490.275,183.446,489.806Q183.304,489.336,183.185,488.86Q183.065,488.383,182.96949999999998,487.902Q182.87380000000002,487.42,182.80169999999998,486.935Q182.72969999999998,486.449,182.6816,485.96Q182.6334,485.472,182.60930000000002,484.981Q182.5852,484.491,182.58530000000002,484Q182.5852,483.509,182.60930000000002,483.019Q182.6334,482.528,182.6816,482.04Q182.72969999999998,481.551,182.80169999999998,481.065Q182.87380000000002,480.58,182.96949999999998,480.098Q183.065,479.617,183.185,479.14Q183.304,478.664,183.446,478.194Q183.589,477.724,183.75400000000002,477.262Q183.92000000000002,476.8,184.108,476.346Q184.296,475.893,184.505,475.449Q184.715,475.005,184.947,474.572Q185.178,474.139,185.43099999999998,473.718Q185.683,473.297,185.95600000000002,472.889Q186.22899999999998,472.48,186.52100000000002,472.086Q186.814,471.692,187.125,471.312Q187.437,470.933,187.76600000000002,470.569Q188.096,470.205,188.44299999999998,469.858Q188.79000000000002,469.511,189.154,469.181Q189.518,468.851,189.897,468.54Q190.277,468.228,190.671,467.936Q191.066,467.643,191.474,467.371Q191.882,467.098,192.303,466.845Q192.724,466.593,193.15699999999998,466.362Q193.59,466.13,194.034,465.92Q194.478,465.71,194.93200000000002,465.522Q195.385,465.334,195.84699999999998,465.169Q196.31,465.004,196.78,464.861Q197.249,464.719,197.726,464.599Q198.202,464.48,198.683,464.384Q199.16500000000002,464.289,199.651,464.216Q200.136,464.144,200.625,464.096Q201.114,464.048,201.60399999999998,464.024Q202.094,464,202.58499999999998,464L298.481,464L394.377,464Q394.868,464,395.359,464.024Q395.849,464.048,396.338,464.096Q396.826,464.145,397.312,464.216Q397.797,464.289,398.279,464.384Q398.761,464.48,399.237,464.599Q399.713,464.719,400.183,464.861Q400.653,465.004,401.115,465.169Q401.577,465.335,402.031,465.522Q402.484,465.71,402.928,465.92Q403.372,466.13,403.805,466.362Q404.238,466.593,404.659,466.845Q405.08,467.098,405.489,467.371Q405.897,467.643,406.291,467.936Q406.686,468.228,407.065,468.54Q407.445,468.851,407.808,469.181Q408.172,469.511,408.519,469.858Q408.866,470.205,409.196,470.569Q409.526,470.933,409.837,471.312Q410.149,471.692,410.441,472.086Q410.734,472.48,411.007,472.889Q411.279,473.297,411.532,473.718Q411.784,474.139,412.016,474.572Q412.247,475.005,412.457,475.449Q412.667,475.893,412.855,476.346Q413.043,476.8,413.208,477.262Q413.373,477.724,413.516,478.194Q413.659,478.664,413.778,479.14Q413.897,479.617,413.993,480.098Q414.089,480.58,414.161,481.065Q414.233,481.551,414.281,482.04Q414.329,482.528,414.353,483.019Q414.377,483.509,414.377,484Q414.377,484.491,414.353,484.981Q414.329,485.472,414.281,485.96Q414.233,486.449,414.161,486.935Q414.089,487.42,413.993,487.902Q413.897,488.383,413.778,488.86Q413.659,489.336,413.516,489.806Q413.373,490.275,413.208,490.738Q413.043,491.2,412.855,491.654Q412.667,492.107,412.457,492.551Q412.247,492.995,412.016,493.428Q411.784,493.861,411.532,494.282Q411.279,494.703,411.007,495.111Q410.734,495.52,410.441,495.914Q410.149,496.308,409.837,496.688Q409.526,497.067,409.196,497.431Q408.866,497.795,408.519,498.142Q408.172,498.489,407.808,498.819Q407.445,499.149,407.065,499.46Q406.686,499.772,406.291,500.064Q405.897,500.357,405.489,500.629Q405.08,500.902,404.659,501.155Q404.238,501.407,403.805,501.638Q403.372,501.87,402.928,502.08Q402.484,502.29,402.031,502.478Q401.577,502.665,401.115,502.831Q400.653,502.996,400.183,503.139Q399.713,503.281,399.237,503.401Q398.761,503.52,398.279,503.616Q397.797,503.711,397.312,503.784Q396.826,503.856,396.338,503.904Q395.849,503.952,395.359,503.976Q394.868,504,394.377,504ZM278.602,481.804L313.225,168.374Q313.279,167.886,313.35699999999997,167.401Q313.43399999999997,166.917,313.536,166.436Q313.637,165.956,313.762,165.481Q313.887,165.006,314.03499999999997,164.538Q314.183,164.07,314.35400000000004,163.61Q314.525,163.149,314.71799999999996,162.698Q314.91200000000003,162.247,315.127,161.805Q315.342,161.364,315.578,160.934Q315.815,160.504,316.072,160.085Q316.33000000000004,159.667,316.60699999999997,159.262Q316.885,158.857,317.182,158.467Q317.47900000000004,158.076,317.79499999999996,157.7Q318.111,157.324,318.445,156.964Q318.779,156.604,319.13,156.261Q319.48199999999997,155.918,319.849,155.59300000000002Q320.217,155.268,320.6,154.961Q320.983,154.654,321.381,154.36599999999999Q321.779,154.078,322.19,153.81Q322.602,153.542,323.026,153.29500000000002Q323.45,153.047,323.88599999999997,152.821Q324.321,152.595,324.76800000000003,152.39Q325.214,152.186,325.66999999999996,152.003Q326.125,151.821,326.59000000000003,151.661Q327.054,151.501,327.525,151.364Q327.997,151.227,328.474,151.113Q328.952,150.999,329.435,150.909Q329.91700000000003,150.81900000000002,330.404,150.753Q330.89,150.687,331.379,150.644Q331.869,150.602,332.35900000000004,150.584Q332.85,150.566,333.341,150.571Q333.832,150.577,334.322,150.607Q334.812,150.637,335.3,150.691Q335.788,150.745,336.273,150.82299999999998Q336.757,150.9,337.238,151.002Q337.71799999999996,151.103,338.193,151.228Q338.668,151.353,339.136,151.501Q339.604,151.649,340.064,151.82Q340.525,151.99099999999999,340.976,152.184Q341.427,152.378,341.869,152.59300000000002Q342.31,152.808,342.74,153.04399999999998Q343.17,153.281,343.588,153.538Q344.007,153.796,344.412,154.07299999999998Q344.817,154.351,345.207,154.648Q345.598,154.945,345.974,155.261Q346.35,155.577,346.71,155.911Q347.07,156.245,347.413,156.596Q347.756,156.948,348.081,157.315Q348.406,157.683,348.713,158.066Q349.02,158.449,349.308,158.847Q349.596,159.245,349.864,159.656Q350.132,160.068,350.379,160.492Q350.627,160.916,350.853,161.352Q351.079,161.787,351.284,162.234Q351.488,162.68,351.671,163.136Q351.853,163.591,352.013,164.056Q352.173,164.52,352.31,164.991Q352.447,165.463,352.561,165.94Q352.674,166.418,352.765,166.901Q352.855,167.383,352.921,167.87Q352.987,168.356,353.03,168.845Q353.072,169.335,353.09,169.825Q353.108,170.316,353.103,170.807Q353.097,171.298,353.067,171.788Q353.037,172.278,352.983,172.766L318.36,486.196Q318.30600000000004,486.684,318.22900000000004,487.169Q318.151,487.653,318.049,488.134Q317.948,488.614,317.823,489.089Q317.698,489.564,317.55,490.032Q317.402,490.5,317.231,490.96Q317.06,491.421,316.86699999999996,491.872Q316.674,492.323,316.45799999999997,492.765Q316.243,493.206,316.007,493.636Q315.77,494.066,315.51300000000003,494.484Q315.255,494.903,314.978,495.308Q314.7,495.712,314.403,496.103Q314.106,496.494,313.78999999999996,496.87Q313.474,497.246,313.14,497.606Q312.80600000000004,497.966,312.45500000000004,498.309Q312.10400000000004,498.652,311.736,498.977Q311.368,499.302,310.985,499.609Q310.602,499.916,310.204,500.204Q309.80600000000004,500.492,309.395,500.76Q308.983,501.028,308.55899999999997,501.275Q308.135,501.523,307.7,501.749Q307.264,501.975,306.818,502.18Q306.371,502.384,305.916,502.567Q305.46000000000004,502.749,304.996,502.909Q304.531,503.069,304.06,503.206Q303.58799999999997,503.343,303.111,503.457Q302.63300000000004,503.57,302.15,503.661Q301.668,503.751,301.18100000000004,503.817Q300.695,503.883,300.206,503.926Q299.717,503.968,299.226,503.986Q298.735,504.004,298.244,503.999Q297.753,503.993,297.26300000000003,503.963Q296.773,503.933,296.28499999999997,503.879Q295.797,503.825,295.313,503.747Q294.828,503.67,294.347,503.568Q293.86699999999996,503.467,293.392,503.342Q292.91700000000003,503.217,292.449,503.069Q291.981,502.921,291.52099999999996,502.75Q291.06100000000004,502.579,290.60900000000004,502.386Q290.158,502.192,289.717,501.977Q289.275,501.762,288.845,501.526Q288.41499999999996,501.289,287.997,501.032Q287.579,500.774,287.174,500.497Q286.769,500.219,286.378,499.922Q285.98699999999997,499.625,285.611,499.309Q285.235,498.993,284.875,498.659Q284.51599999999996,498.325,284.173,497.974Q283.83000000000004,497.622,283.504,497.255Q283.179,496.887,282.872,496.504Q282.565,496.121,282.277,495.723Q281.98900000000003,495.325,281.721,494.914Q281.453,494.502,281.206,494.078Q280.959,493.654,280.73199999999997,493.218Q280.506,492.783,280.301,492.336Q280.097,491.89,279.914,491.434Q279.73199999999997,490.978,279.572,490.514Q279.41200000000003,490.05,279.275,489.579Q279.13800000000003,489.107,279.024,488.629Q278.911,488.152,278.821,487.669Q278.731,487.187,278.664,486.7Q278.598,486.214,278.55600000000004,485.724Q278.51300000000003,485.235,278.495,484.745Q278.477,484.254,278.483,483.763Q278.488,483.272,278.51800000000003,482.782Q278.548,482.292,278.602,481.804ZM429,190.57L333.10400000000004,190.57L237.208,190.57Q236.717,190.57,236.227,190.546Q235.736,190.522,235.248,190.474Q234.759,190.426,234.273,190.354Q233.788,190.281,233.306,190.186Q232.825,190.09,232.348,189.971Q231.872,189.851,231.402,189.709Q230.932,189.566,230.47,189.401Q230.008,189.235,229.554,189.048Q229.101,188.86,228.657,188.65Q228.213,188.44,227.78,188.208Q227.347,187.977,226.926,187.725Q226.505,187.472,226.097,187.199Q225.688,186.927,225.294,186.634Q224.9,186.342,224.52,186.03Q224.141,185.719,223.777,185.389Q223.413,185.059,223.066,184.712Q222.719,184.365,222.389,184.001Q222.059,183.637,221.748,183.258Q221.436,182.878,221.144,182.484Q220.851,182.09,220.579,181.681Q220.306,181.273,220.053,180.852Q219.801,180.431,219.57,179.998Q219.338,179.565,219.128,179.121Q218.918,178.677,218.73,178.224Q218.543,177.77,218.377,177.308Q218.212,176.845,218.069,176.376Q217.927,175.906,217.807,175.43Q217.688,174.953,217.592,174.472Q217.497,173.99,217.424,173.505Q217.352,173.019,217.304,172.53Q217.256,172.042,217.232,171.551Q217.208,171.061,217.208,170.57Q217.208,170.079,217.232,169.589Q217.256,169.098,217.304,168.61Q217.352,168.121,217.424,167.635Q217.497,167.15,217.592,166.668Q217.688,166.187,217.807,165.71Q217.927,165.234,218.069,164.764Q218.212,164.294,218.377,163.832Q218.543,163.37,218.73,162.916Q218.918,162.463,219.128,162.019Q219.338,161.575,219.57,161.142Q219.801,160.709,220.053,160.288Q220.306,159.867,220.579,159.459Q220.851,159.05,221.144,158.656Q221.436,158.262,221.748,157.882Q222.059,157.503,222.389,157.139Q222.719,156.775,223.066,156.428Q223.413,156.081,223.777,155.751Q224.141,155.421,224.52,155.11Q224.9,154.798,225.294,154.506Q225.688,154.213,226.097,153.941Q226.505,153.668,226.926,153.41500000000002Q227.347,153.163,227.78,152.93200000000002Q228.213,152.7,228.657,152.49Q229.101,152.28,229.554,152.09199999999998Q230.008,151.904,230.47,151.739Q230.932,151.574,231.402,151.43099999999998Q231.872,151.289,232.348,151.16899999999998Q232.825,151.05,233.306,150.954Q233.788,150.858,234.273,150.786Q234.759,150.714,235.248,150.666Q235.736,150.618,236.227,150.594Q236.717,150.57,237.208,150.57L333.10400000000004,150.57L429,150.57Q429.491,150.57,429.981,150.594Q430.472,150.618,430.96,150.666Q431.449,150.714,431.935,150.786Q432.42,150.858,432.902,150.954Q433.383,151.05,433.86,151.16899999999998Q434.336,151.289,434.806,151.43099999999998Q435.276,151.574,435.738,151.739Q436.2,151.904,436.654,152.09199999999998Q437.107,152.28,437.551,152.49Q437.995,152.7,438.428,152.93200000000002Q438.861,153.163,439.282,153.41500000000002Q439.703,153.668,440.111,153.941Q440.52,154.213,440.914,154.506Q441.308,154.798,441.688,155.11Q442.067,155.421,442.431,155.751Q442.795,156.081,443.142,156.428Q443.489,156.775,443.819,157.139Q444.149,157.503,444.46,157.882Q444.772,158.262,445.064,158.656Q445.357,159.05,445.629,159.459Q445.902,159.867,446.155,160.288Q446.407,160.709,446.638,161.142Q446.87,161.575,447.08,162.019Q447.29,162.463,447.478,162.916Q447.665,163.37,447.831,163.832Q447.996,164.294,448.139,164.764Q448.281,165.234,448.401,165.71Q448.52,166.187,448.616,166.668Q448.711,167.15,448.784,167.635Q448.856,168.121,448.904,168.61Q448.952,169.098,448.976,169.589Q449,170.079,449,170.57Q449,171.061,448.976,171.551Q448.952,172.042,448.904,172.53Q448.856,173.019,448.784,173.505Q448.711,173.99,448.616,174.472Q448.52,174.953,448.401,175.43Q448.281,175.906,448.139,176.376Q447.996,176.845,447.831,177.308Q447.665,177.77,447.478,178.224Q447.29,178.677,447.08,179.121Q446.87,179.565,446.638,179.998Q446.407,180.431,446.155,180.852Q445.902,181.273,445.629,181.681Q445.357,182.09,445.064,182.484Q444.772,182.878,444.46,183.258Q444.149,183.637,443.819,184.001Q443.489,184.365,443.142,184.712Q442.795,185.059,442.431,185.389Q442.067,185.719,441.688,186.03Q441.308,186.342,440.914,186.634Q440.52,186.927,440.111,187.199Q439.703,187.472,439.282,187.725Q438.861,187.977,438.428,188.208Q437.995,188.44,437.551,188.65Q437.107,188.86,436.654,189.048Q436.2,189.235,435.738,189.401Q435.276,189.566,434.806,189.709Q434.336,189.851,433.86,189.971Q433.383,190.09,432.902,190.186Q432.42,190.281,431.935,190.354Q431.449,190.426,430.96,190.474Q430.472,190.522,429.981,190.546Q429.491,190.57,429,190.57ZM432.388,30.11809L394.448,386.349Q394.399,386.804,394.33,387.257Q394.261,387.709,394.171,388.158Q394.081,388.607,393.971,389.051Q393.86,389.496,393.73,389.934Q393.599,390.373,393.449,390.806Q393.298,391.238,393.128,391.663Q392.958,392.088,392.769,392.505Q392.579,392.921,392.371,393.329Q392.163,393.737,391.936,394.135Q391.709,394.532,391.465,394.919Q391.22,395.306,390.958,395.682Q390.696,396.057,390.417,396.42Q390.138,396.783,389.842,397.133Q389.547,397.482,389.236,397.818Q388.925,398.154,388.599,398.476Q388.273,398.797,387.933,399.103Q387.592,399.409,387.238,399.699Q386.884,399.989,386.517,400.263Q386.15,400.537,385.771,400.793Q385.392,401.05,385.001,401.289Q384.611,401.528,384.21,401.749Q383.809,401.97,383.398,402.172Q382.988,402.374,382.568,402.558Q382.149,402.741,381.721,402.905Q381.294,403.069,380.859,403.213Q380.425,403.357,379.984,403.481Q379.543,403.606,379.098,403.709Q378.652,403.813,378.202,403.897Q377.751,403.98,377.298,404.043Q376.844,404.105,376.389,404.147Q375.933,404.189,375.475,404.21Q375.018,404.231,374.56,404.231L83,404.231Q82.509028,404.231,82.018647,404.207Q81.52827,404.183,81.03966,404.135Q80.55105,404.086,80.06539,404.014Q79.57973,403.942,79.09819,403.847Q78.61666,403.751,78.1404,403.631Q77.66414,403.512,77.19431,403.37Q76.72448,403.227,76.2622,403.062Q75.79993,402.896,75.34633,402.708Q74.89273,402.521,74.4489,402.311Q74.00507,402.101,73.57207,401.869Q73.13907,401.638,72.7179,401.385Q72.2968,401.133,71.8886,400.86Q71.4804,400.587,71.086,400.295Q70.6917,400.002,70.3121,399.691Q69.93260000000001,399.38,69.5688,399.05Q69.205,398.72,68.8579,398.373Q68.5107,398.026,68.181,397.662Q67.8513,397.298,67.5398,396.919Q67.2283,396.539,66.9359,396.145Q66.6434,395.75,66.3706,395.342Q66.0978,394.934,65.8454,394.513Q65.593,394.092,65.3616,393.659Q65.1301,393.226,64.9202,392.782Q64.7103,392.338,64.5224,391.884Q64.33449999999999,391.431,64.1691,390.969Q64.0037,390.506,63.8612,390.037Q63.7187,389.567,63.5994,389.09Q63.4801,388.614,63.384299999999996,388.133Q63.2885,387.651,63.216499999999996,387.165Q63.144400000000005,386.68,63.0963,386.191Q63.0482,385.703,63.024100000000004,385.212Q63,384.722,63,384.231Q63,383.169,63.1125,382.113L101.0522,25.88191Q101.1007,25.42669,101.17,24.97416Q101.2392,24.52164,101.3291,24.07275Q101.419,23.62387,101.5294,23.17957Q101.6397,22.73527,101.77029999999999,22.29648Q101.9008,21.8577,102.0513,21.42534Q102.20179999999999,20.99299,102.3719,20.56797Q102.542,20.142960000000002,102.73140000000001,19.72617Q102.9208,19.30939,103.1291,18.901699999999998Q103.3373,18.49402,103.564,18.09629Q103.7907,17.6986,104.0354,17.3116Q104.28,16.9247,104.5421,16.549300000000002Q104.80420000000001,16.174,105.0832,15.8111Q105.3622,15.4481,105.6576,15.0983Q105.9529,14.7485,106.2639,14.4126Q106.5749,14.0766,106.901,13.7553Q107.227,13.4339,107.56739999999999,13.1278Q107.9079,12.8218,108.2619,12.5316Q108.616,12.2414,108.983,11.9677Q109.3499,11.693999999999999,109.7291,11.4374Q110.1082,11.180800000000001,110.4986,10.9418Q110.8891,10.7028,111.2901,10.4819Q111.6911,10.261,112.1017,10.058700000000002Q112.5124,9.8564,112.9319,9.673100000000002Q113.3514,9.489799999999999,113.7789,9.3259Q114.2063,9.161999999999999,114.6408,9.017800000000001Q115.0753,8.8736,115.5159,8.749500000000001Q115.95660000000001,8.6253,116.4024,8.5215Q116.8483,8.4176,117.2984,8.334299999999999Q117.74860000000001,8.250900000000001,118.2021,8.188300000000002Q118.65559999999999,8.125599999999999,119.1114,8.0837Q119.5673,8.041899999999998,120.02459999999999,8.020900000000001Q120.482,8,120.93979999999999,8L412.5,8Q412.991,8,413.481,8.0241Q413.972,8.048200000000001,414.46,8.0963Q414.949,8.144400000000001,415.435,8.2165Q415.92,8.288499999999999,416.402,8.3843Q416.883,8.4801,417.36,8.5994Q417.836,8.718699999999998,418.306,8.8612Q418.775,9.003699999999998,419.238,9.1691Q419.7,9.334499999999998,420.154,9.522400000000001Q420.607,9.7103,421.051,9.920200000000001Q421.495,10.130099999999999,421.928,10.3616Q422.361,10.593,422.782,10.845400000000001Q423.203,11.0978,423.611,11.3706Q424.02,11.6434,424.414,11.9359Q424.808,12.2283,425.188,12.5398Q425.567,12.8513,425.931,13.181Q426.295,13.5107,426.642,13.8579Q426.989,14.205,427.319,14.5688Q427.649,14.9326,427.96,15.3121Q428.272,15.6917,428.564,16.086Q428.857,16.4804,429.129,16.8886Q429.402,17.296799999999998,429.655,17.7179Q429.907,18.13907,430.138,18.57207Q430.37,19.00507,430.58,19.448900000000002Q430.79,19.89273,430.978,20.346330000000002Q431.165,20.79993,431.331,21.2622Q431.496,21.72448,431.639,22.19431Q431.781,22.66414,431.901,23.1404Q432.02,23.61666,432.116,24.09819Q432.211,24.57973,432.284,25.06539Q432.356,25.55105,432.404,26.03966Q432.452,26.52827,432.476,27.018647Q432.5,27.509028,432.5,28Q432.5,29.06203,432.388,30.11809ZM392.612,25.88191L412.5,28L412.5,48L120.93979999999999,48L120.93979999999999,28L140.8273,30.11809L102.8875,386.349L83,384.231L83,364.231L374.56,364.231L374.56,384.231L354.673,382.113L392.612,25.88191Z" fill="url(#master_svg1_26_66)" fill-opacity="1"/></g></g></svg>