<svg xmlns="http://www.w3.org/2000/svg" xmlns:xlink="http://www.w3.org/1999/xlink" fill="none" version="1.1" width="256" height="256" viewBox="0 0 256 256"><defs><clipPath id="master_svg0_1_0"><rect x="0" y="0" width="256" height="256" rx="0"/></clipPath></defs><g style="mix-blend-mode:passthrough" clip-path="url(#master_svg0_1_0)"><g style="mix-blend-mode:passthrough"><path d="M23.16117,215.161L215.161,23.16117Q215.378,22.94418,215.606,22.73811Q215.833,22.532040000000002,216.07,22.33737Q216.307,22.142699999999998,216.554,21.959899999999998Q216.8,21.7771,217.055,21.6066Q217.311,21.4362,217.574,21.278399999999998Q217.837,21.1206,218.108,20.976Q218.378,20.8313,218.656,20.7001Q218.933,20.5689,219.216,20.4515Q219.5,20.3341,219.789,20.2307Q220.078,20.127299999999998,220.371,20.0382Q220.665,19.949199999999998,220.963,19.8746Q221.26,19.8001,221.561,19.7402Q221.862,19.680300000000003,222.166,19.6353Q222.469,19.5903,222.775,19.560200000000002Q223.08,19.530099999999997,223.387,19.5151Q223.693,19.5,224,19.5Q224.307,19.5,224.613,19.5151Q224.92,19.530099999999997,225.225,19.560200000000002Q225.531,19.5903,225.834,19.6353Q226.138,19.680300000000003,226.439,19.7402Q226.74,19.8001,227.037,19.8746Q227.335,19.949199999999998,227.629,20.0382Q227.922,20.127299999999998,228.211,20.2307Q228.5,20.3341,228.784,20.4515Q229.067,20.5689,229.344,20.7001Q229.622,20.8313,229.892,20.976Q230.163,21.1206,230.426,21.278399999999998Q230.689,21.4362,230.945,21.6066Q231.2,21.7771,231.446,21.959899999999998Q231.693,22.142699999999998,231.93,22.33737Q232.167,22.532040000000002,232.394,22.73811Q232.622,22.94418,232.839,23.16117Q233.056,23.378149999999998,233.262,23.605510000000002Q233.468,23.83288,233.663,24.07008Q233.857,24.307290000000002,234.04,24.55376Q234.223,24.80023,234.393,25.05537Q234.564,25.31052,234.722,25.57372Q234.879,25.83692,235.024,26.10754Q235.169,26.37817,235.3,26.65556Q235.431,26.93296,235.548,27.216459999999998Q235.666,27.49996,235.769,27.78888Q235.873,28.0778,235.962,28.37144Q236.051,28.66509,236.125,28.96275Q236.2,29.26041,236.26,29.56137Q236.32,29.86233,236.365,30.165869999999998Q236.41,30.46941,236.44,30.77479Q236.47,31.080166,236.485,31.386654Q236.5,31.693142,236.5,32Q236.5,32.306858,236.485,32.613346Q236.47,32.919834,236.44,33.22521Q236.41,33.53059,236.365,33.83413Q236.32,34.13767,236.26,34.43863Q236.2,34.73959,236.125,35.03725Q236.051,35.33491,235.962,35.62856Q235.873,35.922200000000004,235.769,36.21112Q235.666,36.50004,235.548,36.78354Q235.431,37.06704,235.3,37.34444Q235.169,37.62183,235.024,37.89246Q234.879,38.16308,234.722,38.42628Q234.564,38.68948,234.393,38.944630000000004Q234.223,39.19977,234.04,39.44624Q233.857,39.69271,233.663,39.92992Q233.468,40.16712,233.262,40.39449Q233.056,40.62185,232.839,40.83883L40.83883,232.839Q40.62185,233.056,40.39449,233.262Q40.16712,233.468,39.92992,233.663Q39.69271,233.857,39.44624,234.04Q39.19977,234.223,38.944630000000004,234.393Q38.68948,234.564,38.42628,234.722Q38.16308,234.879,37.89246,235.024Q37.62183,235.169,37.34444,235.3Q37.06704,235.431,36.78354,235.548Q36.50004,235.666,36.21112,235.769Q35.922200000000004,235.873,35.62856,235.962Q35.33491,236.051,35.03725,236.125Q34.73959,236.2,34.43863,236.26Q34.13767,236.32,33.83413,236.365Q33.53059,236.41,33.22521,236.44Q32.919834,236.47,32.613346,236.485Q32.306858,236.5,32,236.5Q31.693142,236.5,31.386654,236.485Q31.080166,236.47,30.77479,236.44Q30.46941,236.41,30.165869999999998,236.365Q29.86233,236.32,29.56137,236.26Q29.26041,236.2,28.96275,236.125Q28.66509,236.051,28.37144,235.962Q28.0778,235.873,27.78888,235.769Q27.49996,235.666,27.216459999999998,235.548Q26.93296,235.431,26.65556,235.3Q26.37817,235.169,26.10754,235.024Q25.83692,234.879,25.57372,234.722Q25.31052,234.564,25.05537,234.393Q24.80023,234.223,24.55376,234.04Q24.307290000000002,233.857,24.07008,233.663Q23.83288,233.468,23.605510000000002,233.262Q23.378149999999998,233.056,23.16117,232.839Q22.94418,232.622,22.73811,232.394Q22.532040000000002,232.167,22.33737,231.93Q22.142699999999998,231.693,21.959899999999998,231.446Q21.7771,231.2,21.6066,230.945Q21.4362,230.689,21.278399999999998,230.426Q21.1206,230.163,20.976,229.892Q20.8313,229.622,20.7001,229.344Q20.5689,229.067,20.4515,228.784Q20.3341,228.5,20.2307,228.211Q20.127299999999998,227.922,20.0382,227.629Q19.949199999999998,227.335,19.8746,227.037Q19.8001,226.74,19.7402,226.439Q19.680300000000003,226.138,19.6353,225.834Q19.5903,225.531,19.560200000000002,225.225Q19.530099999999997,224.92,19.5151,224.613Q19.5,224.307,19.5,224Q19.5,223.693,19.5151,223.387Q19.530099999999997,223.08,19.560200000000002,222.775Q19.5903,222.469,19.6353,222.166Q19.680300000000003,221.862,19.7402,221.561Q19.8001,221.26,19.8746,220.963Q19.949199999999998,220.665,20.0382,220.371Q20.127299999999998,220.078,20.2307,219.789Q20.3341,219.5,20.4515,219.216Q20.5689,218.933,20.7001,218.656Q20.8313,218.378,20.976,218.108Q21.1206,217.837,21.278399999999998,217.574Q21.4362,217.311,21.6066,217.055Q21.7771,216.8,21.959899999999998,216.554Q22.142699999999998,216.307,22.33737,216.07Q22.532040000000002,215.833,22.73811,215.606Q22.94418,215.378,23.16117,215.161ZM215.161,232.839L23.16117,40.83883Q22.94418,40.62185,22.73811,40.39449Q22.532040000000002,40.16712,22.33737,39.92992Q22.142699999999998,39.69271,21.959899999999998,39.44624Q21.7771,39.19977,21.6066,38.944630000000004Q21.4362,38.68948,21.278399999999998,38.42628Q21.1206,38.16308,20.976,37.89246Q20.8313,37.62183,20.7001,37.34444Q20.5689,37.06704,20.4515,36.78354Q20.3341,36.50004,20.2307,36.21112Q20.127299999999998,35.922200000000004,20.0382,35.62856Q19.949199999999998,35.33491,19.8746,35.03725Q19.8001,34.73959,19.7402,34.43863Q19.680300000000003,34.13767,19.6353,33.83413Q19.5903,33.53059,19.560200000000002,33.22521Q19.530099999999997,32.919834,19.5151,32.613346Q19.5,32.306858,19.5,32Q19.5,31.693142,19.5151,31.386654Q19.530099999999997,31.080166,19.560200000000002,30.77479Q19.5903,30.46941,19.6353,30.165869999999998Q19.680300000000003,29.86233,19.7402,29.56137Q19.8001,29.26041,19.8746,28.96275Q19.949199999999998,28.66509,20.0382,28.37144Q20.127299999999998,28.0778,20.2307,27.78888Q20.3341,27.49996,20.4515,27.216459999999998Q20.5689,26.93296,20.7001,26.65556Q20.8313,26.37817,20.976,26.10754Q21.1206,25.83692,21.278399999999998,25.57372Q21.4362,25.31052,21.6066,25.05537Q21.7771,24.80023,21.959899999999998,24.55376Q22.142699999999998,24.307290000000002,22.33737,24.07008Q22.532040000000002,23.83288,22.73811,23.605510000000002Q22.94418,23.378149999999998,23.16117,23.16117Q23.378149999999998,22.94418,23.605510000000002,22.73811Q23.83288,22.532040000000002,24.07008,22.33737Q24.307290000000002,22.142699999999998,24.55376,21.959899999999998Q24.80023,21.7771,25.05537,21.6066Q25.31052,21.4362,25.57372,21.278399999999998Q25.83692,21.1206,26.10754,20.976Q26.37817,20.8313,26.65556,20.7001Q26.93296,20.5689,27.216459999999998,20.4515Q27.49996,20.3341,27.78888,20.2307Q28.0778,20.127299999999998,28.37144,20.0382Q28.66509,19.949199999999998,28.96275,19.8746Q29.26041,19.8001,29.56137,19.7402Q29.86233,19.680300000000003,30.165869999999998,19.6353Q30.46941,19.5903,30.77479,19.560200000000002Q31.080166,19.530099999999997,31.386654,19.5151Q31.693142,19.5,32,19.5Q32.306858,19.5,32.613346,19.5151Q32.919834,19.530099999999997,33.22521,19.560200000000002Q33.53059,19.5903,33.83413,19.6353Q34.13767,19.680300000000003,34.43863,19.7402Q34.73959,19.8001,35.03725,19.8746Q35.33491,19.949199999999998,35.62856,20.0382Q35.922200000000004,20.127299999999998,36.21112,20.2307Q36.50004,20.3341,36.78354,20.4515Q37.06704,20.5689,37.34444,20.7001Q37.62183,20.8313,37.89246,20.976Q38.16308,21.1206,38.42628,21.278399999999998Q38.68948,21.4362,38.944630000000004,21.6066Q39.19977,21.7771,39.44624,21.959899999999998Q39.69271,22.142699999999998,39.92992,22.33737Q40.16712,22.532040000000002,40.39449,22.73811Q40.62185,22.94418,40.83883,23.16117L232.839,215.161Q233.056,215.378,233.262,215.606Q233.468,215.833,233.663,216.07Q233.857,216.307,234.04,216.554Q234.223,216.8,234.393,217.055Q234.564,217.311,234.722,217.574Q234.879,217.837,235.024,218.108Q235.169,218.378,235.3,218.656Q235.431,218.933,235.548,219.216Q235.666,219.5,235.769,219.789Q235.873,220.078,235.962,220.371Q236.051,220.665,236.125,220.963Q236.2,221.26,236.26,221.561Q236.32,221.862,236.365,222.166Q236.41,222.469,236.44,222.775Q236.47,223.08,236.485,223.387Q236.5,223.693,236.5,224Q236.5,224.307,236.485,224.613Q236.47,224.92,236.44,225.225Q236.41,225.531,236.365,225.834Q236.32,226.138,236.26,226.439Q236.2,226.74,236.125,227.037Q236.051,227.335,235.962,227.629Q235.873,227.922,235.769,228.211Q235.666,228.5,235.548,228.784Q235.431,229.067,235.3,229.344Q235.169,229.622,235.024,229.892Q234.879,230.163,234.722,230.426Q234.564,230.689,234.393,230.945Q234.223,231.2,234.04,231.446Q233.857,231.693,233.663,231.93Q233.468,232.167,233.262,232.394Q233.056,232.622,232.839,232.839Q232.622,233.056,232.394,233.262Q232.167,233.468,231.93,233.663Q231.693,233.857,231.446,234.04Q231.2,234.223,230.945,234.393Q230.689,234.564,230.426,234.722Q230.163,234.879,229.892,235.024Q229.622,235.169,229.344,235.3Q229.067,235.431,228.784,235.548Q228.5,235.666,228.211,235.769Q227.922,235.873,227.629,235.962Q227.335,236.051,227.037,236.125Q226.74,236.2,226.439,236.26Q226.138,236.32,225.834,236.365Q225.531,236.41,225.225,236.44Q224.92,236.47,224.613,236.485Q224.307,236.5,224,236.5Q223.693,236.5,223.387,236.485Q223.08,236.47,222.775,236.44Q222.469,236.41,222.166,236.365Q221.862,236.32,221.561,236.26Q221.26,236.2,220.963,236.125Q220.665,236.051,220.371,235.962Q220.078,235.873,219.789,235.769Q219.5,235.666,219.216,235.548Q218.933,235.431,218.656,235.3Q218.378,235.169,218.108,235.024Q217.837,234.879,217.574,234.722Q217.311,234.564,217.055,234.393Q216.8,234.223,216.554,234.04Q216.307,233.857,216.07,233.663Q215.833,233.468,215.606,233.262Q215.378,233.056,215.161,232.839Z" fill="#000000" fill-opacity="1"/></g></g></svg>