<svg xmlns="http://www.w3.org/2000/svg" xmlns:xlink="http://www.w3.org/1999/xlink" fill="none" version="1.1" width="1024" height="512" viewBox="0 0 1024 512"><defs><linearGradient x1="1" y1="0" x2="0" y2="1" id="master_svg0_56_1247"><stop offset="0%" stop-color="#B2B4FF" stop-opacity="1"/><stop offset="100.00005960464478%" stop-color="#49E0FF" stop-opacity="1"/></linearGradient><clipPath id="master_svg1_56_42"><rect x="0" y="0" width="1024" height="512" rx="50"/></clipPath><filter id="master_svg2_56_0382" filterUnits="objectBoundingBox" color-interpolation-filters="sRGB" x="-20" y="-16" width="296" height="219.1026611328125"><feFlood flood-opacity="0" result="BackgroundImageFix"/><feColorMatrix in="SourceAlpha" type="matrix" values="0 0 0 0 0 0 0 0 0 0 0 0 0 0 0 0 0 0 127 0"/><feOffset dy="4" dx="0"/><feGaussianBlur stdDeviation="5"/><feColorMatrix type="matrix" values="0 0 0 0 0 0 0 0 0 0 0 0 0 0 0 0 0 0 0.3019607961177826 0"/><feBlend mode="normal" in2="BackgroundImageFix" result="effect1_dropShadow"/><feBlend mode="normal" in="SourceGraphic" in2="effect1_dropShadow" result="shape"/></filter><linearGradient x1="1" y1="0" x2="0" y2="1" id="master_svg3_56_1331"><stop offset="0%" stop-color="#001AFF" stop-opacity="1"/><stop offset="100.00001192092896%" stop-color="#00BBF9" stop-opacity="1"/></linearGradient><linearGradient x1="1" y1="0" x2="0" y2="1" id="master_svg4_56_1432"><stop offset="0%" stop-color="#0D40FF" stop-opacity="1"/><stop offset="100%" stop-color="#0098FA" stop-opacity="1"/></linearGradient></defs><g style="mix-blend-mode:passthrough" clip-path="url(#master_svg1_56_42)"><rect x="0" y="0" width="1024" height="512" rx="50" fill="url(#master_svg0_56_1247)" fill-opacity="1"/><g style="mix-blend-mode:passthrough"><g style="mix-blend-mode:passthrough" filter="url(#master_svg2_56_0382)"><path d="M311.813,194.6582L367,194.6582Q367.307,194.6582,367.613,194.6733Q367.92,194.6884,368.225,194.7184Q368.531,194.7485,368.834,194.7935Q369.138,194.83859999999999,369.439,194.8984Q369.74,194.9583,370.037,195.0329Q370.335,195.10739999999998,370.629,195.19650000000001Q370.922,195.2856,371.211,195.3889Q371.5,195.4923,371.784,195.6097Q372.067,195.7272,372.344,195.8584Q372.622,195.9896,372.892,196.1342Q373.163,196.2789,373.426,196.4366Q373.689,196.5944,373.945,196.7649Q374.2,196.9353,374.446,197.1181Q374.693,197.3009,374.93,197.4956Q375.167,197.6903,375.394,197.8964Q375.622,198.1024,375.839,198.3194Q376.056,198.53640000000001,376.262,198.7638Q376.468,198.99110000000002,376.663,199.2283Q376.857,199.4655,377.04,199.712Q377.223,199.95850000000002,377.393,200.21359999999999Q377.564,200.4688,377.722,200.7319Q377.879,200.9952,378.024,201.2658Q378.169,201.53640000000001,378.3,201.81380000000001Q378.431,202.09120000000001,378.548,202.3747Q378.666,202.6582,378.769,202.9471Q378.873,203.236,378.962,203.5297Q379.051,203.82330000000002,379.125,204.121Q379.2,204.4186,379.26,204.7196Q379.32,205.0206,379.365,205.3241Q379.41,205.6276,379.44,205.933Q379.47,206.2384,379.485,206.54489999999998Q379.5,206.8514,379.5,207.1582Q379.5,208.8177,379.067,210.4197L341.783,348.36400000000003Q341.717,348.611,341.64,348.85400000000004Q341.563,349.098,341.477,349.33799999999997Q341.39,349.578,341.294,349.81399999999996Q341.198,350.051,341.092,350.283Q340.986,350.515,340.871,350.743Q340.756,350.971,340.632,351.19399999999996Q340.507,351.41700000000003,340.374,351.635Q340.24,351.852,340.098,352.06399999999996Q339.956,352.276,339.805,352.48199999999997Q339.655,352.688,339.496,352.88800000000003Q339.337,353.08799999999997,339.16999999999996,353.281Q339.003,353.474,338.828,353.65999999999997Q338.653,353.846,338.471,354.025Q338.289,354.204,338.099,354.375Q337.90999999999997,354.546,337.714,354.709Q337.51800000000003,354.873,337.315,355.028Q337.11199999999997,355.183,336.903,355.33000000000004Q336.695,355.477,336.48,355.615Q336.265,355.753,336.04499999999996,355.882Q335.825,356.01099999999997,335.6,356.131Q335.374,356.252,335.145,356.36199999999997Q334.91499999999996,356.473,334.68,356.575Q334.446,356.676,334.20799999999997,356.76800000000003Q333.97,356.86,333.728,356.94100000000003Q333.486,357.023,333.241,357.095Q332.996,357.16700000000003,332.749,357.22900000000004Q332.501,357.291,332.251,357.34299999999996Q332.001,357.395,331.749,357.43600000000004Q331.497,357.478,331.244,357.509Q330.99,357.53999999999996,330.736,357.56100000000004Q330.48199999999997,357.582,330.227,357.592Q329.972,357.603,329.716,357.603L155.0626,357.603Q154.7558,357.603,154.4493,357.58799999999997Q154.1428,357.573,153.8374,357.54200000000003Q153.53199999999998,357.512,153.2285,357.467Q152.925,357.422,152.624,357.36199999999997Q152.323,357.303,152.0254,357.228Q151.7277,357.153,151.4341,357.06399999999996Q151.1404,356.975,150.8515,356.872Q150.5626,356.769,150.2791,356.651Q149.9956,356.534,149.7182,356.402Q149.4408,356.27099999999996,149.1702,356.127Q148.8995,355.98199999999997,148.6363,355.824Q148.3731,355.666,148.118,355.496Q147.8629,355.326,147.6164,355.14300000000003Q147.3699,354.96000000000004,147.1327,354.765Q146.8955,354.571,146.6681,354.365Q146.4408,354.158,146.22379999999998,353.94100000000003Q146.0068,353.724,145.8007,353.497Q145.5947,353.27,145.4,353.033Q145.2053,352.79499999999996,145.0225,352.549Q144.8397,352.302,144.6693,352.047Q144.49880000000002,351.79200000000003,144.341,351.529Q144.1833,351.26599999999996,144.0386,350.995Q143.894,350.724,143.7628,350.447Q143.6316,350.16999999999996,143.51409999999998,349.88599999999997Q143.3967,349.603,143.2933,349.31399999999996Q143.19,349.025,143.1009,348.731Q143.0118,348.438,142.9372,348.14Q142.8627,347.842,142.8028,347.541Q142.743,347.24,142.6979,346.937Q142.6529,346.63300000000004,142.6228,346.328Q142.5927,346.022,142.5777,345.716Q142.5626,345.40999999999997,142.5626,345.103Q142.5626,343.443,142.9956,341.841L154.1199,300.683L180.2794,203.89679999999998Q180.346,203.65030000000002,180.4226,203.4068Q180.4992,203.1633,180.5857,202.9231Q180.6722,202.683,180.76839999999999,202.44650000000001Q180.8646,202.2101,180.97039999999998,201.9778Q181.0762,201.7454,181.1914,201.51760000000002Q181.3066,201.2898,181.43099999999998,201.0669Q181.55540000000002,200.844,181.68880000000001,200.6264Q181.8222,200.4087,181.9644,200.1967Q182.10649999999998,199.9847,182.2572,199.77859999999998Q182.40789999999998,199.5726,182.5669,199.37290000000002Q182.7259,199.1731,182.8929,198.9801Q183.06,198.787,183.2347,198.6009Q183.40949999999998,198.4149,183.5917,198.2361Q183.7739,198.0573,183.9632,197.8861Q184.1526,197.7149,184.34879999999998,197.5516Q184.54500000000002,197.3882,184.7477,197.2331Q184.9503,197.0779,185.1592,196.93110000000001Q185.3681,196.7843,185.58280000000002,196.6462Q185.79739999999998,196.5081,186.01760000000002,196.3788Q186.23770000000002,196.2496,186.4629,196.1294Q186.6882,196.0093,186.91809999999998,195.8984Q187.1481,195.7876,187.3823,195.68619999999999Q187.6166,195.5848,187.8548,195.4931Q188.0931,195.4014,188.3348,195.3194Q188.57659999999998,195.2375,188.82150000000001,195.1655Q189.0664,195.0935,189.3141,195.0316Q189.5617,194.9697,189.8117,194.9179Q190.0617,194.8662,190.3136,194.8246Q190.5654,194.7831,190.8188,194.7519Q191.0722,194.7207,191.32659999999998,194.6999Q191.58100000000002,194.6791,191.8361,194.6687Q192.09109999999998,194.6582,192.34640000000002,194.6582L311.813,194.6582ZM311.813,219.6582L192.34640000000002,219.6582L192.34640000000002,207.1582L204.4134,210.4197L178.25400000000002,307.206L167.1296,348.36400000000003L155.0626,345.103L155.0626,332.603L329.716,332.603L329.716,345.103L317.649,341.841L354.933,203.89679999999998L367,207.1582L367,219.6582L311.813,219.6582ZM322.937,178.5L148.28379999999999,178.5L148.28379999999999,166L160.3508,169.26148L123.06700000000001,307.206L111,303.94399999999996L111,291.444L285.654,291.444L285.654,303.94399999999996L273.587,300.683L310.87,162.73852L322.937,166L322.937,178.5ZM322.937,153.5Q324.597,153.5,326.199,153.933Q326.495,154.0131,326.78700000000003,154.1076Q327.079,154.2021,327.366,154.3108Q327.653,154.4195,327.93399999999997,154.5422Q328.21500000000003,154.6648,328.49,154.8011Q328.765,154.9375,329.033,155.0871Q329.301,155.2367,329.56100000000004,155.3994Q329.822,155.562,330.073,155.7371Q330.325,155.9123,330.568,156.09965Q330.81100000000004,156.28699,331.04499999999996,156.48602Q331.279,156.68505,331.502,156.8953Q331.726,157.10555,331.93899999999996,157.32652Q332.151,157.54749,332.353,157.77863Q332.555,158.00978,332.745,158.25055Q332.93600000000004,158.49132,333.11400000000003,158.74114Q333.29200000000003,158.99096,333.45799999999997,159.24922Q333.623,159.50747,333.776,159.77355Q333.929,160.03963,334.06899999999996,160.31289Q334.20799999999997,160.58615,334.334,160.86593Q334.46000000000004,161.14571,334.573,161.43134Q334.685,161.71697,334.783,162.00775Q334.881,162.29854,334.964,162.59379Q335.048,162.88903,335.11699999999996,163.18802Q335.18600000000004,163.48702,335.24,163.78904Q335.29499999999996,164.09106,335.334,164.39537Q335.373,164.69969,335.398,165.005579Q335.422,165.311464,335.432,165.618178Q335.44100000000003,165.9248931,335.435,166.231698Q335.43,166.538503,335.409,166.844659Q335.38800000000003,167.15082,335.352,167.45559Q335.317,167.76036,335.26599999999996,168.06301Q335.21500000000003,168.36566,335.15,168.66546Q335.084,168.96526,335.004,169.26148L297.721,307.206Q297.654,307.452,297.577,307.696Q297.501,307.93899999999996,297.414,308.18Q297.328,308.41999999999996,297.23199999999997,308.656Q297.135,308.89300000000003,297.03,309.125Q296.924,309.35699999999997,296.80899999999997,309.58500000000004Q296.693,309.813,296.56899999999996,310.036Q296.445,310.259,296.31100000000004,310.476Q296.178,310.69399999999996,296.036,310.906Q295.89300000000003,311.118,295.743,311.324Q295.592,311.53,295.433,311.73Q295.274,311.93,295.10699999999997,312.123Q294.94,312.31600000000003,294.765,312.502Q294.591,312.688,294.408,312.86699999999996Q294.226,313.04499999999996,294.03700000000003,313.217Q293.847,313.38800000000003,293.651,313.551Q293.45500000000004,313.714,293.252,313.87Q293.05,314.025,292.841,314.172Q292.632,314.318,292.41700000000003,314.456Q292.203,314.595,291.98199999999997,314.724Q291.762,314.853,291.53700000000003,314.973Q291.312,315.09299999999996,291.082,315.204Q290.852,315.315,290.618,315.416Q290.38300000000004,315.51800000000003,290.145,315.61Q289.90700000000004,315.701,289.66499999999996,315.783Q289.423,315.865,289.178,315.937Q288.93399999999997,316.009,288.68600000000004,316.071Q288.438,316.13300000000004,288.188,316.185Q287.938,316.236,287.68600000000004,316.278Q287.435,316.32,287.18100000000004,316.351Q286.928,316.382,286.673,316.403Q286.419,316.424,286.164,316.43399999999997Q285.909,316.44399999999996,285.654,316.44399999999996L111,316.44399999999996Q109.34052,316.44399999999996,107.73852,316.01099999999997Q107.44229,315.93100000000004,107.15034,315.837Q106.8584,315.74199999999996,106.57145,315.634Q106.28449,315.525,106.00322,315.402Q105.72194,315.28,105.44703,315.14300000000003Q105.17211,315.007,104.90421,314.85699999999997Q104.63632,314.70799999999997,104.37609,314.54499999999996Q104.11585,314.382,103.86392000000001,314.207Q103.61198,314.03200000000004,103.36894,313.845Q103.1259,313.65700000000004,102.89234,313.45799999999997Q102.65879,313.259,102.43528,313.049Q102.21177,312.839,101.99885,312.618Q101.78593000000001,312.397,101.5841,312.166Q101.38228,311.935,101.19204,311.69399999999996Q101.0018,311.453,100.8236,311.203Q100.6454,310.953,100.4797,310.695Q100.314,310.437,100.1611,310.171Q100.0083,309.905,99.8687,309.632Q99.729,309.358,99.603,309.078Q99.477,308.799,99.3648,308.51300000000003Q99.2527,308.227,99.1547,307.937Q99.0567,307.64599999999996,98.973,307.351Q98.8894,307.055,98.8204,306.756Q98.7514,306.457,98.6971,306.155Q98.6428,305.853,98.6034,305.549Q98.564,305.245,98.53960000000001,304.93899999999996Q98.5152,304.63300000000004,98.5058,304.326Q98.4965,304.02,98.5021,303.71299999999997Q98.5078,303.406,98.5286,303.1Q98.5493,302.794,98.58500000000001,302.48900000000003Q98.6208,302.18399999999997,98.6714,301.881Q98.7221,301.579,98.7875,301.279Q98.8529,300.97900000000004,98.93299999999999,300.683L136.2168,162.73852Q136.2834,162.49208,136.36,162.24858Q136.4366,162.00507,136.5231,161.76489Q136.6096,161.52472,136.7058,161.28827Q136.802,161.05183,136.9078,160.81951Q137.0136,160.58719,137.1288,160.35938Q137.244,160.13157999999999,137.3684,159.90866Q137.4928,159.68575,137.6262,159.4681Q137.7596,159.25045,137.9017,159.03843Q138.0439,158.82641,138.1946,158.62037Q138.3453,158.41433,138.5043,158.21461Q138.6633,158.0149,138.8303,157.82184Q138.9973,157.62878,139.1721,157.4427Q139.3468,157.25663,139.5291,157.07784Q139.7113,156.89905,139.9006,156.72785Q140.09,156.55665,140.2862,156.39332Q140.4823,156.23,140.685,156.07482Q140.8877,155.9196,141.0966,155.7729Q141.3054,155.6261,141.5201,155.488Q141.7348,155.3498,141.9549,155.2206Q142.1751,155.0913,142.40030000000002,154.9712Q142.6255,154.851,142.8555,154.7402Q143.0854,154.6293,143.3197,154.5279Q143.554,154.4266,143.7922,154.3348Q144.0304,154.2431,144.2722,154.1612Q144.514,154.0793,144.75889999999998,154.0073Q145.0038,153.9353,145.2515,153.8734Q145.4991,153.8114,145.7491,153.7597Q145.9991,153.7079,146.2509,153.6664Q146.5028,153.6249,146.7562,153.5937Q147.0095,153.5625,147.264,153.5417Q147.51839999999999,153.5208,147.7734,153.5104Q148.0285,153.5,148.28379999999999,153.5L322.937,153.5L322.937,153.5Z" fill="url(#master_svg3_56_1331)" fill-opacity="1"/></g><g style="mix-blend-mode:passthrough"><path d="M166.18222045898438,304.00814589843753L285.64922045898436,304.0082458984375L311.80822045898435,207.2220458984375L192.34172045898438,207.2220502363575L166.18222045898438,304.00814589843753Z" fill="url(#master_svg4_56_1432)" fill-opacity="1"/></g></g><g style="mix-blend-mode:passthrough"><path d="M534.6406,292Q519.875,292,515.07812,280.016Q510.28125,268.0156,513.64062,242.8281Q517.125,217.1562,525.5156,205.1719Q533.9219,193.1719,547.3594,193.1719Q562.3594,193.1719,567.0938,205.1719Q571.8438,217.1562,568.3594,242.8281Q565,268.0156,556.6562,280.016Q548.3125,292,534.6406,292ZM535.8438,281.172Q544.125,281.172,548.2656,271.812Q552.4062,262.4375,555.4062,242.8438Q558.4062,223,556.4844,213.5Q554.5625,204,546.4062,204Q538.125,204,533.8594,213.5Q529.5938,223,526.5938,242.8438Q523.5938,262.4375,525.6875,271.812Q527.7969,281.172,535.8438,281.172ZM583.4844,291L577.125,218L589,218L591.875,261.3125Q592.125,265.1406,592.2969,268.9219Q592.4844,272.688,592.5938,276.516Q593.7969,272.797,595.0469,268.9688Q596.3125,265.1406,597.6406,261.3125L612.281,218L624.281,218L597.4062,291L583.4844,291ZM667.922,270.8906Q665.047,280.906,658.672,286.453Q652.312,292,643.688,292Q634.562,292,630.234,287Q625.922,282.016,625.141,273.359Q624.359,264.6875,625.688,253.5938Q627.125,242.5312,630.297,234.1094Q633.484,225.6719,639.125,220.9219Q644.766,216.1719,653.156,216.1719Q661.922,216.1719,666.234,221.0469Q670.562,225.9062,671.344,235.0312Q672.125,244.1562,670.312,257L636.719,257Q636,263.2969,636.109,268.7969Q636.234,274.281,638.156,277.734Q640.078,281.172,644.766,281.172Q653.406,281.172,657.234,269.3281L667.922,270.8906ZM652.203,227Q647.047,227,643.672,232.125Q640.312,237.2344,638.281,247L659.516,247Q660,241.2812,659.641,236.7656Q659.281,232.2344,657.531,229.625Q655.797,227,652.203,227ZM687,291L675.594,291L685.922,217L697.312,217L696,226.2969Q699.484,221.0469,704.281,218.7812Q709.078,216.5,714.359,216.5L712.797,228.3438Q706.203,227.5,700.797,231.6719Q695.406,235.8281,693.484,244.875L687,291ZM760.125,291L748.125,291L760.125,205L740.438,205L741.875,194.1719L793.3589999999999,194.1719L791.797,205L772.125,205L760.125,291ZM808.312,292Q796.688,292,792.3589999999999,282.797Q788.047,273.594,790.562,254.2031Q793.078,234.5781,799.7339999999999,225.375Q806.406,216.1719,817.797,216.1719Q829.562,216.1719,833.875,225.375Q838.203,234.5781,835.688,254.2031Q833.156,273.594,826.5,282.797Q819.844,292,808.312,292ZM809.156,281.172Q814.688,281.172,818.219,274.609Q821.7660000000001,268.0469,823.688,254.2031Q825.719,240.2344,824.031,233.625Q822.3589999999999,227,816.844,227Q811.562,227,808.078,233.625Q804.594,240.2344,802.562,254.2031Q800.6410000000001,268.0469,802.203,274.609Q803.7660000000001,281.172,809.156,281.172ZM849.875,315L838.2339999999999,315L852.156,217.375L863.078,217.375L862.594,223.0312Q867.7660000000001,216.1719,875.562,216.1719Q884.688,216.1719,888.7660000000001,225.5Q892.844,234.8281,890.797,253Q889.4839999999999,264.3281,886.172,273.172Q882.875,282.016,877.656,287Q872.438,292,865.4839999999999,292Q857.688,292,854.078,285.141L849.875,315ZM872.203,227Q868.2339999999999,227,865.2339999999999,230.0781Q862.2339999999999,233.1406,860.797,238.3125L856.4839999999999,268.1719Q856.2339999999999,273.828,858.453,277.5Q860.688,281.172,864.6410000000001,281.172Q868.719,281.172,871.422,277.438Q874.125,273.703,875.922,267.5781Q877.719,261.4375,878.688,254.2031Q879.875,246.1406,879.688,240Q879.5160000000001,233.8594,877.781,230.4375Q876.047,227,872.203,227Z" fill="#3D3D3D" fill-opacity="1"/></g><g style="mix-blend-mode:passthrough"><path d="M210.6016,494.2422Q209.6406,495.6797,208.0625,496.5Q206.4922,497.3125,204.55469,497.3125Q202.10156,497.3125,200.25,496.125Q198.40625,494.9375,197.38281,492.7812Q196.36719,490.6172,196.36719,487.7812Q196.36719,485,197.38281,482.8906Q198.40625,480.77344,200.25,479.60938Q202.10156,478.44531,204.55469,478.44531Q206.4453,478.44531,208.0547,479.26562Q209.6641,480.07812,210.6016,481.52344L209.1094,482.5781Q208.3672,481.49219,207.0938,480.85156Q205.8203,480.20312,204.53125,480.20312Q202.67969,480.20312,201.26562,481.14844Q199.85156,482.0938,199.07031,483.8125Q198.28906,485.5312,198.28906,487.7812Q198.28906,490.0859,199.07031,491.8516Q199.85156,493.6172,201.26562,494.5938Q202.67969,495.5625,204.53125,495.5625Q205.8516,495.5625,207.0703,494.9141Q208.2969,494.2656,209.1094,493.1328L210.6016,494.2422ZM218.3906,497.3125Q216.6562,497.3125,215.3516,496.5Q214.0469,495.6797,213.3359,494.1719Q212.625,492.6562,212.625,490.6406Q212.625,488.625,213.3359,487.1172Q214.0469,485.6016,215.3516,484.7891Q216.6562,483.9688,218.3906,483.9688Q220.1172,483.9688,221.4219,484.7891Q222.7344,485.6016,223.4375,487.1172Q224.1484,488.625,224.1484,490.6406Q224.1484,492.6562,223.4375,494.1719Q222.7344,495.6797,221.4219,496.5Q220.1172,497.3125,218.3906,497.3125ZM218.3906,495.6328Q220.1641,495.6328,221.2422,494.2812Q222.3203,492.9219,222.3203,490.6406Q222.3203,488.3594,221.2422,487.0078Q220.1641,485.6484,218.3906,485.6484Q216.6094,485.6484,215.5312,487.0078Q214.4531,488.3594,214.4531,490.6406Q214.4531,492.9219,215.5312,494.2812Q216.6094,495.6328,218.3906,495.6328ZM227.25,502.7109L227.25,484.3047L229.0312,484.3047L229.0312,486.3203L229.1484,486.3203Q229.8438,485.2188,230.9219,484.5938Q232.0078,483.9688,233.2734,483.9688Q234.8125,483.9688,236.0469,484.7969Q237.2812,485.625,237.9766,487.1016Q238.6797,488.5781,238.6797,490.4453Q238.6797,492.4141,237.9766,493.9766Q237.2812,495.5391,236.0469,496.4141Q234.8125,497.2891,233.2734,497.2891Q231.9062,497.2891,230.8516,496.6875Q229.7969,496.0859,229.1484,494.9609L229.0312,494.9609L229.0312,502.7109L227.25,502.7109ZM228.9531,490.6406Q228.9531,492.0781,229.4453,493.1953Q229.9375,494.3125,230.8125,494.9375Q231.6953,495.5625,232.8203,495.5625Q233.9688,495.5625,234.8906,494.9375Q235.8203,494.3125,236.3438,493.1953Q236.875,492.0781,236.875,490.6406Q236.875,489.2266,236.3594,488.1094Q235.8438,486.9922,234.9297,486.3594Q234.0234,485.7188,232.8672,485.7188Q231.7422,485.7188,230.8516,486.3594Q229.9609,486.9922,229.4531,488.1094Q228.9531,489.2266,228.9531,490.6406ZM245.0859,496.9766L240.1406,484.3047L242.1562,484.3047L246.0938,494.7422L246.2422,494.7422L250.0312,484.3047L252.0469,484.3047L244.9219,502.7344L242.9297,502.7344L245.0859,496.9766ZM253.75,496.9766L253.75,484.3047L255.5312,484.3047L255.5312,486.8516L255.6484,486.8516Q256.4141,485.5312,257.6641,484.75Q258.9141,483.9688,260.4688,483.9688L260.6641,483.9688L260.6641,485.8906L260.4219,485.8906Q258.9609,485.8906,257.8438,486.4297Q256.7266,486.9688,256.125,487.8438Q255.5312,488.7188,255.5312,489.6797L255.5312,496.9766L253.75,496.9766ZM265.1484,479.69531Q265.1484,480.27344,264.7969,480.60938Q264.4531,480.94531,263.8828,480.94531Q263.3047,480.94531,262.9766,480.60938Q262.6562,480.27344,262.6562,479.69531Q262.6562,479.11719,262.9766,478.78125Q263.3047,478.44531,263.8828,478.44531Q264.4531,478.44531,264.7969,478.78125Q265.1484,479.11719,265.1484,479.69531ZM264.7891,484.3047L264.7891,497L263.0156,497L263.0156,484.3047L264.7891,484.3047ZM273.8672,503.0234Q272.1562,503.0234,270.7656,502.3281Q269.375,501.6328,268.5625,500.3828L270.0469,499.375Q270.6484,500.3125,271.7031,500.8359Q272.7578,501.3672,273.8672,501.3672Q275.7344,501.3672,276.7656,500.2266Q277.7969,499.0859,277.7969,497.0234L277.7969,494.9609L277.6562,494.9609Q277.0312,496.0859,275.9766,496.7031Q274.9219,497.3125,273.6016,497.3125Q272.0625,497.3125,270.8125,496.4375Q269.5703,495.5625,268.8438,494.0156Q268.125,492.4609,268.125,490.5234Q268.125,488.625,268.8359,487.125Q269.5469,485.625,270.8047,484.7969Q272.0625,483.9688,273.6016,483.9688Q274.8203,483.9688,275.875,484.5938Q276.9375,485.2188,277.6562,486.3203L277.7969,486.3203L277.7969,484.3281L279.5781,484.3281L279.5781,496.7344Q279.5781,499.7578,278.1016,501.3906Q276.625,503.0234,273.8672,503.0234ZM274.0312,495.5625Q275.1562,495.5625,276.0234,494.9375Q276.8906,494.3125,277.3672,493.1953Q277.8516,492.0781,277.8516,490.6406Q277.8516,489.2266,277.3594,488.1016Q276.8672,486.9688,275.9766,486.3438Q275.0859,485.7188,273.9609,485.7188Q272.8047,485.7188,271.8906,486.3438Q270.9844,486.9688,270.4688,488.0859Q269.9531,489.2031,269.9531,490.6406Q269.9531,492.0781,270.4766,493.1953Q271.0078,494.3125,271.9297,494.9375Q272.8594,495.5625,274.0312,495.5625ZM283.25,496.9766L283.25,478.78125L285.0312,478.78125L285.0312,486.25L285.1484,486.25Q285.7266,485.2188,286.8516,484.5938Q287.9766,483.9688,289.2031,483.9688Q291.3125,483.9688,292.5156,485.2891Q293.7188,486.6094,293.7188,488.9844L293.7188,496.9766L291.9375,496.9766L291.9375,489.2734Q291.9375,487.6172,291.0391,486.6094Q290.1406,485.6016,288.7734,485.6016Q287.1172,485.6016,286.0703,486.6953Q285.0312,487.7812,285.0312,489.4609L285.0312,496.9766L283.25,496.9766ZM303.445,485.9844L299.773,485.9844L299.773,493.4453Q299.773,494.5547,300.32,495.1641Q300.875,495.7734,301.859,495.7734Q302.367,495.7734,303.156,495.5156L303.156,497.1719Q302.508,497.4297,301.5,497.4297Q299.797,497.4297,298.883,496.4375Q297.969,495.4375,297.969,493.5938L297.969,485.9844L295.977,485.9844L295.977,484.3047L297.969,484.3047L297.969,480.34375L299.773,480.34375L299.773,484.3047L303.445,484.3047L303.445,485.9844ZM323.062,497.3125Q320.32,497.3125,318.164,496.1172Q316.008,494.9141,314.805,492.7656Q313.602,490.6172,313.602,487.8828Q313.602,485.1406,314.805,483Q316.008,480.85156,318.164,479.64844Q320.32,478.44531,323.062,478.44531Q325.797,478.44531,327.93,479.64844Q330.07,480.85156,331.26599999999996,483Q332.469,485.1406,332.469,487.8828Q332.469,490.6172,331.26599999999996,492.7656Q330.07,494.9141,327.93,496.1172Q325.797,497.3125,323.062,497.3125ZM323.062,496.2812Q325.461,496.2812,327.352,495.2109Q329.25,494.1406,330.32,492.2266Q331.39099999999996,490.3047,331.39099999999996,487.8828Q331.39099999999996,485.4531,330.32,483.5391Q329.25,481.61719,327.352,480.54688Q325.461,479.47656,323.062,479.47656Q320.633,479.47656,318.734,480.54688Q316.844,481.61719,315.773,483.5391Q314.711,485.4531,314.711,487.8828Q314.711,490.3047,315.773,492.2266Q316.844,494.1406,318.734,495.2109Q320.633,496.2812,323.062,496.2812ZM323.273,494.1953Q321.641,494.1953,320.391,493.4062Q319.148,492.6094,318.461,491.1562Q317.781,489.7031,317.781,487.8047Q317.781,485.9375,318.461,484.5234Q319.148,483.1016,320.391,482.3359Q321.641,481.57031,323.273,481.57031Q324.64099999999996,481.57031,325.789,482.2109Q326.945,482.8438,327.547,483.9219L326.10900000000004,484.9297Q325.703,484.2344,324.906,483.7656Q324.11699999999996,483.2969,323.273,483.2969Q321.617,483.2969,320.617,484.5312Q319.625,485.7656,319.625,487.8047Q319.625,489.9219,320.617,491.1953Q321.617,492.4609,323.273,492.4609Q324.11699999999996,492.4609,324.898,492.0078Q325.68,491.5547,326.13300000000004,490.7812L327.547,491.8438Q326.922,492.9453,325.781,493.5703Q324.64099999999996,494.1953,323.273,494.1953ZM337.195,495.25L345.695,495.25L345.695,496.9766L334.703,496.9766L334.703,495.4141L340.26599999999996,489.0547Q341.969,487.0625,342.703,485.7656Q343.438,484.4688,343.438,483.3438Q343.438,481.90625,342.50800000000004,481.03125Q341.586,480.14844,340.078,480.14844Q338.828,480.14844,337.828,480.88281Q336.836,481.61719,336.211,483.0312L334.625,482.2422Q335.352,480.41406,336.76599999999996,479.42969Q338.18,478.44531,340.125,478.44531Q341.656,478.44531,342.844,479.03906Q344.039,479.625,344.695,480.71875Q345.35900000000004,481.80469,345.35900000000004,483.25Q345.35900000000004,484.6406,344.555,486.2266Q343.75,487.8047,341.922,489.8984L337.195,495.25ZM354.51599999999996,497.3125Q351.63300000000004,497.3125,350.055,494.8672Q348.48400000000004,492.4141,348.48400000000004,487.8828Q348.48400000000004,483.3438,350.055,480.89844Q351.63300000000004,478.44531,354.51599999999996,478.44531Q357.39099999999996,478.44531,358.977,480.89844Q360.562,483.3438,360.562,487.8828Q360.562,492.4141,358.977,494.8672Q357.39099999999996,497.3125,354.51599999999996,497.3125ZM354.51599999999996,495.5859Q356.477,495.5859,357.555,493.5859Q358.64099999999996,491.5781,358.64099999999996,487.8828Q358.64099999999996,484.1875,357.547,482.1719Q356.453,480.14844,354.51599999999996,480.14844Q352.57,480.14844,351.48400000000004,482.1562Q350.406,484.1562,350.406,487.8828Q350.406,491.5781,351.48400000000004,493.5859Q352.57,495.5859,354.51599999999996,495.5859ZM365.695,495.25L374.195,495.25L374.195,496.9766L363.203,496.9766L363.203,495.4141L368.76599999999996,489.0547Q370.469,487.0625,371.203,485.7656Q371.938,484.4688,371.938,483.3438Q371.938,481.90625,371.00800000000004,481.03125Q370.086,480.14844,368.578,480.14844Q367.328,480.14844,366.328,480.88281Q365.336,481.61719,364.711,483.0312L363.125,482.2422Q363.852,480.41406,365.26599999999996,479.42969Q366.68,478.44531,368.625,478.44531Q370.156,478.44531,371.344,479.03906Q372.539,479.625,373.195,480.71875Q373.85900000000004,481.80469,373.85900000000004,483.25Q373.85900000000004,484.6406,373.055,486.2266Q372.25,487.8047,370.422,489.8984L365.695,495.25ZM382.031,486.3438Q382.48400000000004,486.25,383.062,486.25Q384.406,486.25,385.61699999999996,486.875Q386.828,487.4922,387.586,488.7188Q388.344,489.9453,388.344,491.6719Q388.344,493.375,387.61699999999996,494.6484Q386.898,495.9219,385.578,496.6172Q384.25800000000004,497.3125,382.555,497.3125Q380.60900000000004,497.3125,379.062,496.2734Q377.51599999999996,495.2266,376.797,493.375L378.5,492.75Q379.68,495.5859,382.625,495.5859Q384.328,495.5859,385.375,494.5156Q386.422,493.4453,386.422,491.6719Q386.422,489.8984,385.352,488.8281Q384.281,487.7578,382.50800000000004,487.7578Q381.38300000000004,487.7578,380.375,488.3359L379.344,486.9219L384.906,480.48438L377.25,480.48438L377.25,478.78125L387.35900000000004,478.78125L387.35900000000004,480.34375L381.977,486.25L382.031,486.3438ZM405.273,478.78125Q408.539,478.78125,410.312,480.22656Q412.086,481.66406,412.086,484.3047Q412.086,486.9688,410.36699999999996,488.3984Q408.656,489.8203,405.438,489.8203L401.76599999999996,489.8203L401.76599999999996,496.9766L399.922,496.9766L399.922,478.78125L405.273,478.78125ZM405.102,488.0938Q407.531,488.0938,408.852,487.1094Q410.172,486.125,410.172,484.3047Q410.172,482.4766,408.852,481.50781Q407.531,480.53906,405.102,480.53906L401.76599999999996,480.53906L401.76599999999996,488.0938L405.102,488.0938ZM425.094,484.3047L425.094,496.9766L423.32,496.9766L423.32,495.0547L423.18,495.0547Q422.602,496.0859,421.48400000000004,496.7031Q420.36699999999996,497.3125,419.11699999999996,497.3125Q417.00800000000004,497.3125,415.82,496.0078Q414.63300000000004,494.6953,414.63300000000004,492.3203L414.63300000000004,484.3047L416.406,484.3047L416.406,492.0312Q416.406,493.7109,417.281,494.6953Q418.156,495.6797,419.578,495.6797Q421.23400000000004,495.6797,422.273,494.6016Q423.32,493.5234,423.32,491.8125L423.32,484.3047L425.094,484.3047ZM428.75,496.9766L428.75,484.3047L430.531,484.3047L430.531,486.8516L430.648,486.8516Q431.414,485.5312,432.664,484.75Q433.914,483.9688,435.469,483.9688L435.664,483.9688L435.664,485.8906L435.422,485.8906Q433.961,485.8906,432.844,486.4297Q431.727,486.9688,431.125,487.8438Q430.531,488.7188,430.531,489.6797L430.531,496.9766L428.75,496.9766ZM441.156,497.3125Q439.289,497.3125,438.203,496.3672Q437.125,495.4141,437.125,493.8281Q437.125,489.75,443.48400000000004,489.75L445.35900000000004,489.75L445.35900000000004,488.6016Q445.35900000000004,487.2109,444.539,486.4062Q443.727,485.6016,442.312,485.6016Q440.703,485.6016,439.07,486.9688L438.01599999999996,485.7422Q439.914,483.9688,442.406,483.9688Q444.61699999999996,483.9688,445.88300000000004,485.1484Q447.156,486.3203,447.156,488.3594L447.156,496.9766L445.35900000000004,496.9766L445.35900000000004,495.0547L445.24199999999996,495.0547Q444.664,496.0859,443.547,496.7031Q442.43,497.3125,441.156,497.3125ZM441.469,495.6797Q442.35900000000004,495.6797,443.25800000000004,495.2891Q444.156,494.8906,444.75800000000004,494.0859Q445.35900000000004,493.2812,445.35900000000004,492.1484L445.35900000000004,491.3828L443.82,491.3828Q441.328,491.3828,440.14099999999996,491.9609Q438.953,492.5391,438.953,493.7109Q438.953,494.625,439.625,495.1562Q440.297,495.6797,441.469,495.6797ZM450.75,496.9766L450.75,484.3047L452.531,484.3047L452.531,486.25L452.648,486.25Q453.227,485.2188,454.352,484.5938Q455.477,483.9688,456.703,483.9688Q458.812,483.9688,460.016,485.2891Q461.219,486.6094,461.219,488.9844L461.219,496.9766L459.438,496.9766L459.438,489.2734Q459.438,487.6172,458.539,486.6094Q457.641,485.6016,456.273,485.6016Q454.617,485.6016,453.57,486.6953Q452.531,487.7812,452.531,489.4609L452.531,496.9766L450.75,496.9766ZM475.266,478.78125L475.266,495.2266L484.438,495.2266L484.438,496.9766L473.422,496.9766L473.422,478.78125L475.266,478.78125ZM490.156,497.3125Q488.289,497.3125,487.203,496.3672Q486.125,495.4141,486.125,493.8281Q486.125,489.75,492.484,489.75L494.359,489.75L494.359,488.6016Q494.359,487.2109,493.539,486.4062Q492.727,485.6016,491.312,485.6016Q489.703,485.6016,488.07,486.9688L487.016,485.7422Q488.914,483.9688,491.406,483.9688Q493.617,483.9688,494.883,485.1484Q496.156,486.3203,496.156,488.3594L496.156,496.9766L494.359,496.9766L494.359,495.0547L494.242,495.0547Q493.664,496.0859,492.547,496.7031Q491.43,497.3125,490.156,497.3125ZM490.469,495.6797Q491.359,495.6797,492.258,495.2891Q493.156,494.8906,493.758,494.0859Q494.359,493.2812,494.359,492.1484L494.359,491.3828L492.82,491.3828Q490.328,491.3828,489.141,491.9609Q487.953,492.5391,487.953,493.7109Q487.953,494.625,488.625,495.1562Q489.297,495.6797,490.469,495.6797ZM502.148,479.69531Q502.148,480.27344,501.797,480.60938Q501.453,480.94531,500.883,480.94531Q500.305,480.94531,499.977,480.60938Q499.656,480.27344,499.656,479.69531Q499.656,479.11719,499.977,478.78125Q500.305,478.44531,500.883,478.44531Q501.453,478.44531,501.797,478.78125Q502.148,479.11719,502.148,479.69531ZM501.789,484.3047L501.789,497L500.016,497L500.016,484.3047L501.789,484.3047ZM505.75,496.9766L505.75,494.6484L508.055,494.6484L508.055,496.9766L505.75,496.9766ZM533.953,496.9766L531.9839999999999,496.9766L529.781,490.7578L523.0160000000001,490.7578L520.8050000000001,496.9766L518.836,496.9766L525.414,478.78125L527.3589999999999,478.78125L533.953,496.9766ZM526.3199999999999,481.49219L523.656,488.9844L529.133,488.9844L526.469,481.49219L526.3199999999999,481.49219ZM536.25,478.78125L538.031,478.78125L538.031,494.4766Q538.031,495.5156,539.039,495.5156L539.711,495.5156L539.711,497.1719L538.648,497.1719Q536.25,497.1719,536.25,494.9609L536.25,478.78125ZM542.25,478.78125L544.031,478.78125L544.031,494.4766Q544.031,495.5156,545.039,495.5156L545.711,495.5156L545.711,497.1719L544.648,497.1719Q542.25,497.1719,542.25,494.9609L542.25,478.78125ZM569.5699999999999,496.9766L567.383,496.9766L562.773,489.1797L562.25,489.1797L558.7660000000001,489.1797L558.7660000000001,496.9766L556.922,496.9766L556.922,478.78125L562.0550000000001,478.78125Q565.3199999999999,478.78125,567.086,480.15625Q568.852,481.52344,568.852,484.0391Q568.852,485.9844,567.781,487.2188Q566.711,488.4531,564.6949999999999,488.9375L569.5699999999999,496.9766ZM561.914,487.3984Q564.336,487.3984,565.633,486.5234Q566.9300000000001,485.6484,566.9300000000001,484.0391Q566.9300000000001,482.3594,565.633,481.45312Q564.336,480.53906,561.914,480.53906L558.7660000000001,480.53906L558.7660000000001,487.3984L561.914,487.3984ZM574.148,479.69531Q574.148,480.27344,573.797,480.60938Q573.453,480.94531,572.883,480.94531Q572.3050000000001,480.94531,571.977,480.60938Q571.656,480.27344,571.656,479.69531Q571.656,479.11719,571.977,478.78125Q572.3050000000001,478.44531,572.883,478.44531Q573.453,478.44531,573.797,478.78125Q574.148,479.11719,574.148,479.69531ZM573.789,484.3047L573.789,497L572.0160000000001,497L572.0160000000001,484.3047L573.789,484.3047ZM582.867,503.0234Q581.156,503.0234,579.7660000000001,502.3281Q578.375,501.6328,577.562,500.3828L579.047,499.375Q579.648,500.3125,580.703,500.8359Q581.758,501.3672,582.867,501.3672Q584.7339999999999,501.3672,585.7660000000001,500.2266Q586.797,499.0859,586.797,497.0234L586.797,494.9609L586.656,494.9609Q586.031,496.0859,584.977,496.7031Q583.922,497.3125,582.602,497.3125Q581.062,497.3125,579.812,496.4375Q578.5699999999999,495.5625,577.844,494.0156Q577.125,492.4609,577.125,490.5234Q577.125,488.625,577.836,487.125Q578.547,485.625,579.8050000000001,484.7969Q581.062,483.9688,582.602,483.9688Q583.8199999999999,483.9688,584.875,484.5938Q585.938,485.2188,586.656,486.3203L586.797,486.3203L586.797,484.3281L588.578,484.3281L588.578,496.7344Q588.578,499.7578,587.102,501.3906Q585.625,503.0234,582.867,503.0234ZM583.031,495.5625Q584.156,495.5625,585.023,494.9375Q585.8910000000001,494.3125,586.367,493.1953Q586.852,492.0781,586.852,490.6406Q586.852,489.2266,586.3589999999999,488.1016Q585.867,486.9688,584.977,486.3438Q584.086,485.7188,582.961,485.7188Q581.8050000000001,485.7188,580.8910000000001,486.3438Q579.9839999999999,486.9688,579.469,488.0859Q578.953,489.2031,578.953,490.6406Q578.953,492.0781,579.477,493.1953Q580.008,494.3125,580.9300000000001,494.9375Q581.8589999999999,495.5625,583.031,495.5625ZM592.25,496.9766L592.25,478.78125L594.031,478.78125L594.031,486.25L594.148,486.25Q594.727,485.2188,595.852,484.5938Q596.977,483.9688,598.203,483.9688Q600.312,483.9688,601.5160000000001,485.2891Q602.719,486.6094,602.719,488.9844L602.719,496.9766L600.938,496.9766L600.938,489.2734Q600.938,487.6172,600.039,486.6094Q599.1410000000001,485.6016,597.773,485.6016Q596.117,485.6016,595.0699999999999,486.6953Q594.031,487.7812,594.031,489.4609L594.031,496.9766L592.25,496.9766ZM612.4449999999999,485.9844L608.773,485.9844L608.773,493.4453Q608.773,494.5547,609.3199999999999,495.1641Q609.875,495.7734,610.8589999999999,495.7734Q611.367,495.7734,612.156,495.5156L612.156,497.1719Q611.508,497.4297,610.5,497.4297Q608.797,497.4297,607.883,496.4375Q606.969,495.4375,606.969,493.5938L606.969,485.9844L604.977,485.9844L604.977,484.3047L606.969,484.3047L606.969,480.34375L608.773,480.34375L608.773,484.3047L612.4449999999999,484.3047L612.4449999999999,485.9844ZM618.828,497.3125Q617.031,497.3125,615.7339999999999,496.5547Q614.438,495.7969,613.742,494.5078L615.258,493.6172Q615.828,494.6016,616.75,495.1406Q617.6800000000001,495.6797,618.883,495.6797Q620.1800000000001,495.6797,620.9300000000001,495.1641Q621.688,494.6484,621.688,493.7578Q621.688,492.9219,620.9449999999999,492.3984Q620.203,491.8672,618.523,491.5078Q616.312,490.9766,615.219,490.1172Q614.125,489.25,614.125,487.8281Q614.125,486.0547,615.3589999999999,485.0156Q616.602,483.9688,618.7339999999999,483.9688Q620.3199999999999,483.9688,621.531,484.6562Q622.742,485.3359,623.539,486.6094L622.117,487.6172Q621.492,486.6328,620.617,486.1172Q619.742,485.6016,618.711,485.6016Q617.461,485.6016,616.719,486.1562Q615.977,486.7031,615.977,487.6172Q615.977,488.4062,616.781,488.9609Q617.586,489.5156,619.1949999999999,489.8984Q623.5160000000001,490.8281,623.5160000000001,493.4688Q623.5160000000001,495.25,622.25,496.2812Q620.992,497.3125,618.828,497.3125ZM647.5699999999999,496.9766L645.383,496.9766L640.773,489.1797L640.25,489.1797L636.7660000000001,489.1797L636.7660000000001,496.9766L634.922,496.9766L634.922,478.78125L640.0550000000001,478.78125Q643.3199999999999,478.78125,645.086,480.15625Q646.852,481.52344,646.852,484.0391Q646.852,485.9844,645.781,487.2188Q644.711,488.4531,642.6949999999999,488.9375L647.5699999999999,496.9766ZM639.914,487.3984Q642.336,487.3984,643.633,486.5234Q644.9300000000001,485.6484,644.9300000000001,484.0391Q644.9300000000001,482.3594,643.633,481.45312Q642.336,480.53906,639.914,480.53906L636.7660000000001,480.53906L636.7660000000001,487.3984L639.914,487.3984ZM660.2660000000001,489.6562Q660.2660000000001,490.4219,660.117,491.1406L650.953,491.1406Q651.0699999999999,493.2109,652.188,494.4375Q653.3050000000001,495.6562,655.102,495.6562Q656.156,495.6562,657.0699999999999,495.1562Q657.9839999999999,494.6484,658.586,493.6875L660,494.6484Q659.211,495.9219,657.969,496.6094Q656.7339999999999,497.2891,655.102,497.2891Q653.281,497.2891,651.922,496.4844Q650.5699999999999,495.6797,649.844,494.1797Q649.125,492.6797,649.125,490.6641Q649.125,488.625,649.8199999999999,487.1172Q650.523,485.6016,651.812,484.7891Q653.1089999999999,483.9688,654.867,483.9688Q657.336,483.9688,658.797,485.5156Q660.2660000000001,487.0625,660.2660000000001,489.6562ZM658.438,489.5391Q658.438,487.7578,657.453,486.6797Q656.469,485.6016,654.867,485.6016Q653.328,485.6016,652.3050000000001,486.6562Q651.289,487.7109,651.023,489.5391L658.438,489.5391ZM667.328,497.3125Q665.531,497.3125,664.2339999999999,496.5547Q662.938,495.7969,662.242,494.5078L663.758,493.6172Q664.328,494.6016,665.25,495.1406Q666.1800000000001,495.6797,667.383,495.6797Q668.6800000000001,495.6797,669.4300000000001,495.1641Q670.188,494.6484,670.188,493.7578Q670.188,492.9219,669.4449999999999,492.3984Q668.703,491.8672,667.023,491.5078Q664.812,490.9766,663.719,490.1172Q662.625,489.25,662.625,487.8281Q662.625,486.0547,663.8589999999999,485.0156Q665.102,483.9688,667.2339999999999,483.9688Q668.8199999999999,483.9688,670.031,484.6562Q671.242,485.3359,672.039,486.6094L670.617,487.6172Q669.992,486.6328,669.117,486.1172Q668.242,485.6016,667.211,485.6016Q665.961,485.6016,665.219,486.1562Q664.477,486.7031,664.477,487.6172Q664.477,488.4062,665.281,488.9609Q666.086,489.5156,667.6949999999999,489.8984Q672.0160000000001,490.8281,672.0160000000001,493.4688Q672.0160000000001,495.25,670.75,496.2812Q669.492,497.3125,667.328,497.3125ZM685.2660000000001,489.6562Q685.2660000000001,490.4219,685.117,491.1406L675.953,491.1406Q676.0699999999999,493.2109,677.188,494.4375Q678.3050000000001,495.6562,680.102,495.6562Q681.156,495.6562,682.0699999999999,495.1562Q682.9839999999999,494.6484,683.586,493.6875L685,494.6484Q684.211,495.9219,682.969,496.6094Q681.7339999999999,497.2891,680.102,497.2891Q678.281,497.2891,676.922,496.4844Q675.5699999999999,495.6797,674.844,494.1797Q674.125,492.6797,674.125,490.6641Q674.125,488.625,674.8199999999999,487.1172Q675.523,485.6016,676.812,484.7891Q678.1089999999999,483.9688,679.867,483.9688Q682.336,483.9688,683.797,485.5156Q685.2660000000001,487.0625,685.2660000000001,489.6562ZM683.438,489.5391Q683.438,487.7578,682.453,486.6797Q681.469,485.6016,679.867,485.6016Q678.328,485.6016,677.3050000000001,486.6562Q676.289,487.7109,676.023,489.5391L683.438,489.5391ZM688.25,496.9766L688.25,484.3047L690.031,484.3047L690.031,486.8516L690.148,486.8516Q690.914,485.5312,692.164,484.75Q693.414,483.9688,694.969,483.9688L695.164,483.9688L695.164,485.8906L694.922,485.8906Q693.461,485.8906,692.344,486.4297Q691.227,486.9688,690.625,487.8438Q690.031,488.7188,690.031,489.6797L690.031,496.9766L688.25,496.9766ZM700.5160000000001,496.9766L695.6410000000001,484.3047L697.586,484.3047L701.453,494.7188L701.594,494.7188L705.461,484.3047L707.383,484.3047L702.461,496.9766L700.5160000000001,496.9766ZM719.766,489.6562Q719.766,490.4219,719.617,491.1406L710.453,491.1406Q710.57,493.2109,711.688,494.4375Q712.805,495.6562,714.602,495.6562Q715.656,495.6562,716.57,495.1562Q717.484,494.6484,718.086,493.6875L719.5,494.6484Q718.711,495.9219,717.469,496.6094Q716.234,497.2891,714.602,497.2891Q712.781,497.2891,711.422,496.4844Q710.07,495.6797,709.344,494.1797Q708.625,492.6797,708.625,490.6641Q708.625,488.625,709.32,487.1172Q710.023,485.6016,711.312,484.7891Q712.609,483.9688,714.367,483.9688Q716.836,483.9688,718.297,485.5156Q719.766,487.0625,719.766,489.6562ZM717.938,489.5391Q717.938,487.7578,716.953,486.6797Q715.969,485.6016,714.367,485.6016Q712.828,485.6016,711.805,486.6562Q710.789,487.7109,710.523,489.5391L717.938,489.5391ZM733.578,496.9766L731.797,496.9766L731.797,494.9609L731.656,494.9609Q731.031,496.0859,729.977,496.7031Q728.922,497.3125,727.602,497.3125Q726.039,497.3125,724.789,496.4375Q723.547,495.5625,722.836,494.0156Q722.125,492.4609,722.125,490.5234Q722.125,488.625,722.836,487.125Q723.547,485.625,724.789,484.7969Q726.039,483.9688,727.602,483.9688Q728.82,483.9688,729.875,484.5938Q730.938,485.2188,731.656,486.3203L731.797,486.3203L731.797,478.78125L733.578,478.78125L733.578,496.9766ZM731.852,490.6406Q731.852,489.2266,731.344,488.1016Q730.844,486.9688,729.953,486.3438Q729.062,485.7188,727.938,485.7188Q726.781,485.7188,725.883,486.3438Q724.984,486.9688,724.469,488.0859Q723.953,489.2031,723.953,490.6406Q723.953,492.0781,724.469,493.1953Q724.984,494.3125,725.906,494.9375Q726.828,495.5625,728.008,495.5625Q729.109,495.5625,729.984,494.9375Q730.867,494.3125,731.359,493.1953Q731.852,492.0781,731.852,490.6406ZM737.25,496.9766L737.25,494.6484L739.555,494.6484L739.555,496.9766L737.25,496.9766Z" fill="#3D3D3D" fill-opacity="1"/></g></g></svg>